{
.appVersion = "1184";
DisplayStrings = (
"/Ohorn/Ohorntilde/OE QR/Uogonek Xa/aogonek/eng \012/jdotless/j.sc J/I_J.loclNLD/jdotless j/i_j.loclNLD/i_j.loclNLD.sc/LJ/Lj/lj/j.sc/lj.sc t/ohorn/ohorntilde st/uhorntilde xy/j.sc/eng.sc/ohorn.sc/ohorntilde.sc/oe.sc/q.sc/r.sc/uhorntilde.sc/x.sc ª/pi/pi.tf 248/four.osf/eight.osf/two.tf/four.tf/eight.tf/two.tosf/four.tosf/eight.tosf/two.dnom/five.dnom/eight.dnom/two.numr/five.numr/eight.numr !¡?¿'/quotedbl.tf/quotesingle.tf/florin/manat/peseta/rupeeIndian/uni20BF/uni20BF.tf/florin.tf/manat.tf/peseta.tf/rupeeIndian.tf/approxequal ~/infinity/integral/approxequal.osf/asciitilde.osf/infinity.osf/approxequal.tf/asciitilde.tf/infinity.tf/integral.tf/approxequal.tosf/asciitilde.tosf/infinity.tosf @&/daggerdbl/servicemark/brevecomb/tildecomb/hookabovecomb/breveinvertedcomb/brevebelowcomb/tildecomb.case/hookabovecomb.case/brevebelowcomb.case/brevecomb_acutecomb/brevecomb_gravecomb/brevecomb_hookabovecomb/brevecomb_tildecomb/circumflexcomb_hookabovecomb/circumflexcomb_tildecomb/brevecomb_hookabovecomb.case/brevecomb_tildecomb.case/circumflexcomb_hookabovecomb.case/circumflexcomb_tildecomb.case/slashcomb",

glyphs = (
{
glyphname = A;
layers = (
{
anchors = (
{
name = bottom;
position = "{644, 0}";
},
{
name = ogonek;
position = "{1249, 0}";
},
{
name = top;
position = "{644, 1520}";
}
);
color = -1;
layerId = "2E34DD21-04BD-4163-9BA5-2EB18B4FEFA3";
paths = (
{
closed = 1;
nodes = (
"110 0 LINE",
"654 1440 LINE",
"630 1440 LINE",
"1174 0 LINE",
"1249 0 LINE",
"686 1480 LINE",
"600 1480 LINE",
"37 0 LINE"
);
},
{
closed = 1;
nodes = (
"1002 528 LINE",
"982 594 LINE",
"304 594 LINE",
"284 528 LINE"
);
}
);
width = 1286;
},
{
anchors = (
{
name = bottom;
position = "{765, 0}";
},
{
name = ogonek;
position = "{1526, 0}";
},
{
name = top;
position = "{764, 1520}";
}
);
color = -1;
layerId = "8B6491DC-016F-4A51-999B-1E64B7342710";
paths = (
{
closed = 1;
nodes = (
"424 0 LINE",
"781 1295 LINE",
"743 1295 LINE",
"1102 0 LINE",
"1526 0 LINE",
"1084 1480 LINE",
"446 1480 LINE",
"4 0 LINE"
);
},
{
closed = 1;
nodes = (
"1154 339 LINE",
"1064 679 LINE",
"464 679 LINE",
"373 339 LINE"
);
}
);
width = 1530;
}
);
leftKerningGroup = A;
note = "\012    520\012  ";
rightKerningGroup = A;
unicode = 0041;
userData = {
com.typemytype.robofont.layerData = {
};
};
},
{
glyphname = AE;
layers = (
{
anchors = (
{
name = bottom;
position = "{951, 0}";
},
{
name = top;
position = "{860, 1520}";
}
);
color = -1;
layerId = "2E34DD21-04BD-4163-9BA5-2EB18B4FEFA3";
paths = (
{
closed = 1;
nodes = (
"110 0 LINE",
"655 1414 LINE",
"857 1414 LINE",
"859 1480 LINE",
"611 1480 LINE",
"37 0 LINE"
);
},
{
closed = 1;
nodes = (
"919 528 LINE",
"919 594 LINE",
"310 594 LINE",
"290 528 LINE"
);
},
{
closed = 1;
nodes = (
"1684 0 LINE",
"1684 66 LINE",
"983 66 LINE",
"895 1414 LINE",
"1674 1414 LINE",
"1674 1480 LINE",
"824 1480 LINE",
"918 0 LINE"
);
},
{
closed = 1;
nodes = (
"1579 728 LINE",
"1579 794 LINE",
"921 794 LINE",
"921 728 LINE"
);
}
);
width = 1755;
},
{
anchors = (
{
name = bottom;
position = "{1095, 0}";
},
{
name = top;
position = "{1095, 1520}";
}
);
color = -1;
layerId = "8B6491DC-016F-4A51-999B-1E64B7342710";
paths = (
{
closed = 1;
nodes = (
"427 0 LINE",
"742 1138 LINE",
"1085 1138 LINE",
"1085 1480 LINE",
"446 1480 LINE",
"4 0 LINE"
);
},
{
closed = 1;
nodes = (
"1076 338 LINE",
"1076 680 LINE",
"464 680 LINE",
"373 338 LINE"
);
},
{
closed = 1;
nodes = (
"2040 0 LINE",
"2040 342 LINE",
"1403 342 LINE",
"1329 1138 LINE",
"2030 1138 LINE",
"2030 1480 LINE",
"885 1480 LINE",
"1003 0 LINE"
);
},
{
closed = 1;
nodes = (
"1925 584 LINE",
"1925 926 LINE",
"1160 926 LINE",
"1160 584 LINE"
);
}
);
width = 2112;
}
);
leftKerningGroup = A;
rightKerningGroup = E;
unicode = 00C6;
},
{
glyphname = B;
layers = (
{
anchors = (
{
name = bottom;
position = "{624, 0}";
},
{
name = top;
position = "{624, 1480}";
}
);
color = -1;
layerId = "2E34DD21-04BD-4163-9BA5-2EB18B4FEFA3";
paths = (
{
closed = 1;
nodes = (
"961 -10 OFFCURVE",
"1132 129 OFFCURVE",
"1132 395 CURVE SMOOTH",
"1132 597 OFFCURVE",
"1024 744 OFFCURVE",
"768 771 CURVE",
"765 756 LINE",
"1005 789 OFFCURVE",
"1089 935 OFFCURVE",
"1089 1110 CURVE SMOOTH",
"1089 1369 OFFCURVE",
"931 1494 OFFCURVE",
"557 1494 CURVE SMOOTH",
"408 1494 OFFCURVE",
"303 1482 OFFCURVE",
"190 1460 CURVE",
"190 10 LINE",
"314 -5 OFFCURVE",
"409 -10 OFFCURVE",
"525 -10 CURVE SMOOTH"
);
},
{
closed = 1;
nodes = (
"426 56 OFFCURVE",
"342 60 OFFCURVE",
"258 72 CURVE",
"258 1405 LINE",
"341 1420 OFFCURVE",
"428 1428 OFFCURVE",
"556 1428 CURVE SMOOTH",
"890 1428 OFFCURVE",
"1020 1337 OFFCURVE",
"1020 1110 CURVE SMOOTH",
"1020 899 OFFCURVE",
"899 794 OFFCURVE",
"593 794 CURVE SMOOTH",
"242 794 LINE",
"242 728 LINE",
"620 728 LINE SMOOTH",
"922 728 OFFCURVE",
"1062 621 OFFCURVE",
"1062 395 CURVE SMOOTH",
"1062 167 OFFCURVE",
"929 56 OFFCURVE",
"527 56 CURVE SMOOTH"
);
}
);
width = 1216;
},
{
anchors = (
{
name = bottom;
position = "{705, 0}";
},
{
name = top;
position = "{705, 1480}";
}
);
color = -1;
layerId = "8B6491DC-016F-4A51-999B-1E64B7342710";
paths = (
{
closed = 1;
nodes = (
"1136 -20 OFFCURVE",
"1342 143 OFFCURVE",
"1342 424 CURVE SMOOTH",
"1342 634 OFFCURVE",
"1217 740 OFFCURVE",
"1057 768 CURVE",
"1057 756 LINE",
"1200 790 OFFCURVE",
"1302 915 OFFCURVE",
"1302 1076 CURVE SMOOTH",
"1302 1359 OFFCURVE",
"1099 1500 OFFCURVE",
"629 1500 CURVE SMOOTH",
"463 1500 OFFCURVE",
"256 1475 OFFCURVE",
"109 1441 CURVE",
"109 13 LINE",
"239 -6 OFFCURVE",
"435 -20 OFFCURVE",
"561 -20 CURVE SMOOTH"
);
},
{
closed = 1;
nodes = (
"636 290 OFFCURVE",
"592 291 OFFCURVE",
"532 296 CURVE",
"532 1175 LINE",
"582 1184 OFFCURVE",
"635 1190 OFFCURVE",
"689 1190 CURVE SMOOTH",
"844 1190 OFFCURVE",
"897 1147 OFFCURVE",
"897 1052 CURVE SMOOTH",
"897 959 OFFCURVE",
"846 914 OFFCURVE",
"692 914 CURVE SMOOTH",
"490 914 LINE",
"490 595 LINE",
"725 595 LINE SMOOTH",
"886 595 OFFCURVE",
"944 549 OFFCURVE",
"944 443 CURVE SMOOTH",
"944 339 OFFCURVE",
"884 290 OFFCURVE",
"683 290 CURVE SMOOTH"
);
}
);
width = 1382;
}
);
leftKerningGroup = H;
rightKerningGroup = B;
unicode = 0042;
userData = {
com.typemytype.robofont.layerData = {
};
};
},
{
glyphname = C;
layers = (
{
anchors = (
{
name = bottom;
position = "{689, 0}";
},
{
name = top;
position = "{674, 1520}";
}
);
color = -1;
layerId = "2E34DD21-04BD-4163-9BA5-2EB18B4FEFA3";
paths = (
{
closed = 1;
nodes = (
"855 -18 OFFCURVE",
"964 3 OFFCURVE",
"1065 40 CURVE",
"1065 108 LINE",
"940 64 OFFCURVE",
"843 48 OFFCURVE",
"729 48 CURVE SMOOTH",
"403 48 OFFCURVE",
"190 209 OFFCURVE",
"190 742 CURVE SMOOTH",
"190 1254 OFFCURVE",
"393 1432 OFFCURVE",
"740 1432 CURVE SMOOTH",
"850 1432 OFFCURVE",
"955 1418 OFFCURVE",
"1065 1383 CURVE",
"1065 1451 LINE",
"961 1482 OFFCURVE",
"859 1498 OFFCURVE",
"745 1498 CURVE SMOOTH",
"358 1498 OFFCURVE",
"118 1288 OFFCURVE",
"118 738 CURVE SMOOTH",
"118 170 OFFCURVE",
"368 -18 OFFCURVE",
"729 -18 CURVE SMOOTH"
);
}
);
width = 1101;
},
{
anchors = (
{
name = bottom;
position = "{784, 0}";
},
{
name = top;
position = "{784, 1520}";
}
);
color = -1;
layerId = "8B6491DC-016F-4A51-999B-1E64B7342710";
paths = (
{
closed = 1;
nodes = (
"1025 -20 OFFCURVE",
"1150 -3 OFFCURVE",
"1242 24 CURVE",
"1242 376 LINE",
"1148 352 OFFCURVE",
"1048 335 OFFCURVE",
"953 335 CURVE SMOOTH",
"653 335 OFFCURVE",
"523 453 OFFCURVE",
"523 740 CURVE SMOOTH",
"523 1022 OFFCURVE",
"657 1145 OFFCURVE",
"963 1145 CURVE SMOOTH",
"1063 1145 OFFCURVE",
"1155 1134 OFFCURVE",
"1242 1117 CURVE",
"1242 1469 LINE",
"1143 1490 OFFCURVE",
"1036 1500 OFFCURVE",
"925 1500 CURVE SMOOTH",
"372 1500 OFFCURVE",
"69 1228 OFFCURVE",
"69 736 CURVE SMOOTH",
"69 220 OFFCURVE",
"363 -20 OFFCURVE",
"909 -20 CURVE SMOOTH"
);
}
);
width = 1295;
}
);
leftKerningGroup = O;
rightKerningGroup = C;
unicode = 0043;
userData = {
com.typemytype.robofont.layerData = {
};
};
},
{
glyphname = D;
layers = (
{
anchors = (
{
name = bottom;
position = "{611, 0}";
},
{
name = center;
position = "{671, 740}";
},
{
name = stroke;
position = "{190, 762}";
},
{
name = top;
position = "{611, 1520}";
}
);
color = -1;
layerId = "2E34DD21-04BD-4163-9BA5-2EB18B4FEFA3";
paths = (
{
closed = 1;
nodes = (
"979 -10 OFFCURVE",
"1225 222 OFFCURVE",
"1225 740 CURVE SMOOTH",
"1225 1250 OFFCURVE",
"988 1494 OFFCURVE",
"529 1494 CURVE SMOOTH",
"421 1494 OFFCURVE",
"300 1482 OFFCURVE",
"190 1461 CURVE",
"190 10 LINE",
"319 -5 OFFCURVE",
"403 -10 OFFCURVE",
"508 -10 CURVE SMOOTH"
);
},
{
closed = 1;
nodes = (
"409 56 OFFCURVE",
"334 61 OFFCURVE",
"258 72 CURVE",
"258 1406 LINE",
"352 1420 OFFCURVE",
"440 1428 OFFCURVE",
"524 1428 CURVE SMOOTH",
"948 1428 OFFCURVE",
"1153 1216 OFFCURVE",
"1153 740 CURVE SMOOTH",
"1153 259 OFFCURVE",
"939 56 OFFCURVE",
"510 56 CURVE SMOOTH"
);
}
);
width = 1343;
},
{
anchors = (
{
name = bottom;
position = "{716, 0}";
},
{
name = center;
position = "{769, 740}";
},
{
name = stroke;
position = "{109, 762}";
},
{
name = top;
position = "{696, 1520}";
}
);
color = -1;
layerId = "8B6491DC-016F-4A51-999B-1E64B7342710";
paths = (
{
closed = 1;
nodes = (
"1188 -17 OFFCURVE",
"1497 205 OFFCURVE",
"1497 740 CURVE SMOOTH",
"1497 1261 OFFCURVE",
"1204 1497 OFFCURVE",
"633 1497 CURVE SMOOTH",
"455 1497 OFFCURVE",
"258 1475 OFFCURVE",
"109 1441 CURVE",
"109 8 LINE",
"249 -9 OFFCURVE",
"421 -17 OFFCURVE",
"552 -17 CURVE SMOOTH"
);
},
{
closed = 1;
nodes = (
"631 331 OFFCURVE",
"589 331 OFFCURVE",
"543 334 CURVE",
"543 1139 LINE",
"577 1146 OFFCURVE",
"631 1151 OFFCURVE",
"668 1151 CURVE SMOOTH",
"919 1151 OFFCURVE",
"1053 1044 OFFCURVE",
"1053 742 CURVE SMOOTH",
"1053 437 OFFCURVE",
"928 331 OFFCURVE",
"671 331 CURVE SMOOTH"
);
}
);
width = 1566;
}
);
leftKerningGroup = H;
rightKerningGroup = O;
unicode = 0044;
userData = {
com.typemytype.robofont.layerData = {
};
};
},
{
glyphname = E;
layers = (
{
anchors = (
{
name = bottom;
position = "{636, 0}";
},
{
name = ogonek;
position = "{1044, 0}";
},
{
name = top;
position = "{634, 1520}";
},
{
name = topleft;
position = "{41, 1480}";
}
);
color = -1;
layerId = "2E34DD21-04BD-4163-9BA5-2EB18B4FEFA3";
paths = (
{
closed = 1;
nodes = (
"1044 0 LINE",
"1044 66 LINE",
"258 66 LINE",
"258 1414 LINE",
"1034 1414 LINE",
"1034 1480 LINE",
"190 1480 LINE",
"190 0 LINE"
);
},
{
closed = 1;
nodes = (
"939 728 LINE",
"939 794 LINE",
"240 794 LINE",
"240 728 LINE"
);
}
);
width = 1115;
},
{
anchors = (
{
name = bottom;
position = "{692, 0}";
},
{
name = ogonek;
position = "{1241, 0}";
},
{
name = top;
position = "{692, 1520}";
},
{
name = topleft;
position = "{38, 1480}";
}
);
color = -1;
layerId = "8B6491DC-016F-4A51-999B-1E64B7342710";
paths = (
{
closed = 1;
nodes = (
"1241 0 LINE",
"1241 342 LINE",
"537 342 LINE",
"537 1138 LINE",
"1231 1138 LINE",
"1231 1480 LINE",
"109 1480 LINE",
"109 0 LINE"
);
},
{
closed = 1;
nodes = (
"1126 584 LINE",
"1126 926 LINE",
"362 926 LINE",
"362 584 LINE"
);
}
);
width = 1313;
}
);
leftKerningGroup = H;
rightKerningGroup = E;
unicode = 0045;
userData = {
com.typemytype.robofont.layerData = {
};
};
},
{
glyphname = F;
layers = (
{
color = -1;
layerId = "2E34DD21-04BD-4163-9BA5-2EB18B4FEFA3";
paths = (
{
closed = 1;
nodes = (
"258 0 LINE",
"258 1414 LINE",
"1024 1414 LINE",
"1024 1480 LINE",
"190 1480 LINE",
"190 0 LINE"
);
},
{
closed = 1;
nodes = (
"929 728 LINE",
"929 794 LINE",
"250 794 LINE",
"250 728 LINE"
);
}
);
width = 1074;
},
{
color = -1;
layerId = "8B6491DC-016F-4A51-999B-1E64B7342710";
paths = (
{
closed = 1;
nodes = (
"543 0 LINE",
"543 1131 LINE",
"1231 1131 LINE",
"1231 1480 LINE",
"109 1480 LINE",
"109 0 LINE"
);
},
{
closed = 1;
nodes = (
"1126 532 LINE",
"1126 881 LINE",
"378 881 LINE",
"378 532 LINE"
);
}
);
width = 1272;
}
);
leftKerningGroup = H;
rightKerningGroup = F;
unicode = 0046;
userData = {
com.typemytype.robofont.layerData = {
};
};
},
{
glyphname = G;
layers = (
{
anchors = (
{
name = bottom;
position = "{709, 0}";
},
{
name = top;
position = "{709, 1520}";
}
);
color = -1;
layerId = "2E34DD21-04BD-4163-9BA5-2EB18B4FEFA3";
paths = (
{
closed = 1;
nodes = (
"928 -10 OFFCURVE",
"1012 -4 OFFCURVE",
"1136 17 CURVE",
"1136 720 LINE",
"1068 720 LINE",
"1068 45 LINE",
"1090 80 LINE",
"1013 64 OFFCURVE",
"930 56 OFFCURVE",
"827 56 CURVE SMOOTH",
"406 56 OFFCURVE",
"190 248 OFFCURVE",
"190 740 CURVE SMOOTH",
"190 1255 OFFCURVE",
"428 1432 OFFCURVE",
"776 1432 CURVE SMOOTH",
"876 1432 OFFCURVE",
"978 1421 OFFCURVE",
"1107 1383 CURVE",
"1107 1451 LINE",
"995 1482 OFFCURVE",
"888 1498 OFFCURVE",
"777 1498 CURVE SMOOTH",
"390 1498 OFFCURVE",
"118 1291 OFFCURVE",
"118 738 CURVE SMOOTH",
"118 209 OFFCURVE",
"365 -10 OFFCURVE",
"827 -10 CURVE SMOOTH"
);
}
);
width = 1301;
},
{
anchors = (
{
name = bottom;
position = "{845, 0}";
},
{
name = top;
position = "{845, 1520}";
}
);
color = -1;
layerId = "8B6491DC-016F-4A51-999B-1E64B7342710";
paths = (
{
closed = 1;
nodes = (
"1102 -20 OFFCURVE",
"1238 -6 OFFCURVE",
"1368 15 CURVE",
"1368 720 LINE",
"966 720 LINE",
"966 189 LINE",
"1154 347 LINE",
"1091 338 OFFCURVE",
"1008 332 OFFCURVE",
"937 332 CURVE SMOOTH",
"656 332 OFFCURVE",
"521 458 OFFCURVE",
"521 729 CURVE SMOOTH",
"521 1021 OFFCURVE",
"660 1145 OFFCURVE",
"1026 1145 CURVE SMOOTH",
"1129 1145 OFFCURVE",
"1226 1133 OFFCURVE",
"1320 1114 CURVE",
"1320 1466 LINE",
"1215 1489 OFFCURVE",
"1102 1500 OFFCURVE",
"985 1500 CURVE SMOOTH",
"377 1500 OFFCURVE",
"69 1228 OFFCURVE",
"69 736 CURVE SMOOTH",
"69 230 OFFCURVE",
"366 -20 OFFCURVE",
"973 -20 CURVE SMOOTH"
);
}
);
width = 1479;
}
);
leftKerningGroup = O;
rightKerningGroup = G;
unicode = 0047;
userData = {
com.typemytype.robofont.layerData = {
};
};
},
{
glyphname = H;
layers = (
{
anchors = (
{
name = bottom;
position = "{699, 0}";
},
{
name = center;
position = "{699, 1140}";
},
{
name = top;
position = "{699, 1520}";
},
{
name = topleft;
position = "{41, 1480}";
}
);
color = -1;
layerId = "2E34DD21-04BD-4163-9BA5-2EB18B4FEFA3";
paths = (
{
closed = 1;
nodes = (
"258 0 LINE",
"258 728 LINE",
"1140 728 LINE",
"1140 0 LINE",
"1208 0 LINE",
"1208 1480 LINE",
"1140 1480 LINE",
"1140 794 LINE",
"258 794 LINE",
"258 1480 LINE",
"190 1480 LINE",
"190 0 LINE"
);
}
);
width = 1398;
},
{
anchors = (
{
name = bottom;
position = "{791, 0}";
},
{
name = center;
position = "{791, 1211}";
},
{
name = top;
position = "{791, 1520}";
},
{
name = topleft;
position = "{36, 1480}";
}
);
color = -1;
layerId = "8B6491DC-016F-4A51-999B-1E64B7342710";
paths = (
{
closed = 1;
nodes = (
"543 0 LINE",
"543 565 LINE",
"1037 565 LINE",
"1037 0 LINE",
"1471 0 LINE",
"1471 1480 LINE",
"1037 1480 LINE",
"1037 945 LINE",
"543 945 LINE",
"543 1480 LINE",
"109 1480 LINE",
"109 0 LINE"
);
}
);
width = 1580;
}
);
leftKerningGroup = H;
rightKerningGroup = H;
unicode = 0048;
userData = {
com.typemytype.robofont.layerData = {
};
};
},
{
glyphname = I;
layers = (
{
anchors = (
{
name = bottom;
position = "{224, 0}";
},
{
name = ogonek;
position = "{258, 0}";
},
{
name = top;
position = "{224, 1520}";
}
);
color = -1;
layerId = "2E34DD21-04BD-4163-9BA5-2EB18B4FEFA3";
paths = (
{
closed = 1;
nodes = (
"258 0 LINE",
"258 1480 LINE",
"190 1480 LINE",
"190 0 LINE"
);
}
);
width = 448;
},
{
anchors = (
{
name = bottom;
position = "{325, 0}";
},
{
name = ogonek;
position = "{543, 0}";
},
{
name = top;
position = "{326, 1520}";
}
);
color = -1;
layerId = "8B6491DC-016F-4A51-999B-1E64B7342710";
paths = (
{
closed = 1;
nodes = (
"543 0 LINE",
"543 1480 LINE",
"109 1480 LINE",
"109 0 LINE"
);
}
);
width = 652;
}
);
leftKerningGroup = H;
rightKerningGroup = H;
unicode = 0049;
userData = {
com.typemytype.robofont.layerData = {
};
};
},
{
glyphname = J;
layers = (
{
anchors = (
{
name = bottom;
position = "{310, 0}";
},
{
name = top;
position = "{224, 1520}";
}
);
color = -1;
layerId = "2E34DD21-04BD-4163-9BA5-2EB18B4FEFA3";
paths = (
{
closed = 1;
nodes = (
"193 -142 OFFCURVE",
"258 11 OFFCURVE",
"258 253 CURVE SMOOTH",
"258 1480 LINE",
"190 1480 LINE",
"190 286 LINE SMOOTH",
"190 29 OFFCURVE",
"131 -120.5 OFFCURVE",
"-1 -305 CURVE",
"48 -340 LINE"
);
}
);
width = 448;
},
{
anchors = (
{
name = bottom;
position = "{543, 0}";
},
{
name = top;
position = "{327, 1520}";
}
);
color = -1;
layerId = "8B6491DC-016F-4A51-999B-1E64B7342710";
paths = (
{
closed = 1;
nodes = (
"467 -136 OFFCURVE",
"543 70 OFFCURVE",
"543 320 CURVE SMOOTH",
"543 1480 LINE",
"111 1480 LINE",
"111 304 LINE SMOOTH",
"111 98 OFFCURVE",
"78 -28 OFFCURVE",
"-31 -172 CURVE",
"243 -354 LINE"
);
}
);
width = 652;
}
);
leftKerningGroup = H;
rightKerningGroup = H;
unicode = 004A;
userData = {
com.typemytype.robofont.layerData = {
};
};
},
{
glyphname = K;
layers = (
{
anchors = (
{
name = bottom;
position = "{616, 0}";
},
{
name = top;
position = "{616, 1480}";
}
);
color = -1;
layerId = "2E34DD21-04BD-4163-9BA5-2EB18B4FEFA3";
paths = (
{
closed = 1;
nodes = (
"1193 0 LINE",
"561 774 LINE",
"561 750 LINE",
"1151 1480 LINE",
"1068 1480 LINE",
"488 758 LINE",
"1108 0 LINE"
);
},
{
closed = 1;
nodes = (
"258 0 LINE",
"258 1480 LINE",
"190 1480 LINE",
"190 0 LINE"
);
},
{
closed = 1;
nodes = (
"532 728 LINE",
"532 793 LINE",
"242 793 LINE",
"242 728 LINE"
);
}
);
width = 1183;
},
{
anchors = (
{
name = bottom;
position = "{731, 0}";
},
{
name = top;
position = "{722, 1480}";
}
);
color = -1;
layerId = "8B6491DC-016F-4A51-999B-1E64B7342710";
paths = (
{
closed = 1;
nodes = (
"1453 0 LINE",
"943 814 LINE",
"935 704 LINE",
"1410 1480 LINE",
"958 1480 LINE",
"513 752 LINE",
"986 0 LINE"
);
},
{
closed = 1;
nodes = (
"543 0 LINE",
"543 1480 LINE",
"109 1480 LINE",
"109 0 LINE"
);
},
{
closed = 1;
nodes = (
"677 565 LINE",
"677 945 LINE",
"485 945 LINE",
"485 565 LINE"
);
}
);
width = 1392;
}
);
leftKerningGroup = H;
rightKerningGroup = K;
unicode = 004B;
userData = {
com.typemytype.robofont.layerData = {
};
};
},
{
glyphname = L;
layers = (
{
anchors = (
{
name = bottom;
position = "{603, 0}";
},
{
name = caronalt;
position = "{666, 1616}";
},
{
name = periodcentered;
position = "{727, 774}";
},
{
name = slash;
position = "{224, 774}";
},
{
name = top;
position = "{224, 1520}";
}
);
color = -1;
layerId = "2E34DD21-04BD-4163-9BA5-2EB18B4FEFA3";
paths = (
{
closed = 1;
nodes = (
"1014 0 LINE",
"1014 66 LINE",
"258 66 LINE",
"258 1480 LINE",
"190 1480 LINE",
"190 0 LINE"
);
}
);
width = 1027;
},
{
anchors = (
{
name = bottom;
position = "{650, 0}";
},
{
name = caronalt;
position = "{796, 1616}";
},
{
name = periodcentered;
position = "{917, 912}";
},
{
name = slash;
position = "{330, 854}";
},
{
name = top;
position = "{330, 1520}";
}
);
color = -1;
layerId = "8B6491DC-016F-4A51-999B-1E64B7342710";
paths = (
{
closed = 1;
nodes = (
"1191 0 LINE",
"1191 357 LINE",
"543 357 LINE",
"543 1480 LINE",
"109 1480 LINE",
"109 0 LINE"
);
}
);
width = 1199;
}
);
leftKerningGroup = H;
rightKerningGroup = L;
unicode = 004C;
userData = {
com.typemytype.robofont.layerData = {
};
};
},
{
glyphname = M;
layers = (
{
anchors = (
{
name = bottom;
position = "{846, 0}";
},
{
name = top;
position = "{846, 1480}";
}
);
color = -1;
layerId = "2E34DD21-04BD-4163-9BA5-2EB18B4FEFA3";
paths = (
{
closed = 1;
nodes = (
"260 0 LINE",
"260 1422 LINE",
"222 1422 LINE",
"808 200 LINE",
"884 200 LINE",
"1468 1422 LINE",
"1432 1422 LINE",
"1432 0 LINE",
"1498 0 LINE",
"1498 1480 LINE",
"1423 1480 LINE",
"832 232 LINE",
"864 232 LINE",
"269 1480 LINE",
"194 1480 LINE",
"194 0 LINE"
);
}
);
width = 1692;
},
{
anchors = (
{
name = bottom;
position = "{1007, 0}";
},
{
name = top;
position = "{1007, 1480}";
}
);
color = -1;
layerId = "8B6491DC-016F-4A51-999B-1E64B7342710";
paths = (
{
closed = 1;
nodes = (
"517 0 LINE",
"517 1100 LINE",
"422 1100 LINE",
"804 220 LINE",
"1152 220 LINE",
"1515 1100 LINE",
"1439 1100 LINE",
"1439 0 LINE",
"1843 0 LINE",
"1843 1480 LINE",
"1312 1480 LINE",
"964 616 LINE",
"1006 616 LINE",
"644 1480 LINE",
"113 1480 LINE",
"113 0 LINE"
);
}
);
width = 1956;
}
);
leftKerningGroup = H;
rightKerningGroup = H;
unicode = 004D;
userData = {
com.typemytype.robofont.layerData = {
};
};
},
{
glyphname = N;
layers = (
{
anchors = (
{
name = bottom;
position = "{714, 0}";
},
{
name = top;
position = "{714, 1520}";
}
);
color = -1;
layerId = "2E34DD21-04BD-4163-9BA5-2EB18B4FEFA3";
paths = (
{
closed = 1;
nodes = (
"256 0 LINE",
"256 1420 LINE",
"225 1420 LINE",
"1162 0 LINE",
"1237 0 LINE",
"1237 1480 LINE",
"1171 1480 LINE",
"1171 60 LINE",
"1202 60 LINE",
"265 1480 LINE",
"190 1480 LINE",
"190 0 LINE"
);
}
);
width = 1427;
},
{
anchors = (
{
name = bottom;
position = "{796, 0}";
},
{
name = top;
position = "{796, 1520}";
}
);
color = -1;
layerId = "8B6491DC-016F-4A51-999B-1E64B7342710";
paths = (
{
closed = 1;
nodes = (
"516 0 LINE",
"516 932 LINE",
"450 932 LINE",
"1050 0 LINE",
"1483 0 LINE",
"1483 1480 LINE",
"1076 1480 LINE",
"1076 548 LINE",
"1142 548 LINE",
"542 1480 LINE",
"109 1480 LINE",
"109 0 LINE"
);
}
);
width = 1592;
}
);
leftKerningGroup = H;
rightKerningGroup = H;
unicode = 004E;
userData = {
com.typemytype.robofont.layerData = {
};
};
},
{
glyphname = Eng;
layers = (
{
color = -1;
layerId = "2E34DD21-04BD-4163-9BA5-2EB18B4FEFA3";
paths = (
{
closed = 1;
nodes = (
"1216 39 LINE",
"265 1480 LINE",
"190 1480 LINE",
"190 0 LINE",
"256 0 LINE",
"256 1420 LINE",
"224 1420 LINE",
"1175 -21 LINE"
);
},
{
closed = 1;
nodes = (
"1172 -262 OFFCURVE",
"1237 -88 OFFCURVE",
"1237 173 CURVE SMOOTH",
"1237 1480 LINE",
"1171 1480 LINE",
"1171 166 LINE SMOOTH",
"1171 -74 OFFCURVE",
"1111 -242 OFFCURVE",
"978 -425 CURVE",
"1027 -460 LINE"
);
}
);
width = 1427;
},
{
color = -1;
layerId = "8B6491DC-016F-4A51-999B-1E64B7342710";
paths = (
{
closed = 1;
nodes = (
"1176 503 LINE",
"542 1480 LINE",
"109 1480 LINE",
"109 0 LINE",
"516 0 LINE",
"516 932 LINE",
"450 932 LINE",
"1130 -125 LINE"
);
},
{
closed = 1;
nodes = (
"1408 -258 OFFCURVE",
"1483 -54 OFFCURVE",
"1483 236 CURVE SMOOTH",
"1483 1480 LINE",
"1076 1480 LINE",
"1076 180 LINE SMOOTH",
"1076 -26 OFFCURVE",
"1030 -152 OFFCURVE",
"915 -296 CURVE",
"1187 -476 LINE"
);
}
);
width = 1592;
}
);
leftKerningGroup = H;
rightKerningGroup = H;
unicode = 014A;
},
{
glyphname = O;
layers = (
{
anchors = (
{
name = bottom;
position = "{684, 0}";
},
{
name = center;
position = "{684, 740}";
},
{
name = ogonek;
position = "{844, 0}";
},
{
name = top;
position = "{684, 1520}";
},
{
name = topleft;
position = "{44, 1480}";
},
{
name = topright;
position = "{843, 1480}";
}
);
color = -1;
layerId = "2E34DD21-04BD-4163-9BA5-2EB18B4FEFA3";
paths = (
{
closed = 1;
nodes = (
"1020 -18 OFFCURVE",
"1250 195 OFFCURVE",
"1250 740 CURVE SMOOTH",
"1250 1285 OFFCURVE",
"1023 1498 OFFCURVE",
"684 1498 CURVE SMOOTH",
"348 1498 OFFCURVE",
"118 1285 OFFCURVE",
"118 740 CURVE SMOOTH",
"118 195 OFFCURVE",
"345 -18 OFFCURVE",
"684 -18 CURVE SMOOTH"
);
},
{
closed = 1;
nodes = (
"390 49 OFFCURVE",
"190 224 OFFCURVE",
"190 744 CURVE SMOOTH",
"190 1256 OFFCURVE",
"390 1431 OFFCURVE",
"684 1431 CURVE SMOOTH",
"978 1431 OFFCURVE",
"1178 1256 OFFCURVE",
"1178 736 CURVE SMOOTH",
"1178 224 OFFCURVE",
"978 49 OFFCURVE",
"684 49 CURVE SMOOTH"
);
}
);
width = 1368;
},
{
anchors = (
{
name = bottom;
position = "{822, 0}";
},
{
name = center;
position = "{822, 740}";
},
{
name = ogonek;
position = "{997, 0}";
},
{
name = top;
position = "{822, 1520}";
},
{
name = topleft;
position = "{51, 1480}";
},
{
name = topright;
position = "{1029, 1480}";
}
);
color = -1;
layerId = "8B6491DC-016F-4A51-999B-1E64B7342710";
paths = (
{
closed = 1;
nodes = (
"1279 -20 OFFCURVE",
"1575 239 OFFCURVE",
"1575 740 CURVE SMOOTH",
"1575 1241 OFFCURVE",
"1280 1500 OFFCURVE",
"822 1500 CURVE SMOOTH",
"364 1500 OFFCURVE",
"69 1243 OFFCURVE",
"69 740 CURVE SMOOTH",
"69 237 OFFCURVE",
"365 -20 OFFCURVE",
"822 -20 CURVE SMOOTH"
);
},
{
closed = 1;
nodes = (
"622 326 OFFCURVE",
"513 447 OFFCURVE",
"513 748 CURVE SMOOTH",
"513 1033 OFFCURVE",
"625 1154 OFFCURVE",
"822 1154 CURVE SMOOTH",
"1019 1154 OFFCURVE",
"1131 1030 OFFCURVE",
"1131 732 CURVE SMOOTH",
"1131 450 OFFCURVE",
"1022 326 OFFCURVE",
"822 326 CURVE SMOOTH"
);
}
);
width = 1644;
}
);
leftKerningGroup = O;
rightKerningGroup = O;
unicode = 004F;
userData = {
com.typemytype.robofont.layerData = {
};
};
},
{
glyphname = Ohorn;
layers = (
{
anchors = (
{
name = bottom;
position = "{684, 0}";
},
{
name = top;
position = "{684, 1520}";
}
);
color = -1;
layerId = "2E34DD21-04BD-4163-9BA5-2EB18B4FEFA3";
paths = (
{
closed = 1;
nodes = (
"1021 -18 OFFCURVE",
"1250 189 OFFCURVE",
"1250 740 CURVE SMOOTH",
"1250 1104 OFFCURVE",
"1149 1319 OFFCURVE",
"984 1421 CURVE",
"981 1407 LINE",
"1149 1407 OFFCURVE",
"1250 1491 OFFCURVE",
"1250 1632 CURVE SMOOTH",
"1250 1692 OFFCURVE",
"1242 1730 OFFCURVE",
"1225 1776 CURVE",
"1159 1776 LINE",
"1174 1730 OFFCURVE",
"1184 1690 OFFCURVE",
"1184 1634 CURVE SMOOTH",
"1184 1525 OFFCURVE",
"1106 1474 OFFCURVE",
"985 1474 CURVE SMOOTH",
"868 1474 OFFCURVE",
"798 1498 OFFCURVE",
"684 1498 CURVE SMOOTH",
"348 1498 OFFCURVE",
"118 1285 OFFCURVE",
"118 740 CURVE SMOOTH",
"118 195 OFFCURVE",
"347 -18 OFFCURVE",
"684 -18 CURVE SMOOTH"
);
},
{
closed = 1;
nodes = (
"390 49 OFFCURVE",
"190 224 OFFCURVE",
"190 744 CURVE SMOOTH",
"190 1256 OFFCURVE",
"390 1431 OFFCURVE",
"684 1431 CURVE SMOOTH",
"978 1431 OFFCURVE",
"1178 1256 OFFCURVE",
"1178 736 CURVE SMOOTH",
"1178 224 OFFCURVE",
"978 49 OFFCURVE",
"684 49 CURVE SMOOTH"
);
}
);
width = 1368;
},
{
anchors = (
{
name = bottom;
position = "{822, 0}";
},
{
name = top;
position = "{822, 1520}";
}
);
color = -1;
layerId = "8B6491DC-016F-4A51-999B-1E64B7342710";
paths = (
{
closed = 1;
nodes = (
"1282 -20 OFFCURVE",
"1575 239 OFFCURVE",
"1575 740 CURVE SMOOTH",
"1575 1042 OFFCURVE",
"1468 1258 OFFCURVE",
"1280 1377 CURVE",
"1250 1293 LINE",
"1454 1293 OFFCURVE",
"1593 1389 OFFCURVE",
"1593 1618 CURVE SMOOTH",
"1593 1669 OFFCURVE",
"1590 1719 OFFCURVE",
"1574 1776 CURVE",
"1296 1776 LINE",
"1307 1717 OFFCURVE",
"1310 1675 OFFCURVE",
"1310 1636 CURVE SMOOTH",
"1310 1518 OFFCURVE",
"1249 1480 OFFCURVE",
"1128 1480 CURVE SMOOTH",
"1038 1480 OFFCURVE",
"933 1500 OFFCURVE",
"822 1500 CURVE SMOOTH",
"364 1500 OFFCURVE",
"69 1243 OFFCURVE",
"69 740 CURVE SMOOTH",
"69 237 OFFCURVE",
"362 -20 OFFCURVE",
"822 -20 CURVE SMOOTH"
);
},
{
closed = 1;
nodes = (
"622 326 OFFCURVE",
"513 447 OFFCURVE",
"513 748 CURVE SMOOTH",
"513 1033 OFFCURVE",
"625 1154 OFFCURVE",
"822 1154 CURVE SMOOTH",
"1019 1154 OFFCURVE",
"1131 1030 OFFCURVE",
"1131 732 CURVE SMOOTH",
"1131 450 OFFCURVE",
"1022 326 OFFCURVE",
"822 326 CURVE SMOOTH"
);
}
);
width = 1644;
}
);
leftKerningGroup = O;
rightKerningGroup = O;
unicode = 01A0;
},
{
glyphname = Ohorntilde;
layers = (
{
color = -1;
layerId = "2E34DD21-04BD-4163-9BA5-2EB18B4FEFA3";
paths = (
{
closed = 1;
nodes = (
"1021 -18 OFFCURVE",
"1250 189 OFFCURVE",
"1250 740 CURVE SMOOTH",
"1250 1104 OFFCURVE",
"1149 1319 OFFCURVE",
"984 1421 CURVE",
"981 1407 LINE",
"1149 1407 OFFCURVE",
"1250 1491 OFFCURVE",
"1250 1632 CURVE SMOOTH",
"1250 1692 OFFCURVE",
"1242 1730 OFFCURVE",
"1225 1776 CURVE",
"1159 1776 LINE",
"1174 1730 OFFCURVE",
"1184 1690 OFFCURVE",
"1184 1634 CURVE SMOOTH",
"1184 1525 OFFCURVE",
"1106 1474 OFFCURVE",
"985 1474 CURVE SMOOTH",
"868 1474 OFFCURVE",
"798 1498 OFFCURVE",
"684 1498 CURVE SMOOTH",
"348 1498 OFFCURVE",
"118 1285 OFFCURVE",
"118 740 CURVE SMOOTH",
"118 195 OFFCURVE",
"347 -18 OFFCURVE",
"684 -18 CURVE SMOOTH"
);
},
{
closed = 1;
nodes = (
"390 49 OFFCURVE",
"190 224 OFFCURVE",
"190 744 CURVE SMOOTH",
"190 1256 OFFCURVE",
"390 1431 OFFCURVE",
"684 1431 CURVE SMOOTH",
"978 1431 OFFCURVE",
"1178 1256 OFFCURVE",
"1178 736 CURVE SMOOTH",
"1178 224 OFFCURVE",
"978 49 OFFCURVE",
"684 49 CURVE SMOOTH"
);
},
{
closed = 1;
nodes = (
"897 1697 OFFCURVE",
"948 1719 OFFCURVE",
"983 1758 CURVE",
"983 1825 LINE",
"940 1777 OFFCURVE",
"894 1754 OFFCURVE",
"828 1754 CURVE SMOOTH",
"736 1754 OFFCURVE",
"652 1830 OFFCURVE",
"540 1830 CURVE SMOOTH",
"471 1830 OFFCURVE",
"420 1808 OFFCURVE",
"385 1769 CURVE",
"385 1702 LINE",
"428 1750 OFFCURVE",
"474 1773 OFFCURVE",
"540 1773 CURVE SMOOTH",
"632 1773 OFFCURVE",
"716 1697 OFFCURVE",
"828 1697 CURVE SMOOTH"
);
}
);
width = 1368;
},
{
color = -1;
layerId = "8B6491DC-016F-4A51-999B-1E64B7342710";
paths = (
{
closed = 1;
nodes = (
"1282 -20 OFFCURVE",
"1575 239 OFFCURVE",
"1575 740 CURVE SMOOTH",
"1575 1042 OFFCURVE",
"1468 1258 OFFCURVE",
"1280 1377 CURVE",
"1250 1293 LINE",
"1454 1293 OFFCURVE",
"1593 1389 OFFCURVE",
"1593 1618 CURVE SMOOTH",
"1593 1669 OFFCURVE",
"1590 1719 OFFCURVE",
"1574 1776 CURVE",
"1296 1776 LINE",
"1307 1717 OFFCURVE",
"1310 1675 OFFCURVE",
"1310 1636 CURVE SMOOTH",
"1310 1518 OFFCURVE",
"1249 1480 OFFCURVE",
"1128 1480 CURVE SMOOTH",
"1038 1480 OFFCURVE",
"933 1500 OFFCURVE",
"822 1500 CURVE SMOOTH",
"364 1500 OFFCURVE",
"69 1243 OFFCURVE",
"69 740 CURVE SMOOTH",
"69 237 OFFCURVE",
"362 -20 OFFCURVE",
"822 -20 CURVE SMOOTH"
);
},
{
closed = 1;
nodes = (
"622 326 OFFCURVE",
"513 447 OFFCURVE",
"513 748 CURVE SMOOTH",
"513 1033 OFFCURVE",
"625 1154 OFFCURVE",
"822 1154 CURVE SMOOTH",
"1019 1154 OFFCURVE",
"1131 1030 OFFCURVE",
"1131 732 CURVE SMOOTH",
"1131 450 OFFCURVE",
"1022 326 OFFCURVE",
"822 326 CURVE SMOOTH"
);
},
{
closed = 1;
nodes = (
"1093 1586 OFFCURVE",
"1156 1608 OFFCURVE",
"1213 1661 CURVE",
"1213 1894 LINE",
"1147 1847 OFFCURVE",
"1090 1824 OFFCURVE",
"1005 1824 CURVE SMOOTH",
"882 1824 OFFCURVE",
"789 1902 OFFCURVE",
"647 1902 CURVE SMOOTH",
"551 1902 OFFCURVE",
"488 1878 OFFCURVE",
"431 1825 CURVE",
"431 1592 LINE",
"497 1639 OFFCURVE",
"554 1662 OFFCURVE",
"639 1662 CURVE SMOOTH",
"762 1662 OFFCURVE",
"855 1586 OFFCURVE",
"998 1586 CURVE SMOOTH"
);
}
);
width = 1644;
}
);
leftKerningGroup = O;
rightKerningGroup = O;
unicode = 1EE0;
},
{
glyphname = Oogonek;
layers = (
{
color = -1;
layerId = "2E34DD21-04BD-4163-9BA5-2EB18B4FEFA3";
paths = (
{
closed = 1;
nodes = (
"857 -400 OFFCURVE",
"913 -387 OFFCURVE",
"969 -361 CURVE",
"969 -307 LINE",
"899 -336 OFFCURVE",
"851 -348 OFFCURVE",
"799 -348 CURVE SMOOTH",
"701 -348 OFFCURVE",
"649 -307 OFFCURVE",
"649 -228 CURVE SMOOTH",
"649 -141 OFFCURVE",
"706 -56 OFFCURVE",
"896 15 CURVE SMOOTH",
"1106 95 OFFCURVE",
"1250 304 OFFCURVE",
"1250 740 CURVE SMOOTH",
"1250 1291 OFFCURVE",
"1020 1498 OFFCURVE",
"684 1498 CURVE SMOOTH",
"348 1498 OFFCURVE",
"118 1285 OFFCURVE",
"118 740 CURVE SMOOTH",
"118 195 OFFCURVE",
"346 -18 OFFCURVE",
"688 -18 CURVE SMOOTH",
"749 -18 LINE",
"749 -2 LINE",
"632 -67 OFFCURVE",
"591 -145 OFFCURVE",
"591 -231 CURVE SMOOTH",
"591 -339 OFFCURVE",
"668 -400 OFFCURVE",
"802 -400 CURVE SMOOTH"
);
},
{
closed = 1;
nodes = (
"390 49 OFFCURVE",
"190 224 OFFCURVE",
"190 744 CURVE SMOOTH",
"190 1256 OFFCURVE",
"390 1431 OFFCURVE",
"684 1431 CURVE SMOOTH",
"978 1431 OFFCURVE",
"1178 1256 OFFCURVE",
"1178 736 CURVE SMOOTH",
"1178 224 OFFCURVE",
"978 49 OFFCURVE",
"684 49 CURVE SMOOTH"
);
}
);
width = 1368;
},
{
color = -1;
layerId = "8B6491DC-016F-4A51-999B-1E64B7342710";
paths = (
{
closed = 1;
nodes = (
"957 -460 OFFCURVE",
"1016 -448 OFFCURVE",
"1071 -430 CURVE",
"1071 -275 LINE",
"1019 -293 OFFCURVE",
"975 -300 OFFCURVE",
"940 -300 CURVE SMOOTH",
"842 -300 OFFCURVE",
"802 -264 OFFCURVE",
"802 -206 CURVE SMOOTH",
"802 -127 OFFCURVE",
"865 -49 OFFCURVE",
"1081 13 CURVE SMOOTH",
"1348 86 OFFCURVE",
"1575 303 OFFCURVE",
"1575 740 CURVE SMOOTH",
"1575 1241 OFFCURVE",
"1280 1500 OFFCURVE",
"822 1500 CURVE SMOOTH",
"364 1500 OFFCURVE",
"69 1243 OFFCURVE",
"69 740 CURVE SMOOTH",
"69 241 OFFCURVE",
"356 -20 OFFCURVE",
"807 -20 CURVE SMOOTH",
"841 -20 LINE",
"872 62 LINE",
"645 -10 OFFCURVE",
"566 -112 OFFCURVE",
"566 -236 CURVE SMOOTH",
"566 -372 OFFCURVE",
"665 -460 OFFCURVE",
"878 -460 CURVE SMOOTH"
);
},
{
closed = 1;
nodes = (
"622 326 OFFCURVE",
"513 447 OFFCURVE",
"513 748 CURVE SMOOTH",
"513 1033 OFFCURVE",
"625 1154 OFFCURVE",
"822 1154 CURVE SMOOTH",
"1019 1154 OFFCURVE",
"1131 1030 OFFCURVE",
"1131 732 CURVE SMOOTH",
"1131 450 OFFCURVE",
"1022 326 OFFCURVE",
"822 326 CURVE SMOOTH"
);
}
);
width = 1644;
}
);
leftKerningGroup = O;
rightKerningGroup = O;
unicode = 01EA;
},
{
glyphname = OE;
layers = (
{
anchors = (
{
name = bottom;
position = "{1087, 0}";
},
{
name = top;
position = "{1087, 1520}";
}
);
color = -1;
layerId = "2E34DD21-04BD-4163-9BA5-2EB18B4FEFA3";
paths = (
{
closed = 1;
nodes = (
"927 -10 OFFCURVE",
"1037 0 OFFCURVE",
"1116 0 CURVE SMOOTH",
"1875 0 LINE",
"1875 66 LINE",
"1121 66 LINE",
"1121 1414 LINE",
"1865 1414 LINE",
"1865 1480 LINE",
"1103 1480 LINE SMOOTH",
"1018 1480 OFFCURVE",
"912 1494 OFFCURVE",
"800 1494 CURVE SMOOTH",
"355 1494 OFFCURVE",
"118 1250 OFFCURVE",
"118 740 CURVE SMOOTH",
"118 222 OFFCURVE",
"364 -10 OFFCURVE",
"818 -10 CURVE SMOOTH"
);
},
{
closed = 1;
nodes = (
"404 56 OFFCURVE",
"190 259 OFFCURVE",
"190 740 CURVE SMOOTH",
"190 1216 OFFCURVE",
"395 1428 OFFCURVE",
"805 1428 CURVE SMOOTH",
"896 1428 OFFCURVE",
"971 1423 OFFCURVE",
"1053 1413 CURVE",
"1053 67 LINE",
"992 59 OFFCURVE",
"917 56 OFFCURVE",
"816 56 CURVE SMOOTH"
);
},
{
closed = 1;
nodes = (
"1770 728 LINE",
"1770 794 LINE",
"1113 794 LINE",
"1113 728 LINE"
);
}
);
width = 1946;
},
{
anchors = (
{
name = bottom;
position = "{1228, 0}";
},
{
name = top;
position = "{1228, 1520}";
}
);
color = -1;
layerId = "8B6491DC-016F-4A51-999B-1E64B7342710";
paths = (
{
closed = 1;
nodes = (
"1073 -12 OFFCURVE",
"1197 0 OFFCURVE",
"1303 0 CURVE SMOOTH",
"2113 0 LINE",
"2113 342 LINE",
"1441 342 LINE",
"1441 1138 LINE",
"2103 1138 LINE",
"2103 1480 LINE",
"1303 1480 LINE SMOOTH",
"1196 1480 OFFCURVE",
"1080 1492 OFFCURVE",
"977 1492 CURVE SMOOTH",
"391 1492 OFFCURVE",
"69 1260 OFFCURVE",
"69 740 CURVE SMOOTH",
"69 214 OFFCURVE",
"363 -12 OFFCURVE",
"977 -12 CURVE SMOOTH"
);
},
{
closed = 1;
nodes = (
"639 336 OFFCURVE",
"512 442 OFFCURVE",
"512 738 CURVE SMOOTH",
"512 1037 OFFCURVE",
"639 1143 OFFCURVE",
"885 1143 CURVE SMOOTH",
"925 1143 OFFCURVE",
"967 1143 OFFCURVE",
"1013 1140 CURVE",
"1013 339 LINE",
"967 336 OFFCURVE",
"922 336 OFFCURVE",
"885 336 CURVE SMOOTH"
);
},
{
closed = 1;
nodes = (
"1998 584 LINE",
"1998 926 LINE",
"1266 926 LINE",
"1266 584 LINE"
);
}
);
width = 2185;
}
);
leftKerningGroup = O;
rightKerningGroup = E;
unicode = 0152;
},
{
glyphname = P;
layers = (
{
color = -1;
layerId = "2E34DD21-04BD-4163-9BA5-2EB18B4FEFA3";
paths = (
{
closed = 1;
nodes = (
"258 0 LINE",
"258 529 LINE",
"337 521 OFFCURVE",
"403 518 OFFCURVE",
"482 518 CURVE SMOOTH",
"904 518 OFFCURVE",
"1085 691 OFFCURVE",
"1085 1007 CURVE SMOOTH",
"1085 1343 OFFCURVE",
"892 1494 OFFCURVE",
"530 1494 CURVE SMOOTH",
"408 1494 OFFCURVE",
"303 1482 OFFCURVE",
"190 1461 CURVE",
"190 0 LINE"
);
},
{
closed = 1;
nodes = (
"402 584 OFFCURVE",
"331 588 OFFCURVE",
"258 598 CURVE",
"258 1406 LINE",
"341 1420 OFFCURVE",
"428 1428 OFFCURVE",
"530 1428 CURVE SMOOTH",
"854 1428 OFFCURVE",
"1013 1300 OFFCURVE",
"1013 1004 CURVE SMOOTH",
"1013 724 OFFCURVE",
"858 584 OFFCURVE",
"485 584 CURVE SMOOTH"
);
}
);
width = 1184;
},
{
color = -1;
layerId = "8B6491DC-016F-4A51-999B-1E64B7342710";
paths = (
{
closed = 1;
nodes = (
"543 0 LINE",
"543 394.5 LINE",
"578.5 392 OFFCURVE",
"612 391 OFFCURVE",
"652 391 CURVE SMOOTH",
"1079 391 OFFCURVE",
"1311 579 OFFCURVE",
"1311 945 CURVE SMOOTH",
"1311 1330 OFFCURVE",
"1076 1500 OFFCURVE",
"603 1500 CURVE SMOOTH",
"421 1500 OFFCURVE",
"259 1480 OFFCURVE",
"109 1450 CURVE",
"109 0 LINE"
);
},
{
closed = 1;
nodes = (
"612 711 OFFCURVE",
"581 713 OFFCURVE",
"543 718 CURVE",
"543 1172 LINE",
"575 1178 OFFCURVE",
"603 1180 OFFCURVE",
"645 1180 CURVE SMOOTH",
"815 1180 OFFCURVE",
"892 1110 OFFCURVE",
"892 943 CURVE SMOOTH",
"892 771 OFFCURVE",
"815 711 OFFCURVE",
"656 711 CURVE SMOOTH"
);
}
);
width = 1373;
}
);
leftKerningGroup = H;
rightKerningGroup = P;
unicode = 0050;
userData = {
com.typemytype.robofont.layerData = {
};
};
},
{
glyphname = Thorn;
layers = (
{
color = -1;
layerId = "2E34DD21-04BD-4163-9BA5-2EB18B4FEFA3";
paths = (
{
closed = 1;
nodes = (
"258 0 LINE",
"258 283 LINE",
"337 275 OFFCURVE",
"403 272 OFFCURVE",
"482 272 CURVE SMOOTH",
"904 272 OFFCURVE",
"1085 445 OFFCURVE",
"1085 761 CURVE SMOOTH",
"1085 1097 OFFCURVE",
"892 1248 OFFCURVE",
"530 1248 CURVE SMOOTH",
"418 1248 OFFCURVE",
"328 1238 OFFCURVE",
"258 1226 CURVE",
"258 1481 LINE",
"190 1481 LINE",
"190 0 LINE"
);
},
{
closed = 1;
nodes = (
"402 338 OFFCURVE",
"331 342 OFFCURVE",
"258 352 CURVE",
"258 1160 LINE",
"341 1174 OFFCURVE",
"428 1182 OFFCURVE",
"530 1182 CURVE SMOOTH",
"854 1182 OFFCURVE",
"1013 1054 OFFCURVE",
"1013 758 CURVE SMOOTH",
"1013 478 OFFCURVE",
"858 338 OFFCURVE",
"485 338 CURVE SMOOTH"
);
}
);
width = 1194;
},
{
color = -1;
layerId = "8B6491DC-016F-4A51-999B-1E64B7342710";
paths = (
{
closed = 1;
nodes = (
"543 0 LINE",
"543 209 LINE",
"579 207 OFFCURVE",
"615 206 OFFCURVE",
"656 206 CURVE SMOOTH",
"1080 206 OFFCURVE",
"1311 392 OFFCURVE",
"1311 760 CURVE SMOOTH",
"1311 1145 OFFCURVE",
"1078 1315 OFFCURVE",
"617.5 1315 CURVE SMOOTH",
"595 1315 OFFCURVE",
"567 1314 OFFCURVE",
"543 1312.5 CURVE",
"543 1480 LINE",
"109 1480 LINE",
"109 0 LINE"
);
},
{
closed = 1;
nodes = (
"612 526 OFFCURVE",
"581 528 OFFCURVE",
"543 532 CURVE",
"543 988 LINE",
"575 993 OFFCURVE",
"603 995 OFFCURVE",
"645 995 CURVE SMOOTH",
"815 995 OFFCURVE",
"892 925 OFFCURVE",
"892 758 CURVE SMOOTH",
"892 586 OFFCURVE",
"815 526 OFFCURVE",
"656 526 CURVE SMOOTH"
);
}
);
width = 1383;
}
);
leftKerningGroup = H;
rightKerningGroup = Thorn;
unicode = 00DE;
userData = {
com.typemytype.robofont.layerData = {
};
};
},
{
glyphname = Q;
layers = (
{
color = -1;
layerId = "2E34DD21-04BD-4163-9BA5-2EB18B4FEFA3";
paths = (
{
closed = 1;
nodes = (
"1223 -114 LINE",
"1009 -97 OFFCURVE",
"760 -59 OFFCURVE",
"595 16 CURVE",
"600 -8 LINE",
"634.5 -12 OFFCURVE",
"668 -14 OFFCURVE",
"700 -14 CURVE SMOOTH",
"1060 -14 OFFCURVE",
"1250 243.5 OFFCURVE",
"1250 740 CURVE SMOOTH",
"1250 1291 OFFCURVE",
"1020 1498 OFFCURVE",
"684 1498 CURVE SMOOTH",
"348 1498 OFFCURVE",
"118 1285 OFFCURVE",
"118 740 CURVE SMOOTH",
"118 127 OFFCURVE",
"369 -94 OFFCURVE",
"1213 -180 CURVE"
);
},
{
closed = 1;
nodes = (
"390 49 OFFCURVE",
"190 224 OFFCURVE",
"190 744 CURVE SMOOTH",
"190 1256 OFFCURVE",
"390 1431 OFFCURVE",
"684 1431 CURVE SMOOTH",
"978 1431 OFFCURVE",
"1178 1256 OFFCURVE",
"1178 736 CURVE SMOOTH",
"1178 224 OFFCURVE",
"978 49 OFFCURVE",
"684 49 CURVE SMOOTH"
);
}
);
width = 1368;
},
{
color = -1;
layerId = "8B6491DC-016F-4A51-999B-1E64B7342710";
paths = (
{
closed = 1;
nodes = (
"1559 -40 LINE",
"1320 -9 OFFCURVE",
"1097 41 OFFCURVE",
"841 135 CURVE",
"696 31 LINE",
"758.5 22.5 OFFCURVE",
"818 18.5 OFFCURVE",
"874.5 18.5 CURVE SMOOTH",
"1342.5 18.5 OFFCURVE",
"1575 301 OFFCURVE",
"1575 740 CURVE SMOOTH",
"1575 1241 OFFCURVE",
"1280 1500 OFFCURVE",
"822 1500 CURVE SMOOTH",
"364 1500 OFFCURVE",
"69 1243 OFFCURVE",
"69 730 CURVE SMOOTH",
"69 204 OFFCURVE",
"382 -192 OFFCURVE",
"1487 -374 CURVE"
);
},
{
closed = 1;
nodes = (
"620 326 OFFCURVE",
"513 445 OFFCURVE",
"513 748 CURVE SMOOTH",
"513 1033 OFFCURVE",
"625 1154 OFFCURVE",
"822 1154 CURVE SMOOTH",
"1019 1154 OFFCURVE",
"1131 1030 OFFCURVE",
"1131 732 CURVE SMOOTH",
"1131 450 OFFCURVE",
"1022 326 OFFCURVE",
"822 326 CURVE SMOOTH"
);
}
);
width = 1644;
}
);
leftKerningGroup = O;
rightKerningGroup = O;
unicode = 0051;
userData = {
com.typemytype.robofont.layerData = {
};
};
},
{
glyphname = R;
layers = (
{
anchors = (
{
name = bottom;
position = "{660, 0}";
},
{
name = top;
position = "{602, 1520}";
}
);
color = -1;
layerId = "2E34DD21-04BD-4163-9BA5-2EB18B4FEFA3";
paths = (
{
closed = 1;
nodes = (
"258 0 LINE",
"258 661 LINE",
"332 655 OFFCURVE",
"395 651 OFFCURVE",
"491 651 CURVE SMOOTH",
"892 651 OFFCURVE",
"1087 794 OFFCURVE",
"1087 1077 CURVE SMOOTH",
"1087 1364 OFFCURVE",
"914 1494 OFFCURVE",
"545 1494 CURVE SMOOTH",
"397 1494 OFFCURVE",
"291 1479 OFFCURVE",
"190 1461 CURVE",
"190 0 LINE"
);
},
{
closed = 1;
nodes = (
"1197 0 LINE",
"646 703 LINE",
"561 703 LINE",
"1109.5 0 LINE"
);
},
{
closed = 1;
nodes = (
"395 716 OFFCURVE",
"346 719 OFFCURVE",
"258 726 CURVE",
"258 1404 LINE",
"346 1419 OFFCURVE",
"422 1428 OFFCURVE",
"541 1428 CURVE SMOOTH",
"880 1428 OFFCURVE",
"1019 1327 OFFCURVE",
"1019 1075 CURVE SMOOTH",
"1019 834 OFFCURVE",
"865 716 OFFCURVE",
"489 716 CURVE SMOOTH"
);
}
);
width = 1266;
},
{
anchors = (
{
name = bottom;
position = "{750, 0}";
},
{
name = top;
position = "{709, 1520}";
}
);
color = -1;
layerId = "8B6491DC-016F-4A51-999B-1E64B7342710";
paths = (
{
closed = 1;
nodes = (
"535 0 LINE",
"535 500.5 LINE",
"577 498.5 OFFCURVE",
"615 497 OFFCURVE",
"659 497 CURVE SMOOTH",
"1044 497 OFFCURVE",
"1300 669 OFFCURVE",
"1300 999 CURVE SMOOTH",
"1300 1341 OFFCURVE",
"1066 1500 OFFCURVE",
"617 1500 CURVE SMOOTH",
"447 1500 OFFCURVE",
"256 1475 OFFCURVE",
"109 1441 CURVE",
"109 0 LINE"
);
},
{
closed = 1;
nodes = (
"1428 0 LINE",
"973 676 LINE",
"514 676 LINE",
"959 0 LINE"
);
},
{
closed = 1;
nodes = (
"622 814 OFFCURVE",
"578 817 OFFCURVE",
"535 822 CURVE",
"535 1175 LINE",
"573 1182 OFFCURVE",
"619 1187 OFFCURVE",
"667 1187 CURVE SMOOTH",
"815 1187 OFFCURVE",
"895 1128 OFFCURVE",
"895 999 CURVE SMOOTH",
"895 863 OFFCURVE",
"815 814 OFFCURVE",
"669 814 CURVE SMOOTH"
);
}
);
width = 1425;
}
);
leftKerningGroup = H;
rightKerningGroup = R;
unicode = 0052;
userData = {
com.typemytype.robofont.layerData = {
};
};
},
{
glyphname = S;
layers = (
{
anchors = (
{
name = bottom;
position = "{512, 0}";
},
{
name = top;
position = "{512, 1520}";
}
);
color = -1;
layerId = "2E34DD21-04BD-4163-9BA5-2EB18B4FEFA3";
paths = (
{
closed = 1;
nodes = (
"750 -18 OFFCURVE",
"925 123 OFFCURVE",
"925 380 CURVE SMOOTH",
"925 587 OFFCURVE",
"805 706 OFFCURVE",
"539 774 CURVE SMOOTH",
"477 790 LINE SMOOTH",
"245 851 OFFCURVE",
"157 937 OFFCURVE",
"157 1116 CURVE SMOOTH",
"157 1319 OFFCURVE",
"290 1432 OFFCURVE",
"557 1432 CURVE SMOOTH",
"661 1432 OFFCURVE",
"762 1418 OFFCURVE",
"867 1385 CURVE",
"867 1453 LINE",
"776 1483 OFFCURVE",
"663 1498 OFFCURVE",
"561 1498 CURVE SMOOTH",
"247 1498 OFFCURVE",
"85 1350 OFFCURVE",
"85 1112 CURVE SMOOTH",
"85 906 OFFCURVE",
"205 786 OFFCURVE",
"452 722 CURVE SMOOTH",
"514 706 LINE SMOOTH",
"754 643 OFFCURVE",
"853 561 OFFCURVE",
"853 377 CURVE SMOOTH",
"853 160 OFFCURVE",
"714 48 OFFCURVE",
"442 48 CURVE SMOOTH",
"339 48 OFFCURVE",
"225 65 OFFCURVE",
"101 107 CURVE",
"101 39 LINE",
"212 0 OFFCURVE",
"335 -18 OFFCURVE",
"438 -18 CURVE SMOOTH"
);
}
);
width = 1010;
},
{
anchors = (
{
name = bottom;
position = "{620, 0}";
},
{
name = top;
position = "{620, 1520}";
}
);
color = -1;
layerId = "8B6491DC-016F-4A51-999B-1E64B7342710";
paths = (
{
closed = 1;
nodes = (
"932 -20 OFFCURVE",
"1172 166 OFFCURVE",
"1172 461 CURVE SMOOTH",
"1172 697 OFFCURVE",
"1035 836 OFFCURVE",
"739 908 CURVE SMOOTH",
"607 942 LINE SMOOTH",
"496 972 OFFCURVE",
"472 997 OFFCURVE",
"472 1045 CURVE SMOOTH",
"472 1105 OFFCURVE",
"527 1155 OFFCURVE",
"745 1155 CURVE SMOOTH",
"867 1155 OFFCURVE",
"998 1137 OFFCURVE",
"1088 1110 CURVE",
"1088 1457 LINE",
"993 1482 OFFCURVE",
"864 1500 OFFCURVE",
"717 1500 CURVE SMOOTH",
"264 1500 OFFCURVE",
"42 1323 OFFCURVE",
"42 1022 CURVE SMOOTH",
"42 786 OFFCURVE",
"181 646 OFFCURVE",
"447 581 CURVE SMOOTH",
"579 547 LINE SMOOTH",
"713 512 OFFCURVE",
"742 484 OFFCURVE",
"742 431 CURVE SMOOTH",
"742 368 OFFCURVE",
"694 325 OFFCURVE",
"528 325 CURVE SMOOTH",
"389 325 OFFCURVE",
"211 352 OFFCURVE",
"86 393 CURVE",
"86 46 LINE",
"211 5 OFFCURVE",
"370 -20 OFFCURVE",
"531 -20 CURVE SMOOTH"
);
}
);
width = 1214;
}
);
leftKerningGroup = S;
rightKerningGroup = S;
unicode = 0053;
userData = {
com.typemytype.robofont.layerData = {
};
};
},
{
glyphname = Germandbls;
layers = (
{
color = -1;
layerId = "2E34DD21-04BD-4163-9BA5-2EB18B4FEFA3";
paths = (
{
closed = 1;
nodes = (
"1022 1454 OFFCURVE",
"881 1498 OFFCURVE",
"712 1498 CURVE SMOOTH",
"359.5 1498 OFFCURVE",
"190 1313.5 OFFCURVE",
"190 990 CURVE SMOOTH",
"190 0 LINE",
"258 0 LINE",
"258 995 LINE SMOOTH",
"258 1267.5 OFFCURVE",
"394.5 1433.5 OFFCURVE",
"709 1433.5 CURVE SMOOTH",
"850 1433.5 OFFCURVE",
"978.5 1405.5 OFFCURVE",
"1074.5 1328 CURVE",
"1077 1362.5 LINE",
"598 748.5 LINE",
"598 708.5 LINE",
"675 720 OFFCURVE",
"736.5 723 OFFCURVE",
"813 723 CURVE SMOOTH",
"1049 723 OFFCURVE",
"1182.5 612 OFFCURVE",
"1182.5 399.5 CURVE SMOOTH",
"1182.5 176 OFFCURVE",
"1040.5 48 OFFCURVE",
"773.5 48 CURVE SMOOTH",
"680 48 OFFCURVE",
"581 65 OFFCURVE",
"457.5 107 CURVE",
"457.5 39 LINE",
"567.5 0 OFFCURVE",
"675 -18 OFFCURVE",
"773.5 -18 CURVE SMOOTH",
"1078.5 -18 OFFCURVE",
"1254.5 138.5 OFFCURVE",
"1254.5 401.5 CURVE SMOOTH",
"1254.5 670 OFFCURVE",
"1069.5 789 OFFCURVE",
"827 789 CURVE SMOOTH",
"769 789 OFFCURVE",
"733.5 788 OFFCURVE",
"688.5 781 CURVE",
"692 768 LINE",
"1132.5 1331.5 LINE",
"1132.5 1368.5 LINE"
);
}
);
width = 1339.5;
},
{
color = -1;
layerId = "8B6491DC-016F-4A51-999B-1E64B7342710";
paths = (
{
closed = 1;
nodes = (
"1310.5 1446.5 OFFCURVE",
"1128.5 1500 OFFCURVE",
"870 1500 CURVE SMOOTH",
"350.5 1500 OFFCURVE",
"109 1280 OFFCURVE",
"109 901 CURVE SMOOTH",
"109 0 LINE",
"543 0 LINE",
"543 954 LINE SMOOTH",
"543 1089 OFFCURVE",
"650 1174 OFFCURVE",
"884.5 1174 CURVE SMOOTH",
"1004.5 1174 OFFCURVE",
"1082 1161 OFFCURVE",
"1166.5 1137 CURVE",
"1186.5 1308.5 LINE",
"759.5 835.5 LINE",
"759.5 603 LINE",
"832.5 615 OFFCURVE",
"893.5 619.5 OFFCURVE",
"962 619.5 CURVE SMOOTH",
"1130.5 619.5 OFFCURVE",
"1193 554.5 OFFCURVE",
"1193 473 CURVE SMOOTH",
"1193 383.5 OFFCURVE",
"1131.5 325 OFFCURVE",
"1001 325 CURVE SMOOTH",
"905 325 OFFCURVE",
"774.5 350 OFFCURVE",
"680.5 388 CURVE",
"680.5 41 LINE",
"775.5 3.5 OFFCURVE",
"890.5 -20 OFFCURVE",
"1023 -20 CURVE SMOOTH",
"1399.5 -20 OFFCURVE",
"1600 170.5 OFFCURVE",
"1600 450.5 CURVE SMOOTH",
"1600 705.5 OFFCURVE",
"1416 863 OFFCURVE",
"1147 863 CURVE SMOOTH",
"1117 863 OFFCURVE",
"1085 860.5 OFFCURVE",
"1052.5 856.5 CURVE",
"1076.5 735 LINE",
"1468.5 1140.5 LINE",
"1468.5 1374 LINE"
);
}
);
width = 1642;
}
);
leftKerningGroup = H;
rightKerningGroup = S;
rightMetricsKey = S;
unicode = 1E9E;
},
{
glyphname = Schwa;
layers = (
{
anchors = (
{
name = bottom;
position = "{686, 0}";
},
{
name = top;
position = "{686, 1520}";
}
);
color = -1;
layerId = "2E34DD21-04BD-4163-9BA5-2EB18B4FEFA3";
paths = (
{
closed = 1;
nodes = (
"1023 -18 OFFCURVE",
"1252 189 OFFCURVE",
"1252 739 CURVE SMOOTH",
"1252 1288 OFFCURVE",
"993 1498 OFFCURVE",
"561 1498 CURVE SMOOTH",
"432 1498 OFFCURVE",
"309 1485 OFFCURVE",
"181 1451 CURVE",
"181 1383 LINE",
"307 1419 OFFCURVE",
"446 1432 OFFCURVE",
"559 1432 CURVE SMOOTH",
"961 1432 OFFCURVE",
"1180 1258 OFFCURVE",
"1180 737 CURVE SMOOTH",
"1180 224 OFFCURVE",
"980 49 OFFCURVE",
"684 49 CURVE SMOOTH",
"374 49 OFFCURVE",
"180 224 OFFCURVE",
"180 738 CURVE",
"150 714 LINE",
"1209 714 LINE",
"1209 780 LINE",
"108 780 LINE",
"108 730 LINE SMOOTH",
"108 191 OFFCURVE",
"334 -18 OFFCURVE",
"684 -18 CURVE SMOOTH"
);
}
);
width = 1370;
},
{
anchors = (
{
name = bottom;
position = "{752, 0}";
},
{
name = top;
position = "{752, 1480}";
}
);
color = -1;
layerId = "8B6491DC-016F-4A51-999B-1E64B7342710";
paths = (
{
closed = 1;
nodes = (
"1255 -20 OFFCURVE",
"1545 246 OFFCURVE",
"1545 720 CURVE SMOOTH",
"1545 1250 OFFCURVE",
"1239 1500 OFFCURVE",
"619 1500 CURVE SMOOTH",
"474 1500 OFFCURVE",
"307 1486 OFFCURVE",
"166 1458 CURVE",
"166 1113 LINE",
"293 1141 OFFCURVE",
"449 1157 OFFCURVE",
"582 1157 CURVE SMOOTH",
"944 1157 OFFCURVE",
"1119 1049 OFFCURVE",
"1119 712 CURVE SMOOTH",
"1119 404 OFFCURVE",
"1023 310 OFFCURVE",
"817 310 CURVE SMOOTH",
"591 310 OFFCURVE",
"501 416 OFFCURVE",
"501 712 CURVE",
"349 557 LINE",
"1251 557 LINE",
"1251 865 LINE",
"59 865 LINE",
"59 730 LINE SMOOTH",
"59 234 OFFCURVE",
"361 -20 OFFCURVE",
"813 -20 CURVE SMOOTH"
);
}
);
width = 1614;
}
);
leftKerningGroup = O;
rightKerningGroup = O;
unicode = 018F;
userData = {
com.typemytype.robofont.layerData = {
};
};
},
{
glyphname = T;
layers = (
{
anchors = (
{
name = bottom;
position = "{556, 0}";
},
{
name = center;
position = "{556, 800}";
},
{
name = top;
position = "{556, 1520}";
}
);
color = -1;
layerId = "2E34DD21-04BD-4163-9BA5-2EB18B4FEFA3";
paths = (
{
closed = 1;
nodes = (
"590 0 LINE",
"590 1414 LINE",
"1098 1414 LINE",
"1098 1480 LINE",
"14 1480 LINE",
"14 1414 LINE",
"522 1414 LINE",
"522 0 LINE"
);
}
);
width = 1112;
},
{
anchors = (
{
name = bottom;
position = "{680, 0}";
},
{
name = center;
position = "{680, 700}";
},
{
name = top;
position = "{680, 1520}";
}
);
color = -1;
layerId = "8B6491DC-016F-4A51-999B-1E64B7342710";
paths = (
{
closed = 1;
nodes = (
"897 0 LINE",
"897 1123 LINE",
"1346 1123 LINE",
"1346 1480 LINE",
"13 1480 LINE",
"13 1123 LINE",
"462 1123 LINE",
"462 0 LINE"
);
}
);
width = 1359;
}
);
leftKerningGroup = T;
rightKerningGroup = T;
unicode = 0054;
userData = {
com.typemytype.robofont.layerData = {
};
};
},
{
glyphname = U;
layers = (
{
anchors = (
{
name = bottom;
position = "{687, 0}";
},
{
name = ogonek;
position = "{822, 2}";
},
{
name = top;
position = "{687, 1520}";
},
{
name = topright;
position = "{1124, 1480}";
}
);
color = -1;
layerId = "2E34DD21-04BD-4163-9BA5-2EB18B4FEFA3";
paths = (
{
closed = 1;
nodes = (
"1034 -18 OFFCURVE",
"1190 150 OFFCURVE",
"1190 529 CURVE SMOOTH",
"1190 1480 LINE",
"1124 1480 LINE",
"1124 519 LINE SMOOTH",
"1124 194 OFFCURVE",
"992 48 OFFCURVE",
"687 48 CURVE SMOOTH",
"382 48 OFFCURVE",
"250 194 OFFCURVE",
"250 519 CURVE SMOOTH",
"250 1480 LINE",
"182 1480 LINE",
"182 529 LINE SMOOTH",
"182 150 OFFCURVE",
"340 -18 OFFCURVE",
"687 -18 CURVE SMOOTH"
);
}
);
width = 1372;
},
{
anchors = (
{
name = bottom;
position = "{778, 0}";
},
{
name = ogonek;
position = "{1033, 0}";
},
{
name = top;
position = "{778, 1520}";
},
{
name = topright;
position = "{1052, 1480}";
}
);
color = -1;
layerId = "8B6491DC-016F-4A51-999B-1E64B7342710";
paths = (
{
closed = 1;
nodes = (
"1239 -20 OFFCURVE",
"1444 202 OFFCURVE",
"1444 649 CURVE SMOOTH",
"1444 1480 LINE",
"1018 1480 LINE",
"1018 608 LINE SMOOTH",
"1018 410 OFFCURVE",
"934 332 OFFCURVE",
"778 332 CURVE SMOOTH",
"622 332 OFFCURVE",
"537 410 OFFCURVE",
"537 608 CURVE SMOOTH",
"537 1480 LINE",
"103 1480 LINE",
"103 649 LINE SMOOTH",
"103 202 OFFCURVE",
"310 -20 OFFCURVE",
"778 -20 CURVE SMOOTH"
);
}
);
width = 1547;
}
);
leftKerningGroup = U;
rightKerningGroup = U;
unicode = 0055;
userData = {
com.typemytype.robofont.layerData = {
};
};
},
{
glyphname = Uhorn;
layers = (
{
anchors = (
{
name = bottom;
position = "{687, 0}";
},
{
name = top;
position = "{687, 1520}";
}
);
color = -1;
layerId = "2E34DD21-04BD-4163-9BA5-2EB18B4FEFA3";
paths = (
{
closed = 1;
nodes = (
"1034 -18 OFFCURVE",
"1190 150 OFFCURVE",
"1190 529 CURVE SMOOTH",
"1190 1417 LINE",
"1332 1423 OFFCURVE",
"1422 1499 OFFCURVE",
"1422 1632 CURVE SMOOTH",
"1422 1692 OFFCURVE",
"1414 1730 OFFCURVE",
"1397 1776 CURVE",
"1331 1776 LINE",
"1346 1730 OFFCURVE",
"1356 1690 OFFCURVE",
"1356 1634 CURVE SMOOTH",
"1356 1525 OFFCURVE",
"1278 1480 OFFCURVE",
"1157 1480 CURVE SMOOTH",
"1124 1480 LINE",
"1124 519 LINE SMOOTH",
"1124 194 OFFCURVE",
"992 48 OFFCURVE",
"687 48 CURVE SMOOTH",
"382 48 OFFCURVE",
"250 194 OFFCURVE",
"250 519 CURVE SMOOTH",
"250 1480 LINE",
"182 1480 LINE",
"182 529 LINE SMOOTH",
"182 150 OFFCURVE",
"340 -18 OFFCURVE",
"687 -18 CURVE SMOOTH"
);
}
);
width = 1372;
},
{
anchors = (
{
name = bottom;
position = "{774, 0}";
},
{
name = top;
position = "{774, 1520}";
}
);
color = -1;
layerId = "8B6491DC-016F-4A51-999B-1E64B7342710";
paths = (
{
closed = 1;
nodes = (
"1239 -20 OFFCURVE",
"1444 202 OFFCURVE",
"1444 649 CURVE SMOOTH",
"1444 1322 LINE",
"1552 1365 OFFCURVE",
"1618 1461 OFFCURVE",
"1618 1618 CURVE SMOOTH",
"1618 1669 OFFCURVE",
"1615 1719 OFFCURVE",
"1599 1776 CURVE",
"1321 1776 LINE",
"1332 1717 OFFCURVE",
"1335 1675 OFFCURVE",
"1335 1636 CURVE SMOOTH",
"1335 1518 OFFCURVE",
"1274 1480 OFFCURVE",
"1153 1480 CURVE SMOOTH",
"1018 1480 LINE",
"1018 608 LINE SMOOTH",
"1018 410 OFFCURVE",
"934 332 OFFCURVE",
"778 332 CURVE SMOOTH",
"622 332 OFFCURVE",
"537 410 OFFCURVE",
"537 608 CURVE SMOOTH",
"537 1480 LINE",
"103 1480 LINE",
"103 649 LINE SMOOTH",
"103 202 OFFCURVE",
"310 -20 OFFCURVE",
"778 -20 CURVE SMOOTH"
);
}
);
width = 1552;
}
);
leftKerningGroup = U;
rightKerningGroup = U;
unicode = 01AF;
},
{
glyphname = Uogonek;
layers = (
{
color = -1;
layerId = "2E34DD21-04BD-4163-9BA5-2EB18B4FEFA3";
paths = (
{
closed = 1;
nodes = (
"835 -398 OFFCURVE",
"891 -385 OFFCURVE",
"947 -359 CURVE",
"947 -305 LINE",
"877 -334 OFFCURVE",
"829 -346 OFFCURVE",
"777 -346 CURVE SMOOTH",
"679 -346 OFFCURVE",
"627 -305 OFFCURVE",
"627 -224 CURVE SMOOTH",
"627 -137 OFFCURVE",
"689 -51 OFFCURVE",
"882 5 CURVE SMOOTH",
"1103 68 OFFCURVE",
"1190 245 OFFCURVE",
"1190 529 CURVE SMOOTH",
"1190 1480 LINE",
"1124 1480 LINE",
"1124 519 LINE SMOOTH",
"1124 194 OFFCURVE",
"992 48 OFFCURVE",
"687 48 CURVE SMOOTH",
"382 48 OFFCURVE",
"250 194 OFFCURVE",
"250 519 CURVE SMOOTH",
"250 1480 LINE",
"182 1480 LINE",
"182 529 LINE SMOOTH",
"182 150 OFFCURVE",
"340 -18 OFFCURVE",
"687 -18 CURVE SMOOTH",
"732 -18 LINE",
"725 -5 LINE",
"613 -62 OFFCURVE",
"571 -143 OFFCURVE",
"571 -225 CURVE SMOOTH",
"571 -337 OFFCURVE",
"644 -398 OFFCURVE",
"780 -398 CURVE SMOOTH"
);
}
);
width = 1372;
},
{
color = -1;
layerId = "8B6491DC-016F-4A51-999B-1E64B7342710";
paths = (
{
closed = 1;
nodes = (
"942 -460 OFFCURVE",
"1001 -448 OFFCURVE",
"1056 -430 CURVE",
"1056 -275 LINE",
"1004 -293 OFFCURVE",
"960 -300 OFFCURVE",
"925 -300 CURVE SMOOTH",
"827 -300 OFFCURVE",
"787 -264 OFFCURVE",
"787 -206 CURVE SMOOTH",
"787 -131 OFFCURVE",
"836 -58 OFFCURVE",
"1075 21 CURVE SMOOTH",
"1327 103 OFFCURVE",
"1444 312 OFFCURVE",
"1444 649 CURVE SMOOTH",
"1444 1480 LINE",
"1018 1480 LINE",
"1018 608 LINE SMOOTH",
"1018 410 OFFCURVE",
"934 332 OFFCURVE",
"778 332 CURVE SMOOTH",
"622 332 OFFCURVE",
"537 410 OFFCURVE",
"537 608 CURVE SMOOTH",
"537 1480 LINE",
"103 1480 LINE",
"103 649 LINE SMOOTH",
"103 202 OFFCURVE",
"310 -20 OFFCURVE",
"778 -20 CURVE SMOOTH",
"825 -20 LINE",
"862 65 LINE",
"629 -13 OFFCURVE",
"551 -114 OFFCURVE",
"551 -236 CURVE SMOOTH",
"551 -372 OFFCURVE",
"650 -460 OFFCURVE",
"863 -460 CURVE SMOOTH"
);
}
);
width = 1547;
}
);
leftKerningGroup = U;
rightKerningGroup = U;
unicode = 0172;
},
{
glyphname = V;
layers = (
{
color = -1;
layerId = "2E34DD21-04BD-4163-9BA5-2EB18B4FEFA3";
paths = (
{
closed = 1;
nodes = (
"670 0 LINE",
"1229 1480 LINE",
"1158 1480 LINE",
"617 40 LINE",
"633 40 LINE",
"92 1480 LINE",
"17 1480 LINE",
"576 0 LINE"
);
}
);
width = 1246;
},
{
color = -1;
layerId = "8B6491DC-016F-4A51-999B-1E64B7342710";
paths = (
{
closed = 1;
nodes = (
"1077 0 LINE",
"1516 1480 LINE",
"1095 1480 LINE",
"719 173 LINE",
"813 173 LINE",
"446 1480 LINE",
"-6 1480 LINE",
"433 0 LINE"
);
}
);
width = 1510;
}
);
leftKerningGroup = V;
rightKerningGroup = V;
unicode = 0056;
userData = {
com.typemytype.robofont.layerData = {
};
};
},
{
glyphname = W;
layers = (
{
anchors = (
{
name = bottom;
position = "{1012, 0}";
},
{
name = top;
position = "{1012, 1520}";
}
);
color = -1;
layerId = "2E34DD21-04BD-4163-9BA5-2EB18B4FEFA3";
paths = (
{
closed = 1;
nodes = (
"596 0 LINE",
"1019 1432 LINE",
"1002 1432 LINE",
"1425 0 LINE",
"1519 0 LINE",
"1951 1480 LINE",
"1882 1480 LINE",
"1465 40 LINE",
"1481 40 LINE",
"1058 1480 LINE",
"964 1480 LINE",
"542 40 LINE",
"558 40 LINE",
"142 1480 LINE",
"69 1480 LINE",
"502 0 LINE"
);
}
);
width = 2021;
},
{
anchors = (
{
name = bottom;
position = "{1194, 0}";
},
{
name = top;
position = "{1194, 1520}";
}
);
color = -1;
layerId = "8B6491DC-016F-4A51-999B-1E64B7342710";
paths = (
{
closed = 1;
nodes = (
"941 0 LINE",
"1261 1218 LINE",
"1146 1218 LINE",
"1447 0 LINE",
"2001 0 LINE",
"2374 1480 LINE",
"1965 1480 LINE",
"1655 187 LINE",
"1754 187 LINE",
"1443 1480 LINE",
"971 1480 LINE",
"641 187 LINE",
"751 187 LINE",
"451 1480 LINE",
"14 1480 LINE",
"387 0 LINE"
);
}
);
width = 2388;
}
);
leftKerningGroup = V;
rightKerningGroup = V;
unicode = 0057;
userData = {
com.typemytype.robofont.layerData = {
};
};
},
{
glyphname = X;
layers = (
{
color = -1;
layerId = "2E34DD21-04BD-4163-9BA5-2EB18B4FEFA3";
paths = (
{
closed = 1;
nodes = (
"1186 0 LINE",
"652 748 LINE",
"611 806 LINE",
"130 1480 LINE",
"45 1480 LINE",
"569 747 LINE",
"610 688 LINE",
"1100 0 LINE"
);
},
{
closed = 1;
nodes = (
"119 0 LINE",
"610 688 LINE",
"652 748 LINE",
"1176 1480 LINE",
"1093 1480 LINE",
"611 806 LINE",
"569 747 LINE",
"35 0 LINE"
);
}
);
width = 1222;
},
{
color = -1;
layerId = "8B6491DC-016F-4A51-999B-1E64B7342710";
paths = (
{
closed = 1;
nodes = (
"1497 0 LINE",
"972 780 LINE",
"721 1091 LINE",
"464 1480 LINE",
"-14 1480 LINE",
"465 775 LINE",
"716 467 LINE",
"1022 0 LINE"
);
},
{
closed = 1;
nodes = (
"410 0 LINE",
"716 467 LINE",
"972 780 LINE",
"1442 1480 LINE",
"977 1480 LINE",
"721 1091 LINE",
"465 775 LINE",
"-60 0 LINE"
);
}
);
width = 1441;
}
);
leftKerningGroup = X;
rightKerningGroup = X;
unicode = 0058;
userData = {
com.typemytype.robofont.layerData = {
};
};
},
{
glyphname = Y;
layers = (
{
anchors = (
{
name = bottom;
position = "{556, 0}";
},
{
name = top;
position = "{556, 1520}";
},
{
name = topleft;
position = "{14, 1480}";
}
);
color = -1;
layerId = "2E34DD21-04BD-4163-9BA5-2EB18B4FEFA3";
paths = (
{
closed = 1;
nodes = (
"590 0 LINE",
"590 707 LINE",
"572 652 LINE",
"1123 1480 LINE",
"1043 1480 LINE",
"540 720 LINE",
"574 720 LINE",
"64 1480 LINE",
"-19 1480 LINE",
"540 652 LINE",
"522 707 LINE",
"522 0 LINE"
);
}
);
width = 1112;
},
{
anchors = (
{
name = bottom;
position = "{679, 0}";
},
{
name = top;
position = "{680, 1520}";
},
{
name = topleft;
position = "{-17, 1480}";
}
);
color = -1;
layerId = "8B6491DC-016F-4A51-999B-1E64B7342710";
paths = (
{
closed = 1;
nodes = (
"899 0 LINE",
"899 773 LINE",
"813 463 LINE",
"1412 1480 LINE",
"990 1480 LINE",
"634 871 LINE",
"750 871 LINE",
"390 1480 LINE",
"-66 1480 LINE",
"551 463 LINE",
"465 779 LINE",
"465 0 LINE"
);
}
);
width = 1359;
}
);
leftKerningGroup = Y;
rightKerningGroup = Y;
unicode = 0059;
userData = {
com.typemytype.robofont.layerData = {
};
};
},
{
glyphname = Z;
layers = (
{
anchors = (
{
name = bottom;
position = "{552, 0}";
},
{
name = top;
position = "{552, 1520}";
}
);
color = -1;
layerId = "2E34DD21-04BD-4163-9BA5-2EB18B4FEFA3";
paths = (
{
closed = 1;
nodes = (
"1040 0 LINE",
"1040 64 LINE",
"127 64 LINE",
"141 39 LINE",
"1028 1440 LINE",
"1028 1480 LINE",
"75 1480 LINE",
"75 1416 LINE",
"964 1416 LINE",
"950 1441 LINE",
"63 40 LINE",
"63 0 LINE"
);
}
);
width = 1103;
},
{
anchors = (
{
name = bottom;
position = "{646, 0}";
},
{
name = top;
position = "{650, 1520}";
}
);
color = -1;
layerId = "8B6491DC-016F-4A51-999B-1E64B7342710";
paths = (
{
closed = 1;
nodes = (
"1239 0 LINE",
"1239 357 LINE",
"565 357 LINE",
"565 280 LINE",
"1229 1243 LINE",
"1229 1480 LINE",
"68 1480 LINE",
"68 1123 LINE",
"722 1123 LINE",
"722 1200 LINE",
"58 237 LINE",
"58 0 LINE"
);
}
);
width = 1297;
}
);
leftKerningGroup = Z;
rightKerningGroup = Z;
unicode = 005A;
userData = {
com.typemytype.robofont.layerData = {
};
};
},
{
color = 9;
glyphname = a;
layers = (
{
anchors = (
{
name = bottom;
position = "{499, 0}";
},
{
name = ogonek;
position = "{823, 0}";
},
{
name = top;
position = "{485, 1200}";
}
);
color = -1;
layerId = "2E34DD21-04BD-4163-9BA5-2EB18B4FEFA3";
paths = (
{
closed = 1;
nodes = (
"554 -16 OFFCURVE",
"675 38 OFFCURVE",
"749 128 CURVE",
"757 128 LINE",
"763 0 LINE",
"823 0 LINE",
"823 746 LINE SMOOTH",
"823 1012 OFFCURVE",
"689 1096 OFFCURVE",
"457 1096 CURVE SMOOTH",
"362 1096 OFFCURVE",
"249 1079 OFFCURVE",
"166 1047 CURVE",
"166 979 LINE",
"270 1016 OFFCURVE",
"375 1030 OFFCURVE",
"457 1030 CURVE SMOOTH",
"647 1030 OFFCURVE",
"755 972 OFFCURVE",
"755 746 CURVE SMOOTH",
"755 220 LINE",
"664 98 OFFCURVE",
"542 50 OFFCURVE",
"425 50 CURVE SMOOTH",
"263 50 OFFCURVE",
"182 127 OFFCURVE",
"182 273 CURVE SMOOTH",
"182 410 OFFCURVE",
"264 485 OFFCURVE",
"465 508 CURVE SMOOTH",
"797 547 LINE",
"794 613 LINE",
"467 574 LINE SMOOTH",
"217 545 OFFCURVE",
"108 447 OFFCURVE",
"108 267 CURVE SMOOTH",
"108 86 OFFCURVE",
"229 -16 OFFCURVE",
"422 -16 CURVE SMOOTH"
);
}
);
width = 979;
},
{
anchors = (
{
name = bottom;
position = "{585, 0}";
},
{
name = ogonek;
position = "{1085, 0}";
},
{
name = top;
position = "{585, 1200}";
}
);
color = -1;
layerId = "8B6491DC-016F-4A51-999B-1E64B7342710";
paths = (
{
closed = 1;
nodes = (
"529 -22 OFFCURVE",
"628 12 OFFCURVE",
"690 101 CURVE",
"708 101 LINE",
"737 0 LINE",
"1085 0 LINE",
"1085 610 LINE SMOOTH",
"1085 990 OFFCURVE",
"921 1118 OFFCURVE",
"524 1118 CURVE SMOOTH",
"408 1118 OFFCURVE",
"262 1103 OFFCURVE",
"144 1073 CURVE",
"144 760 LINE",
"240 787 OFFCURVE",
"357 801 OFFCURVE",
"443 801 CURVE SMOOTH",
"620 801 OFFCURVE",
"671 757 OFFCURVE",
"671 639 CURVE SMOOTH",
"671 292 LINE",
"637 272 OFFCURVE",
"597 266 OFFCURVE",
"563 266 CURVE SMOOTH",
"497 266 OFFCURVE",
"460 297 OFFCURVE",
"460 350 CURVE SMOOTH",
"460 407 OFFCURVE",
"497 442 OFFCURVE",
"586 447 CURVE SMOOTH",
"776 457 LINE",
"728 680 LINE",
"539 670 LINE SMOOTH",
"189 651 OFFCURVE",
"44 525 OFFCURVE",
"44 309 CURVE SMOOTH",
"44 116 OFFCURVE",
"179 -22 OFFCURVE",
"416 -22 CURVE SMOOTH"
);
}
);
width = 1176;
}
);
leftKerningGroup = a;
rightKerningGroup = n;
unicode = 0061;
userData = {
com.typemytype.robofont.layerData = {
};
};
},
{
glyphname = aogonek;
layers = (
{
anchors = (
{
name = bottom;
position = "{499, 0}";
},
{
name = ogonek;
position = "{823, 0}";
},
{
name = top;
position = "{485, 1200}";
}
);
color = -1;
components = (
{
alignment = -1;
name = ogonekcomb;
transform = "{1, 0, 0, 1, 323, 0}";
}
);
layerId = "2E34DD21-04BD-4163-9BA5-2EB18B4FEFA3";
paths = (
{
closed = 1;
nodes = (
"554 -16 OFFCURVE",
"675 38 OFFCURVE",
"749 128 CURVE",
"757 128 LINE",
"763 0 LINE",
"823 0 LINE",
"823 746 LINE SMOOTH",
"823 1012 OFFCURVE",
"689 1096 OFFCURVE",
"457 1096 CURVE SMOOTH",
"362 1096 OFFCURVE",
"249 1079 OFFCURVE",
"166 1047 CURVE",
"166 979 LINE",
"270 1016 OFFCURVE",
"375 1030 OFFCURVE",
"457 1030 CURVE SMOOTH",
"647 1030 OFFCURVE",
"755 972 OFFCURVE",
"755 746 CURVE SMOOTH",
"755 220 LINE",
"664 98 OFFCURVE",
"542 50 OFFCURVE",
"425 50 CURVE SMOOTH",
"263 50 OFFCURVE",
"182 127 OFFCURVE",
"182 273 CURVE SMOOTH",
"182 410 OFFCURVE",
"264 485 OFFCURVE",
"465 508 CURVE SMOOTH",
"797 547 LINE",
"794 613 LINE",
"467 574 LINE SMOOTH",
"217 545 OFFCURVE",
"108 447 OFFCURVE",
"108 267 CURVE SMOOTH",
"108 86 OFFCURVE",
"229 -16 OFFCURVE",
"422 -16 CURVE SMOOTH"
);
}
);
width = 979;
},
{
anchors = (
{
name = bottom;
position = "{585, 0}";
},
{
name = ogonek;
position = "{1085, 0}";
},
{
name = top;
position = "{585, 1200}";
}
);
color = -1;
components = (
{
alignment = -1;
name = ogonekcomb;
transform = "{1, 0, 0, 1, 569, 0}";
}
);
layerId = "8B6491DC-016F-4A51-999B-1E64B7342710";
paths = (
{
closed = 1;
nodes = (
"529 -22 OFFCURVE",
"628 12 OFFCURVE",
"690 101 CURVE",
"708 101 LINE",
"762 -20 LINE",
"1085 0 LINE",
"1085 610 LINE SMOOTH",
"1085 990 OFFCURVE",
"921 1118 OFFCURVE",
"524 1118 CURVE SMOOTH",
"408 1118 OFFCURVE",
"262 1103 OFFCURVE",
"144 1073 CURVE",
"144 760 LINE",
"240 787 OFFCURVE",
"357 801 OFFCURVE",
"443 801 CURVE SMOOTH",
"620 801 OFFCURVE",
"671 757 OFFCURVE",
"671 639 CURVE SMOOTH",
"671 292 LINE",
"637 272 OFFCURVE",
"597 266 OFFCURVE",
"563 266 CURVE SMOOTH",
"497 266 OFFCURVE",
"460 297 OFFCURVE",
"460 350 CURVE SMOOTH",
"460 407 OFFCURVE",
"497 442 OFFCURVE",
"586 447 CURVE SMOOTH",
"776 457 LINE",
"728 680 LINE",
"539 670 LINE SMOOTH",
"189 651 OFFCURVE",
"44 525 OFFCURVE",
"44 309 CURVE SMOOTH",
"44 116 OFFCURVE",
"179 -22 OFFCURVE",
"416 -22 CURVE SMOOTH"
);
}
);
width = 1176;
}
);
leftKerningGroup = a;
rightKerningGroup = n;
unicode = 0105;
},
{
color = 9;
glyphname = ae;
layers = (
{
anchors = (
{
name = bottom;
position = "{789, 0}";
},
{
name = top;
position = "{789, 1200}";
}
);
color = -1;
layerId = "2E34DD21-04BD-4163-9BA5-2EB18B4FEFA3";
paths = (
{
closed = 1;
nodes = (
"1296 -18 OFFCURVE",
"1382 -4 OFFCURVE",
"1478 29 CURVE",
"1478 97 LINE",
"1377 64 OFFCURVE",
"1293 48 OFFCURVE",
"1215 48 CURVE SMOOTH",
"966 48 OFFCURVE",
"823 178 OFFCURVE",
"823 535 CURVE SMOOTH",
"823 550 LINE SMOOTH",
"823 905 OFFCURVE",
"949 1031 OFFCURVE",
"1144 1031 CURVE SMOOTH",
"1339 1031 OFFCURVE",
"1457 907 OFFCURVE",
"1457 544 CURVE",
"1484 576 LINE",
"796 576 LINE",
"796 510 LINE",
"1528 510 LINE",
"1528 542 LINE SMOOTH",
"1528 936 OFFCURVE",
"1382 1097 OFFCURVE",
"1144 1097 CURVE SMOOTH",
"909 1097 OFFCURVE",
"761 938 OFFCURVE",
"761 551 CURVE",
"755 542 LINE",
"755 141 OFFCURVE",
"920 -18 OFFCURVE",
"1211 -18 CURVE SMOOTH"
);
},
{
closed = 1;
nodes = (
"565 -16 OFFCURVE",
"707 35 OFFCURVE",
"834 218 CURVE",
"795 280 LINE",
"696 106 OFFCURVE",
"555 50 OFFCURVE",
"427 50 CURVE SMOOTH",
"267 50 OFFCURVE",
"182 127 OFFCURVE",
"182 272 CURVE SMOOTH",
"182 409 OFFCURVE",
"262 510 OFFCURVE",
"495 510 CURVE SMOOTH",
"785 510 LINE",
"785 576 LINE",
"500 576 LINE SMOOTH",
"215 576 OFFCURVE",
"108 446 OFFCURVE",
"108 266 CURVE SMOOTH",
"108 85 OFFCURVE",
"234 -16 OFFCURVE",
"424 -16 CURVE SMOOTH"
);
},
{
closed = 1;
nodes = (
"817 522 LINE",
"817 749 LINE SMOOTH",
"817 1012 OFFCURVE",
"686 1096 OFFCURVE",
"457 1096 CURVE SMOOTH",
"362 1096 OFFCURVE",
"249 1079 OFFCURVE",
"166 1047 CURVE",
"166 979 LINE",
"270 1016 OFFCURVE",
"375 1030 OFFCURVE",
"457 1030 CURVE SMOOTH",
"647 1030 OFFCURVE",
"755 972 OFFCURVE",
"755 749 CURVE SMOOTH",
"755 542 LINE"
);
}
);
width = 1619;
},
{
anchors = (
{
name = bottom;
position = "{887, 0}";
},
{
name = top;
position = "{887, 1200}";
}
);
color = -1;
layerId = "8B6491DC-016F-4A51-999B-1E64B7342710";
paths = (
{
closed = 1;
nodes = (
"1423 -22 OFFCURVE",
"1531 -13 OFFCURVE",
"1656 11 CURVE",
"1656 322 LINE",
"1564 305 OFFCURVE",
"1463 293 OFFCURVE",
"1376 293 CURVE SMOOTH",
"1133 293 OFFCURVE",
"1085 338 OFFCURVE",
"1085 474 CURVE SMOOTH",
"1085 649 LINE SMOOTH",
"1085 808 OFFCURVE",
"1123 858 OFFCURVE",
"1208 858 CURVE SMOOTH",
"1292 858 OFFCURVE",
"1329 807 OFFCURVE",
"1329 648 CURVE",
"1390 665 LINE",
"1017 665 LINE",
"1017 431 LINE",
"1721 431 LINE",
"1721 537 LINE SMOOTH",
"1721 908 OFFCURVE",
"1541 1118 OFFCURVE",
"1233 1118 CURVE SMOOTH",
"922 1118 OFFCURVE",
"742 897 OFFCURVE",
"742 581 CURVE",
"675 551 LINE",
"675 153 OFFCURVE",
"863 -22 OFFCURVE",
"1316 -22 CURVE SMOOTH"
);
},
{
closed = 1;
nodes = (
"601 -22 OFFCURVE",
"738 24 OFFCURVE",
"844 149 CURVE",
"731 334 LINE",
"673 282 OFFCURVE",
"627 267 OFFCURVE",
"567 267 CURVE SMOOTH",
"497 267 OFFCURVE",
"460 296 OFFCURVE",
"460 347 CURVE SMOOTH",
"460 403 OFFCURVE",
"495 440 OFFCURVE",
"586 440 CURVE SMOOTH",
"746 440 LINE",
"746 665 LINE",
"540 665 LINE SMOOTH",
"192 665 OFFCURVE",
"44 525 OFFCURVE",
"44 313 CURVE SMOOTH",
"44 114 OFFCURVE",
"179 -22 OFFCURVE",
"456 -22 CURVE SMOOTH"
);
},
{
closed = 1;
nodes = (
"1019 551 LINE",
"1019 622 LINE SMOOTH",
"1019 972 OFFCURVE",
"871 1118 OFFCURVE",
"505 1118 CURVE SMOOTH",
"394 1118 OFFCURVE",
"272 1105 OFFCURVE",
"145 1073 CURVE",
"145 760 LINE",
"241 787 OFFCURVE",
"358 801 OFFCURVE",
"441 801 CURVE SMOOTH",
"615 801 OFFCURVE",
"675 758 OFFCURVE",
"675 636 CURVE SMOOTH",
"675 551 LINE"
);
}
);
width = 1764;
}
);
leftKerningGroup = a;
rightKerningGroup = e;
unicode = 00E6;
},
{
glyphname = b;
layers = (
{
anchors = (
{
name = bottom;
position = "{538, 0}";
},
{
name = top;
position = "{204, 1616}";
}
);
color = -1;
layerId = "2E34DD21-04BD-4163-9BA5-2EB18B4FEFA3";
paths = (
{
closed = 1;
nodes = (
"782 -18 OFFCURVE",
"963 163 OFFCURVE",
"963 560 CURVE SMOOTH",
"963 962 OFFCURVE",
"779 1096 OFFCURVE",
"554 1096 CURVE SMOOTH",
"418 1096 OFFCURVE",
"311 1039 OFFCURVE",
"244 965 CURVE",
"238 965 LINE",
"238 1616 LINE",
"170 1616 LINE",
"170 24 LINE",
"256 -3 OFFCURVE",
"357 -18 OFFCURVE",
"454 -18 CURVE SMOOTH"
);
},
{
closed = 1;
nodes = (
"375 48 OFFCURVE",
"294 61 OFFCURVE",
"238 78 CURVE",
"238 869 LINE",
"312 979 OFFCURVE",
"431 1030 OFFCURVE",
"550 1030 CURVE SMOOTH",
"742 1030 OFFCURVE",
"891 925 OFFCURVE",
"891 552 CURVE SMOOTH",
"891 196 OFFCURVE",
"740 48 OFFCURVE",
"458 48 CURVE SMOOTH"
);
}
);
width = 1071;
},
{
anchors = (
{
name = bottom;
position = "{654, 0}";
},
{
name = top;
position = "{310, 1616}";
}
);
color = -1;
layerId = "8B6491DC-016F-4A51-999B-1E64B7342710";
paths = (
{
closed = 1;
nodes = (
"1031 -22 OFFCURVE",
"1244 192 OFFCURVE",
"1244 573 CURVE SMOOTH",
"1244 944 OFFCURVE",
"1044 1118 OFFCURVE",
"813 1118 CURVE SMOOTH",
"695 1118 OFFCURVE",
"603 1076 OFFCURVE",
"541 997 CURVE",
"522 997 LINE",
"522 1616 LINE",
"97 1616 LINE",
"97 48 LINE",
"241 0 OFFCURVE",
"418 -21 OFFCURVE",
"577 -21 CURVE SMOOTH"
);
},
{
closed = 1;
nodes = (
"580 295 OFFCURVE",
"548 299 OFFCURVE",
"522 305 CURVE",
"522 749 LINE",
"557 766 OFFCURVE",
"601 774 OFFCURVE",
"642 774 CURVE SMOOTH",
"753 774 OFFCURVE",
"818 722 OFFCURVE",
"818 540 CURVE SMOOTH",
"818 360 OFFCURVE",
"751 295 OFFCURVE",
"614 295 CURVE SMOOTH"
);
}
);
width = 1297;
}
);
leftKerningGroup = l;
rightKerningGroup = o;
unicode = 0062;
userData = {
com.typemytype.robofont.layerData = {
};
};
},
{
glyphname = c;
layers = (
{
anchors = (
{
name = bottom;
position = "{497, 0}";
},
{
name = top;
position = "{500, 1200}";
}
);
color = -1;
layerId = "2E34DD21-04BD-4163-9BA5-2EB18B4FEFA3";
paths = (
{
closed = 1;
nodes = (
"621 -18 OFFCURVE",
"706 -3 OFFCURVE",
"793 29 CURVE",
"793 97 LINE",
"695 62 OFFCURVE",
"615 48 OFFCURVE",
"545 48 CURVE SMOOTH",
"307 48 OFFCURVE",
"180 177 OFFCURVE",
"180 544 CURVE SMOOTH",
"180 905 OFFCURVE",
"315 1030 OFFCURVE",
"585 1030 CURVE SMOOTH",
"650 1030 OFFCURVE",
"721 1020 OFFCURVE",
"793 999 CURVE",
"793 1067 LINE",
"727 1087 OFFCURVE",
"651 1096 OFFCURVE",
"583 1096 CURVE SMOOTH",
"275 1096 OFFCURVE",
"108 938 OFFCURVE",
"108 540 CURVE SMOOTH",
"108 141 OFFCURVE",
"264 -18 OFFCURVE",
"538 -18 CURVE SMOOTH"
);
}
);
width = 826;
},
{
anchors = (
{
name = bottom;
position = "{577, 0}";
},
{
name = top;
position = "{553, 1200}";
}
);
color = -1;
layerId = "8B6491DC-016F-4A51-999B-1E64B7342710";
paths = (
{
closed = 1;
nodes = (
"785 -22 OFFCURVE",
"888 -7 OFFCURVE",
"966 17 CURVE",
"966 347 LINE",
"876 326 OFFCURVE",
"815 316 OFFCURVE",
"747 316 CURVE SMOOTH",
"576 316 OFFCURVE",
"490 384 OFFCURVE",
"490 550 CURVE SMOOTH",
"490 707 OFFCURVE",
"571 780 OFFCURVE",
"769 780 CURVE SMOOTH",
"836 780 OFFCURVE",
"897 774 OFFCURVE",
"966 764 CURVE",
"966 1094 LINE",
"888 1110 OFFCURVE",
"804 1118 OFFCURVE",
"707 1118 CURVE SMOOTH",
"293 1118 OFFCURVE",
"53 929 OFFCURVE",
"53 547 CURVE SMOOTH",
"53 172 OFFCURVE",
"274 -22 OFFCURVE",
"679 -22 CURVE SMOOTH"
);
}
);
width = 1019;
}
);
leftKerningGroup = o;
rightKerningGroup = c;
unicode = 0063;
userData = {
com.typemytype.robofont.layerData = {
};
};
},
{
glyphname = d;
layers = (
{
anchors = (
{
name = bottom;
position = "{533, 0}";
},
{
name = caronalt;
position = "{1021, 1616}";
},
{
name = center;
position = "{533, 540}";
},
{
name = stroke;
position = "{901, 1356}";
},
{
name = top;
position = "{533, 1200}";
},
{
name = topright;
position = "{1020, 1080}";
}
);
color = -1;
layerId = "2E34DD21-04BD-4163-9BA5-2EB18B4FEFA3";
paths = (
{
closed = 1;
nodes = (
"653 -18 OFFCURVE",
"761 39 OFFCURVE",
"827 119 CURVE",
"835 119 LINE",
"841 0 LINE",
"901 0 LINE",
"901 1616 LINE",
"833 1616 LINE",
"833 1078 LINE",
"773 1088 OFFCURVE",
"698 1096 OFFCURVE",
"627 1096 CURVE SMOOTH",
"289 1096 OFFCURVE",
"108 915 OFFCURVE",
"108 518 CURVE SMOOTH",
"108 123 OFFCURVE",
"289 -18 OFFCURVE",
"523 -18 CURVE SMOOTH"
);
},
{
closed = 1;
nodes = (
"324 48 OFFCURVE",
"180 157 OFFCURVE",
"180 526 CURVE SMOOTH",
"180 882 OFFCURVE",
"331 1030 OFFCURVE",
"624 1030 CURVE SMOOTH",
"696 1030 OFFCURVE",
"777 1021 OFFCURVE",
"833 1007 CURVE",
"833 217 LINE",
"759 99 OFFCURVE",
"641 48 OFFCURVE",
"526 48 CURVE SMOOTH"
);
}
);
width = 1071;
},
{
anchors = (
{
name = bottom;
position = "{661, 0}";
},
{
name = caronalt;
position = "{1290, 1616}";
},
{
name = center;
position = "{645, 545}";
},
{
name = stroke;
position = "{1200, 1353}";
},
{
name = top;
position = "{633, 1200}";
},
{
name = topright;
position = "{1254, 1100}";
}
);
color = -1;
layerId = "8B6491DC-016F-4A51-999B-1E64B7342710";
paths = (
{
closed = 1;
nodes = (
"645 -20 OFFCURVE",
"740 32 OFFCURVE",
"801 113 CURVE",
"819 113 LINE",
"844 0 LINE",
"1200 0 LINE",
"1200 1616 LINE",
"775 1616 LINE",
"775 1115 LINE",
"747 1117 OFFCURVE",
"715 1119 OFFCURVE",
"682 1119 CURVE SMOOTH",
"269 1119 OFFCURVE",
"53 902 OFFCURVE",
"53 527 CURVE SMOOTH",
"53 144 OFFCURVE",
"269 -20 OFFCURVE",
"516 -20 CURVE SMOOTH"
);
},
{
closed = 1;
nodes = (
"545 323 OFFCURVE",
"479 375 OFFCURVE",
"479 559 CURVE SMOOTH",
"479 737 OFFCURVE",
"546 802 OFFCURVE",
"683 802 CURVE SMOOTH",
"714 802 OFFCURVE",
"749 798 OFFCURVE",
"775 794 CURVE",
"775 357 LINE",
"741 334 OFFCURVE",
"693 323 OFFCURVE",
"648 323 CURVE SMOOTH"
);
}
);
width = 1297;
}
);
leftKerningGroup = o;
rightKerningGroup = l;
unicode = 0064;
userData = {
com.typemytype.robofont.layerData = {
};
};
},
{
glyphname = eth;
layers = (
{
color = -1;
layerId = "2E34DD21-04BD-4163-9BA5-2EB18B4FEFA3";
paths = (
{
closed = 1;
nodes = (
"781 -18 OFFCURVE",
"948 158 OFFCURVE",
"948 570 CURVE SMOOTH",
"948 978 OFFCURVE",
"722 1410 OFFCURVE",
"439 1616 CURVE",
"344 1616 LINE",
"614 1413 OFFCURVE",
"748 1177 OFFCURVE",
"822 937 CURVE",
"865 894 LINE",
"783 1051 OFFCURVE",
"663 1096 OFFCURVE",
"529 1096 CURVE SMOOTH",
"277 1096 OFFCURVE",
"108 937 OFFCURVE",
"108 540 CURVE SMOOTH",
"108 139 OFFCURVE",
"277 -18 OFFCURVE",
"531 -18 CURVE SMOOTH"
);
},
{
closed = 1;
nodes = (
"317 48 OFFCURVE",
"180 172 OFFCURVE",
"180 543 CURVE SMOOTH",
"180 908 OFFCURVE",
"317 1030 OFFCURVE",
"529 1030 CURVE SMOOTH",
"741 1030 OFFCURVE",
"878 908 OFFCURVE",
"878 537 CURVE SMOOTH",
"878 187 OFFCURVE",
"739 48 OFFCURVE",
"531 48 CURVE SMOOTH"
);
},
{
closed = 1;
nodes = (
"927 1363 LINE",
"918 1421 LINE",
"205 1306 LINE",
"214 1248 LINE"
);
}
);
width = 1058;
},
{
color = -1;
layerId = "8B6491DC-016F-4A51-999B-1E64B7342710";
paths = (
{
closed = 1;
nodes = (
"1001 -24 OFFCURVE",
"1216 174 OFFCURVE",
"1216 621 CURVE SMOOTH",
"1216 988 OFFCURVE",
"992 1391 OFFCURVE",
"697 1616 CURVE",
"201 1616 LINE",
"457 1432 OFFCURVE",
"681 1185 OFFCURVE",
"754 934 CURVE",
"884 961 LINE",
"817 1062 OFFCURVE",
"704 1108 OFFCURVE",
"592 1108 CURVE SMOOTH",
"271 1108 OFFCURVE",
"53 923 OFFCURVE",
"53 546 CURVE SMOOTH",
"53 177 OFFCURVE",
"271 -24 OFFCURVE",
"633 -24 CURVE SMOOTH"
);
},
{
closed = 1;
nodes = (
"529 292 OFFCURVE",
"479 349 OFFCURVE",
"479 545 CURVE SMOOTH",
"479 742 OFFCURVE",
"531 801 OFFCURVE",
"633 801 CURVE SMOOTH",
"735 801 OFFCURVE",
"787 742 OFFCURVE",
"787 543 CURVE SMOOTH",
"787 349 OFFCURVE",
"737 292 OFFCURVE",
"633 292 CURVE SMOOTH"
);
},
{
closed = 1;
nodes = (
"1181 1341 LINE",
"1136 1564 LINE",
"130 1378 LINE",
"175 1155 LINE"
);
}
);
width = 1266;
}
);
leftKerningGroup = o;
rightKerningGroup = o;
unicode = 00F0;
userData = {
com.typemytype.robofont.layerData = {
};
};
},
{
color = 9;
glyphname = e;
layers = (
{
anchors = (
{
name = bottom;
position = "{508, 0}";
},
{
name = ogonek;
position = "{740, 0}";
},
{
name = top;
position = "{508, 1200}";
}
);
color = -1;
layerId = "2E34DD21-04BD-4163-9BA5-2EB18B4FEFA3";
paths = (
{
closed = 1;
nodes = (
"659 -18 OFFCURVE",
"745 -4 OFFCURVE",
"843 29 CURVE",
"843 97 LINE",
"740 64 OFFCURVE",
"656 48 OFFCURVE",
"576 48 CURVE SMOOTH",
"323 48 OFFCURVE",
"180 178 OFFCURVE",
"180 535 CURVE SMOOTH",
"180 550 LINE SMOOTH",
"180 905 OFFCURVE",
"309 1030 OFFCURVE",
"507 1030 CURVE SMOOTH",
"704 1030 OFFCURVE",
"822 904 OFFCURVE",
"822 550 CURVE",
"849 576 LINE",
"141 576 LINE",
"141 510 LINE",
"893 510 LINE",
"893 540 LINE SMOOTH",
"893 934 OFFCURVE",
"747 1096 OFFCURVE",
"507 1096 CURVE SMOOTH",
"269 1096 OFFCURVE",
"108 933 OFFCURVE",
"108 540 CURVE SMOOTH",
"108 141 OFFCURVE",
"277 -18 OFFCURVE",
"572 -18 CURVE SMOOTH"
);
}
);
width = 984;
},
{
anchors = (
{
name = bottom;
position = "{598, 0}";
},
{
name = ogonek;
position = "{1045, 0}";
},
{
name = top;
position = "{598, 1200}";
}
);
color = -1;
layerId = "8B6491DC-016F-4A51-999B-1E64B7342710";
paths = (
{
closed = 1;
nodes = (
"821 -22 OFFCURVE",
"929 -13 OFFCURVE",
"1054 11 CURVE",
"1054 322 LINE",
"962 305 OFFCURVE",
"861 293 OFFCURVE",
"774 293 CURVE SMOOTH",
"523 293 OFFCURVE",
"475 338 OFFCURVE",
"475 474 CURVE SMOOTH",
"475 649 LINE SMOOTH",
"475 808 OFFCURVE",
"513 858 OFFCURVE",
"602 858 CURVE SMOOTH",
"690 858 OFFCURVE",
"727 807 OFFCURVE",
"727 648 CURVE",
"788 665 LINE",
"297 665 LINE",
"297 431 LINE",
"1119 431 LINE",
"1119 537 LINE SMOOTH",
"1119 901 OFFCURVE",
"947 1118 OFFCURVE",
"607 1118 CURVE SMOOTH",
"246 1118 OFFCURVE",
"53 901 OFFCURVE",
"53 551 CURVE SMOOTH",
"53 153 OFFCURVE",
"249 -22 OFFCURVE",
"712 -22 CURVE SMOOTH"
);
}
);
width = 1162;
}
);
leftKerningGroup = o;
rightKerningGroup = e;
unicode = 0065;
userData = {
com.typemytype.robofont.layerData = {
};
};
},
{
glyphname = eogonek;
layers = (
{
color = -1;
layerId = "2E34DD21-04BD-4163-9BA5-2EB18B4FEFA3";
paths = (
{
closed = 1;
nodes = (
"742 -400 OFFCURVE",
"800 -385 OFFCURVE",
"843 -359 CURVE",
"843 -303 LINE",
"793 -333 OFFCURVE",
"742 -348 OFFCURVE",
"690 -348 CURVE SMOOTH",
"609 -348 OFFCURVE",
"560 -304 OFFCURVE",
"560 -227 CURVE SMOOTH",
"560 -144 OFFCURVE",
"612 -45 OFFCURVE",
"843 29 CURVE",
"843 97 LINE",
"740 64 OFFCURVE",
"656 48 OFFCURVE",
"576 48 CURVE SMOOTH",
"323 48 OFFCURVE",
"180 178 OFFCURVE",
"180 535 CURVE SMOOTH",
"180 550 LINE SMOOTH",
"180 905 OFFCURVE",
"309 1030 OFFCURVE",
"507 1030 CURVE SMOOTH",
"704 1030 OFFCURVE",
"822 904 OFFCURVE",
"822 550 CURVE",
"849 576 LINE",
"141 576 LINE",
"141 510 LINE",
"893 510 LINE",
"893 540 LINE SMOOTH",
"893 934 OFFCURVE",
"747 1096 OFFCURVE",
"507 1096 CURVE SMOOTH",
"269 1096 OFFCURVE",
"108 933 OFFCURVE",
"108 540 CURVE SMOOTH",
"108 141 OFFCURVE",
"277 -18 OFFCURVE",
"572 -18 CURVE SMOOTH",
"600 -18 OFFCURVE",
"630 -16 OFFCURVE",
"657 -12 CURVE",
"654 -1 LINE",
"557 -56 OFFCURVE",
"504 -138 OFFCURVE",
"504 -231 CURVE SMOOTH",
"504 -336 OFFCURVE",
"575 -400 OFFCURVE",
"693 -400 CURVE SMOOTH"
);
}
);
width = 984;
},
{
color = -1;
layerId = "8B6491DC-016F-4A51-999B-1E64B7342710";
paths = (
{
closed = 1;
nodes = (
"953 -460 OFFCURVE",
"1004 -447 OFFCURVE",
"1054 -430 CURVE",
"1054 -275 LINE",
"1008 -293 OFFCURVE",
"968 -300 OFFCURVE",
"936 -300 CURVE SMOOTH",
"857 -300 OFFCURVE",
"818 -264 OFFCURVE",
"818 -208 CURVE SMOOTH",
"818 -133 OFFCURVE",
"865 -58 OFFCURVE",
"1054 11 CURVE",
"1054 322 LINE",
"962 305 OFFCURVE",
"861 293 OFFCURVE",
"774 293 CURVE SMOOTH",
"523 293 OFFCURVE",
"475 338 OFFCURVE",
"475 474 CURVE SMOOTH",
"475 639 LINE SMOOTH",
"475 798 OFFCURVE",
"513 848 OFFCURVE",
"602 848 CURVE SMOOTH",
"690 848 OFFCURVE",
"727 797 OFFCURVE",
"727 638 CURVE",
"788 655 LINE",
"297 655 LINE",
"297 431 LINE",
"1119 431 LINE",
"1119 537 LINE SMOOTH",
"1119 901 OFFCURVE",
"947 1118 OFFCURVE",
"607 1118 CURVE SMOOTH",
"246 1118 OFFCURVE",
"53 901 OFFCURVE",
"53 551 CURVE SMOOTH",
"53 153 OFFCURVE",
"249 -22 OFFCURVE",
"712 -22 CURVE SMOOTH",
"764 -22 OFFCURVE",
"823 -20 OFFCURVE",
"882 -15 CURVE",
"869 60 LINE",
"649 -13 OFFCURVE",
"582 -115 OFFCURVE",
"582 -236 CURVE SMOOTH",
"582 -372 OFFCURVE",
"679 -460 OFFCURVE",
"874 -460 CURVE SMOOTH"
);
}
);
width = 1162;
}
);
leftKerningGroup = o;
rightKerningGroup = e;
unicode = 0119;
},
{
glyphname = f;
layers = (
{
color = -1;
layerId = "2E34DD21-04BD-4163-9BA5-2EB18B4FEFA3";
paths = (
{
closed = 1;
nodes = (
"303 0 LINE",
"303 1296 LINE SMOOTH",
"303 1496 OFFCURVE",
"392 1570 OFFCURVE",
"569 1570 CURVE SMOOTH",
"618 1570 OFFCURVE",
"665 1565 OFFCURVE",
"713 1556 CURVE",
"713 1624 LINE",
"668 1632 OFFCURVE",
"616 1636 OFFCURVE",
"573 1636 CURVE SMOOTH",
"348 1636 OFFCURVE",
"235 1524 OFFCURVE",
"235 1293 CURVE SMOOTH",
"235 0 LINE"
);
},
{
closed = 1;
nodes = (
"674 1016 LINE",
"674 1080 LINE",
"15 1080 LINE",
"15 1016 LINE"
);
}
);
width = 667;
},
{
color = -1;
layerId = "8B6491DC-016F-4A51-999B-1E64B7342710";
paths = (
{
closed = 1;
nodes = (
"611 0 LINE",
"611 1141 LINE SMOOTH",
"611 1249 OFFCURVE",
"669 1304 OFFCURVE",
"816 1304 CURVE SMOOTH",
"848 1304 OFFCURVE",
"877 1302 OFFCURVE",
"913 1298 CURVE",
"913 1624 LINE",
"858 1632 OFFCURVE",
"808 1636 OFFCURVE",
"745 1636 CURVE SMOOTH",
"386 1636 OFFCURVE",
"189 1439 OFFCURVE",
"189 1121 CURVE SMOOTH",
"189 0 LINE"
);
},
{
closed = 1;
nodes = (
"864 770 LINE",
"864 1100 LINE",
"29 1100 LINE",
"29 770 LINE"
);
}
);
width = 860;
}
);
leftKerningGroup = t;
rightKerningGroup = f;
unicode = 0066;
userData = {
com.typemytype.robofont.layerData = {
};
};
},
{
glyphname = g;
layers = (
{
anchors = (
{
name = bottom;
position = "{553, -440}";
},
{
name = top;
position = "{553, 1200}";
}
);
color = -1;
layerId = "2E34DD21-04BD-4163-9BA5-2EB18B4FEFA3";
paths = (
{
closed = 1;
nodes = (
"752 -460 OFFCURVE",
"901 -334 OFFCURVE",
"901 -7 CURVE SMOOTH",
"901 1054 LINE",
"817 1080 OFFCURVE",
"714 1096 OFFCURVE",
"617 1096 CURVE SMOOTH",
"289 1096 OFFCURVE",
"108 915 OFFCURVE",
"108 518 CURVE SMOOTH",
"108 116 OFFCURVE",
"292 -18 OFFCURVE",
"517 -18 CURVE SMOOTH",
"653 -18 OFFCURVE",
"760 39 OFFCURVE",
"827 113 CURVE",
"833 113 LINE",
"833 -12 LINE SMOOTH",
"833 -296 OFFCURVE",
"713 -394 OFFCURVE",
"467 -394 CURVE SMOOTH",
"375 -394 OFFCURVE",
"280 -378 OFFCURVE",
"173 -341 CURVE",
"173 -409 LINE",
"259 -442 OFFCURVE",
"376 -460 OFFCURVE",
"466 -460 CURVE SMOOTH"
);
},
{
closed = 1;
nodes = (
"329 48 OFFCURVE",
"180 153 OFFCURVE",
"180 526 CURVE SMOOTH",
"180 882 OFFCURVE",
"331 1030 OFFCURVE",
"613 1030 CURVE SMOOTH",
"696 1030 OFFCURVE",
"777 1018 OFFCURVE",
"833 1003 CURVE",
"833 209 LINE",
"759 99 OFFCURVE",
"638 48 OFFCURVE",
"521 48 CURVE SMOOTH"
);
}
);
width = 1071;
},
{
anchors = (
{
name = bottom;
position = "{648, -440}";
},
{
name = top;
position = "{676, 1200}";
}
);
color = -1;
layerId = "8B6491DC-016F-4A51-999B-1E64B7342710";
paths = (
{
closed = 1;
nodes = (
"985 -460 OFFCURVE",
"1200 -276 OFFCURVE",
"1200 150 CURVE SMOOTH",
"1200 1049 LINE",
"1065 1094 OFFCURVE",
"879 1118 OFFCURVE",
"721 1118 CURVE SMOOTH",
"266 1118 OFFCURVE",
"53 897 OFFCURVE",
"53 528 CURVE SMOOTH",
"53 173 OFFCURVE",
"260 -2 OFFCURVE",
"484 -2 CURVE SMOOTH",
"602 -2 OFFCURVE",
"694 40 OFFCURVE",
"756 119 CURVE",
"775 119 LINE",
"775 69 LINE SMOOTH",
"775 -76 OFFCURVE",
"695 -139 OFFCURVE",
"495 -139 CURVE SMOOTH",
"391 -139 OFFCURVE",
"263 -124 OFFCURVE",
"134 -92 CURVE",
"134 -418 LINE",
"267 -449 OFFCURVE",
"404 -460 OFFCURVE",
"531 -460 CURVE SMOOTH"
);
},
{
closed = 1;
nodes = (
"542 339 OFFCURVE",
"479 390 OFFCURVE",
"479 563 CURVE SMOOTH",
"479 737 OFFCURVE",
"552 802 OFFCURVE",
"683 802 CURVE SMOOTH",
"717 802 OFFCURVE",
"749 798 OFFCURVE",
"775 793 CURVE",
"775 364 LINE",
"740 347 OFFCURVE",
"696 339 OFFCURVE",
"655 339 CURVE SMOOTH"
);
}
);
width = 1297;
}
);
leftKerningGroup = o;
rightKerningGroup = u;
unicode = 0067;
userData = {
com.typemytype.robofont.layerData = {
};
};
},
{
glyphname = h;
layers = (
{
anchors = (
{
name = bottom;
position = "{551, 0}";
},
{
name = center;
position = "{551, 540}";
},
{
name = stroke;
position = "{170, 1356}";
},
{
name = top;
position = "{551, 1616}";
}
);
color = -1;
layerId = "2E34DD21-04BD-4163-9BA5-2EB18B4FEFA3";
paths = (
{
closed = 1;
nodes = (
"238 0 LINE",
"238 852 LINE",
"332 981 OFFCURVE",
"476 1028 OFFCURVE",
"594 1028 CURVE SMOOTH",
"755 1028 OFFCURVE",
"863 957 OFFCURVE",
"863 740 CURVE SMOOTH",
"863 0 LINE",
"931 0 LINE",
"931 739 LINE SMOOTH",
"931 1004 OFFCURVE",
"793 1096 OFFCURVE",
"597 1096 CURVE SMOOTH",
"464 1096 OFFCURVE",
"339 1049 OFFCURVE",
"244 953 CURVE",
"238 953 LINE",
"238 1616 LINE",
"170 1616 LINE",
"170 0 LINE"
);
}
);
width = 1087;
},
{
anchors = (
{
name = bottom;
position = "{644, 0}";
},
{
name = center;
position = "{644, 550}";
},
{
name = stroke;
position = "{97, 1350}";
},
{
name = top;
position = "{644, 1616}";
}
);
color = -1;
layerId = "8B6491DC-016F-4A51-999B-1E64B7342710";
paths = (
{
closed = 1;
nodes = (
"522 0 LINE",
"522 703 LINE",
"553 734 OFFCURVE",
"606 755 OFFCURVE",
"658 755 CURVE SMOOTH",
"725 755 OFFCURVE",
"764 725 OFFCURVE",
"764 627 CURVE SMOOTH",
"764 0 LINE",
"1189 0 LINE",
"1189 658 LINE SMOOTH",
"1189 989 OFFCURVE",
"1024 1118 OFFCURVE",
"822 1118 CURVE SMOOTH",
"700 1118 OFFCURVE",
"607 1074 OFFCURVE",
"541 997 CURVE",
"522 997 LINE",
"522 1616 LINE",
"97 1616 LINE",
"97 0 LINE"
);
}
);
width = 1280;
}
);
leftKerningGroup = l;
rightKerningGroup = n;
unicode = 0068;
userData = {
com.typemytype.robofont.layerData = {
};
};
},
{
glyphname = idotless;
layers = (
{
anchors = (
{
name = bottom;
position = "{204, 0}";
},
{
name = ogonek;
position = "{238, 0}";
},
{
name = top;
position = "{204, 1200}";
}
);
color = -1;
layerId = "2E34DD21-04BD-4163-9BA5-2EB18B4FEFA3";
paths = (
{
closed = 1;
nodes = (
"238 0 LINE",
"238 1080 LINE",
"170 1080 LINE",
"170 0 LINE"
);
}
);
width = 408;
},
{
anchors = (
{
name = bottom;
position = "{310, 0}";
},
{
name = ogonek;
position = "{523, 0}";
},
{
name = top;
position = "{310, 1200}";
}
);
color = -1;
layerId = "8B6491DC-016F-4A51-999B-1E64B7342710";
paths = (
{
closed = 1;
nodes = (
"523 0 LINE",
"523 1100 LINE",
"97 1100 LINE",
"97 0 LINE"
);
}
);
width = 620;
}
);
leftKerningGroup = n;
rightKerningGroup = u;
unicode = 0131;
userData = {
com.typemytype.robofont.layerData = {
};
};
},
{
glyphname = jdotless;
layers = (
{
anchors = (
{
name = top;
position = "{204, 1206}";
}
);
color = -1;
layerId = "2E34DD21-04BD-4163-9BA5-2EB18B4FEFA3";
paths = (
{
closed = 1;
nodes = (
"173 -262 OFFCURVE",
"238 -88 OFFCURVE",
"238 173 CURVE SMOOTH",
"238 1080 LINE",
"170 1080 LINE",
"170 166 LINE SMOOTH",
"170 -74 OFFCURVE",
"112 -242 OFFCURVE",
"-21 -425 CURVE",
"28 -460 LINE"
);
}
);
width = 408;
},
{
anchors = (
{
name = top;
position = "{305, 1200}";
}
);
color = -1;
layerId = "8B6491DC-016F-4A51-999B-1E64B7342710";
paths = (
{
closed = 1;
nodes = (
"448 -258 OFFCURVE",
"523 -54 OFFCURVE",
"523 196 CURVE SMOOTH",
"523 1100 LINE",
"97 1100 LINE",
"97 180 LINE SMOOTH",
"97 -26 OFFCURVE",
"64 -152 OFFCURVE",
"-45 -296 CURVE",
"227 -476 LINE"
);
}
);
width = 620;
}
);
leftKerningGroup = j;
rightKerningGroup = u;
unicode = 0237;
userData = {
com.typemytype.robofont.layerData = {
};
};
},
{
glyphname = k;
layers = (
{
anchors = (
{
name = bottom;
position = "{519, 0}";
},
{
name = top;
position = "{204, 1616}";
}
);
color = -1;
layerId = "2E34DD21-04BD-4163-9BA5-2EB18B4FEFA3";
paths = (
{
closed = 1;
nodes = (
"972 0 LINE",
"500 563 LINE",
"500 541 LINE",
"940 1080 LINE",
"856 1080 LINE",
"423 552 LINE",
"887 0 LINE"
);
},
{
closed = 1;
nodes = (
"466 520 LINE",
"466 584 LINE",
"222 584 LINE",
"222 520 LINE"
);
},
{
closed = 1;
nodes = (
"238 0 LINE",
"238 1616 LINE",
"170 1616 LINE",
"170 0 LINE"
);
}
);
width = 957;
},
{
anchors = (
{
name = bottom;
position = "{667, 0}";
},
{
name = top;
position = "{310, 1616}";
}
);
color = -1;
layerId = "8B6491DC-016F-4A51-999B-1E64B7342710";
paths = (
{
closed = 1;
nodes = (
"1314 0 LINE",
"929 630 LINE",
"929 520 LINE",
"1277 1100 LINE",
"829 1100 LINE",
"502 566 LINE",
"856 0 LINE"
);
},
{
closed = 1;
nodes = (
"644 398 LINE",
"644 734 LINE",
"490 734 LINE",
"490 398 LINE"
);
},
{
closed = 1;
nodes = (
"522 0 LINE",
"522 1616 LINE",
"97 1616 LINE",
"97 0 LINE"
);
}
);
width = 1273;
}
);
leftKerningGroup = l;
rightKerningGroup = k;
unicode = 006B;
userData = {
com.typemytype.robofont.layerData = {
};
};
},
{
glyphname = kgreenlandic;
layers = (
{
color = -1;
layerId = "2E34DD21-04BD-4163-9BA5-2EB18B4FEFA3";
paths = (
{
closed = 1;
nodes = (
"972 0 LINE",
"500 563 LINE",
"500 541 LINE",
"940 1080 LINE",
"856 1080 LINE",
"423 552 LINE",
"887 0 LINE"
);
},
{
closed = 1;
nodes = (
"238 0 LINE",
"238 1080 LINE",
"170 1080 LINE",
"170 0 LINE"
);
},
{
closed = 1;
nodes = (
"466 520 LINE",
"466 584 LINE",
"222 584 LINE",
"222 520 LINE"
);
}
);
width = 957;
},
{
color = -1;
layerId = "8B6491DC-016F-4A51-999B-1E64B7342710";
paths = (
{
closed = 1;
nodes = (
"1314 0 LINE",
"929 630 LINE",
"929 520 LINE",
"1277 1100 LINE",
"829 1100 LINE",
"502 566 LINE",
"856 0 LINE"
);
},
{
closed = 1;
nodes = (
"522 0 LINE",
"522 1100 LINE",
"97 1100 LINE",
"97 0 LINE"
);
},
{
closed = 1;
nodes = (
"644 398 LINE",
"644 734 LINE",
"490 734 LINE",
"490 398 LINE"
);
}
);
width = 1273;
}
);
rightKerningGroup = k;
unicode = 0138;
userData = {
com.typemytype.robofont.layerData = {
};
};
},
{
glyphname = l;
layers = (
{
anchors = (
{
name = bottom;
position = "{204, 0}";
},
{
name = caronalt;
position = "{358, 1616}";
},
{
name = periodcentered;
position = "{397, 794}";
},
{
name = slash;
position = "{204, 714}";
},
{
name = top;
position = "{204, 1616}";
}
);
color = -1;
layerId = "2E34DD21-04BD-4163-9BA5-2EB18B4FEFA3";
paths = (
{
closed = 1;
nodes = (
"238 0 LINE",
"238 1616 LINE",
"170 1616 LINE",
"170 0 LINE"
);
}
);
width = 408;
},
{
anchors = (
{
name = bottom;
position = "{309, 0}";
},
{
name = caronalt;
position = "{612, 1616}";
},
{
name = periodcentered;
position = "{802, 794}";
},
{
name = slash;
position = "{310, 714}";
},
{
name = top;
position = "{310, 1616}";
}
);
color = -1;
layerId = "8B6491DC-016F-4A51-999B-1E64B7342710";
paths = (
{
closed = 1;
nodes = (
"522 0 LINE",
"522 1616 LINE",
"97 1616 LINE",
"97 0 LINE"
);
}
);
width = 619;
}
);
leftKerningGroup = l;
rightKerningGroup = l;
unicode = 006C;
userData = {
com.typemytype.robofont.layerData = {
};
};
},
{
glyphname = ldot;
layers = (
{
color = -1;
layerId = "2E34DD21-04BD-4163-9BA5-2EB18B4FEFA3";
paths = (
{
closed = 1;
nodes = (
"238 0 LINE",
"238 1616 LINE",
"170 1616 LINE",
"170 0 LINE"
);
},
{
closed = 1;
nodes = (
"433 730 OFFCURVE",
"459 754 OFFCURVE",
"459 792 CURVE SMOOTH",
"459 830 OFFCURVE",
"433 856 OFFCURVE",
"397 856 CURVE SMOOTH",
"361 856 OFFCURVE",
"335 830 OFFCURVE",
"335 792 CURVE SMOOTH",
"335 754 OFFCURVE",
"361 730 OFFCURVE",
"397 730 CURVE SMOOTH"
);
}
);
width = 408;
},
{
color = -1;
layerId = "8B6491DC-016F-4A51-999B-1E64B7342710";
paths = (
{
closed = 1;
nodes = (
"522 0 LINE",
"522 1616 LINE",
"97 1616 LINE",
"97 0 LINE"
);
},
{
closed = 1;
nodes = (
"1012 584 OFFCURVE",
"1090 660 OFFCURVE",
"1090 794 CURVE SMOOTH",
"1090 928 OFFCURVE",
"1012 1004 OFFCURVE",
"836 1004 CURVE SMOOTH",
"660 1004 OFFCURVE",
"582 928 OFFCURVE",
"582 794 CURVE SMOOTH",
"582 660 OFFCURVE",
"660 584 OFFCURVE",
"836 584 CURVE SMOOTH"
);
}
);
width = 1055;
}
);
leftKerningGroup = l;
unicode = 0140;
},
{
glyphname = m;
layers = (
{
anchors = (
{
name = bottom;
position = "{826, 0}";
},
{
name = top;
position = "{826, 1200}";
}
);
color = -1;
layerId = "2E34DD21-04BD-4163-9BA5-2EB18B4FEFA3";
paths = (
{
closed = 1;
nodes = (
"238 0 LINE",
"238 847 LINE",
"323 981 OFFCURVE",
"452 1030 OFFCURVE",
"555 1030 CURVE SMOOTH",
"695 1030 OFFCURVE",
"792 957 OFFCURVE",
"792 738 CURVE SMOOTH",
"792 0 LINE",
"860 0 LINE",
"860 739 LINE SMOOTH",
"860 1004 OFFCURVE",
"735 1096 OFFCURVE",
"562 1096 CURVE SMOOTH",
"444 1096 OFFCURVE",
"330 1048 OFFCURVE",
"244 950 CURVE",
"236 950 LINE",
"230 1080 LINE",
"170 1080 LINE",
"170 0 LINE"
);
},
{
closed = 1;
nodes = (
"1476 0 LINE",
"1476 739 LINE SMOOTH",
"1476 1004 OFFCURVE",
"1346 1096 OFFCURVE",
"1170 1096 CURVE SMOOTH",
"1054 1096 OFFCURVE",
"914 1049 OFFCURVE",
"805 901 CURVE",
"831 817 LINE",
"917 981 OFFCURVE",
"1063 1030 OFFCURVE",
"1166 1030 CURVE SMOOTH",
"1307 1030 OFFCURVE",
"1408 957 OFFCURVE",
"1408 738 CURVE SMOOTH",
"1408 0 LINE"
);
}
);
width = 1632;
},
{
anchors = (
{
name = bottom;
position = "{947, 0}";
},
{
name = top;
position = "{947, 1200}";
}
);
color = -1;
layerId = "8B6491DC-016F-4A51-999B-1E64B7342710";
paths = (
{
closed = 1;
nodes = (
"522 0 LINE",
"522 703 LINE",
"548 734 OFFCURVE",
"594 755 OFFCURVE",
"644 755 CURVE SMOOTH",
"704 755 OFFCURVE",
"738 726 OFFCURVE",
"738 632 CURVE SMOOTH",
"738 0 LINE",
"1154 0 LINE",
"1154 671 LINE SMOOTH",
"1154 991 OFFCURVE",
"998 1118 OFFCURVE",
"794 1118 CURVE SMOOTH",
"665 1118 OFFCURVE",
"565 1075 OFFCURVE",
"492 996 CURVE",
"474 996 LINE",
"446 1100 LINE",
"97 1100 LINE",
"97 0 LINE"
);
},
{
closed = 1;
nodes = (
"1786 0 LINE",
"1786 656 LINE SMOOTH",
"1786 989 OFFCURVE",
"1623 1118 OFFCURVE",
"1399 1118 CURVE SMOOTH",
"1272 1118 OFFCURVE",
"1148 1069 OFFCURVE",
"1055 962 CURVE",
"1135 703 LINE",
"1163 734 OFFCURVE",
"1206 755 OFFCURVE",
"1262 755 CURVE SMOOTH",
"1321 755 OFFCURVE",
"1362 726 OFFCURVE",
"1362 632 CURVE SMOOTH",
"1362 0 LINE"
);
}
);
width = 1877;
}
);
leftKerningGroup = n;
rightKerningGroup = n;
unicode = 006D;
userData = {
com.typemytype.robofont.layerData = {
};
};
},
{
glyphname = n;
layers = (
{
anchors = (
{
name = apostrophe;
position = "{13, 1200}";
},
{
name = bottom;
position = "{551, 0}";
},
{
name = top;
position = "{551, 1200}";
}
);
color = -1;
layerId = "2E34DD21-04BD-4163-9BA5-2EB18B4FEFA3";
paths = (
{
closed = 1;
nodes = (
"238 0 LINE",
"238 853 LINE",
"334 985 OFFCURVE",
"482 1030 OFFCURVE",
"594 1030 CURVE SMOOTH",
"758 1030 OFFCURVE",
"863 955 OFFCURVE",
"863 738 CURVE SMOOTH",
"863 0 LINE",
"931 0 LINE",
"931 738 LINE SMOOTH",
"931 1003 OFFCURVE",
"793 1096 OFFCURVE",
"596 1096 CURVE SMOOTH",
"462 1096 OFFCURVE",
"337 1044 OFFCURVE",
"244 951 CURVE",
"236 951 LINE",
"230 1080 LINE",
"170 1080 LINE",
"170 0 LINE"
);
}
);
width = 1087;
},
{
anchors = (
{
name = apostrophe;
position = "{11, 1200}";
},
{
name = bottom;
position = "{644, 0}";
},
{
name = top;
position = "{644, 1200}";
}
);
color = -1;
layerId = "8B6491DC-016F-4A51-999B-1E64B7342710";
paths = (
{
closed = 1;
nodes = (
"522 0 LINE",
"522 703 LINE",
"553 734 OFFCURVE",
"604 755 OFFCURVE",
"658 755 CURVE SMOOTH",
"725 755 OFFCURVE",
"764 726 OFFCURVE",
"764 630 CURVE SMOOTH",
"764 0 LINE",
"1189 0 LINE",
"1189 658 LINE SMOOTH",
"1189 988 OFFCURVE",
"1024 1118 OFFCURVE",
"800 1118 CURVE SMOOTH",
"674 1118 OFFCURVE",
"567 1075 OFFCURVE",
"492 996 CURVE",
"474 996 LINE",
"446 1100 LINE",
"97 1100 LINE",
"97 0 LINE"
);
}
);
width = 1280;
}
);
leftKerningGroup = n;
rightKerningGroup = n;
unicode = 006E;
userData = {
com.typemytype.robofont.layerData = {
};
};
},
{
glyphname = eng;
layers = (
{
color = -1;
layerId = "2E34DD21-04BD-4163-9BA5-2EB18B4FEFA3";
paths = (
{
closed = 1;
nodes = (
"866 -262 OFFCURVE",
"931 -98 OFFCURVE",
"931 133 CURVE SMOOTH",
"931 739 LINE SMOOTH",
"931 1004 OFFCURVE",
"793 1096 OFFCURVE",
"597 1096 CURVE SMOOTH",
"464 1096 OFFCURVE",
"339 1049 OFFCURVE",
"244 951 CURVE",
"236 951 LINE",
"230 1080 LINE",
"170 1080 LINE",
"170 0 LINE",
"238 0 LINE",
"238 852 LINE",
"332 981 OFFCURVE",
"476 1030 OFFCURVE",
"594 1030 CURVE SMOOTH",
"755 1030 OFFCURVE",
"863 957 OFFCURVE",
"863 740 CURVE SMOOTH",
"863 166 LINE SMOOTH",
"863 -74 OFFCURVE",
"805 -242 OFFCURVE",
"672 -425 CURVE",
"721 -460 LINE"
);
}
);
width = 1087;
},
{
color = -1;
layerId = "8B6491DC-016F-4A51-999B-1E64B7342710";
paths = (
{
closed = 1;
nodes = (
"1115 -258 OFFCURVE",
"1189 -54 OFFCURVE",
"1189 196 CURVE SMOOTH",
"1189 658 LINE SMOOTH",
"1189 989 OFFCURVE",
"1024 1118 OFFCURVE",
"800 1118 CURVE SMOOTH",
"674 1118 OFFCURVE",
"569 1075 OFFCURVE",
"492 996 CURVE",
"474 996 LINE",
"446 1100 LINE",
"97 1100 LINE",
"97 0 LINE",
"522 0 LINE",
"522 708 LINE",
"553 739 OFFCURVE",
"606 760 OFFCURVE",
"658 760 CURVE SMOOTH",
"725 760 OFFCURVE",
"764 730 OFFCURVE",
"764 632 CURVE SMOOTH",
"764 180 LINE SMOOTH",
"764 -26 OFFCURVE",
"731 -152 OFFCURVE",
"622 -296 CURVE",
"894 -476 LINE"
);
}
);
width = 1280;
}
);
leftKerningGroup = n;
rightKerningGroup = n;
unicode = 014B;
},
{
glyphname = o;
layers = (
{
anchors = (
{
name = bottom;
position = "{529, 0}";
},
{
name = center;
position = "{529, 540}";
},
{
name = ogonek;
position = "{663, 0}";
},
{
name = top;
position = "{529, 1200}";
},
{
name = topright;
position = "{655, 1080}";
}
);
color = -1;
layerId = "2E34DD21-04BD-4163-9BA5-2EB18B4FEFA3";
paths = (
{
closed = 1;
nodes = (
"781 -18 OFFCURVE",
"950 143 OFFCURVE",
"950 540 CURVE SMOOTH",
"950 941 OFFCURVE",
"781 1096 OFFCURVE",
"529 1096 CURVE SMOOTH",
"277 1096 OFFCURVE",
"108 937 OFFCURVE",
"108 540 CURVE SMOOTH",
"108 139 OFFCURVE",
"277 -18 OFFCURVE",
"529 -18 CURVE SMOOTH"
);
},
{
closed = 1;
nodes = (
"317 48 OFFCURVE",
"180 172 OFFCURVE",
"180 543 CURVE SMOOTH",
"180 908 OFFCURVE",
"317 1030 OFFCURVE",
"529 1030 CURVE SMOOTH",
"741 1030 OFFCURVE",
"878 908 OFFCURVE",
"878 537 CURVE SMOOTH",
"878 172 OFFCURVE",
"741 48 OFFCURVE",
"529 48 CURVE SMOOTH"
);
}
);
width = 1058;
},
{
anchors = (
{
name = bottom;
position = "{633, 0}";
},
{
name = center;
position = "{633, 550}";
},
{
name = ogonek;
position = "{824, 0}";
},
{
name = top;
position = "{633, 1200}";
},
{
name = topright;
position = "{634, 1100}";
}
);
color = -1;
layerId = "8B6491DC-016F-4A51-999B-1E64B7342710";
paths = (
{
closed = 1;
nodes = (
"992 -22 OFFCURVE",
"1213 176 OFFCURVE",
"1213 548 CURVE SMOOTH",
"1213 916 OFFCURVE",
"1003 1118 OFFCURVE",
"633 1118 CURVE SMOOTH",
"263 1118 OFFCURVE",
"53 921 OFFCURVE",
"53 546 CURVE SMOOTH",
"53 176 OFFCURVE",
"274 -22 OFFCURVE",
"633 -22 CURVE SMOOTH"
);
},
{
closed = 1;
nodes = (
"531 294 OFFCURVE",
"479 349 OFFCURVE",
"479 548 CURVE SMOOTH",
"479 747 OFFCURVE",
"533 802 OFFCURVE",
"633 802 CURVE SMOOTH",
"733 802 OFFCURVE",
"787 747 OFFCURVE",
"787 546 CURVE SMOOTH",
"787 349 OFFCURVE",
"735 294 OFFCURVE",
"633 294 CURVE SMOOTH"
);
}
);
width = 1266;
}
);
leftKerningGroup = o;
rightKerningGroup = o;
unicode = 006F;
userData = {
com.typemytype.robofont.layerData = {
};
};
},
{
glyphname = ohorn;
layers = (
{
anchors = (
{
name = bottom;
position = "{526, 0}";
},
{
name = center;
position = "{529, 540}";
},
{
name = ogonek;
position = "{663, 0}";
},
{
name = top;
position = "{526, 1200}";
}
);
color = -1;
layerId = "2E34DD21-04BD-4163-9BA5-2EB18B4FEFA3";
paths = (
{
closed = 1;
nodes = (
"781 -18 OFFCURVE",
"950 143 OFFCURVE",
"950 540 CURVE SMOOTH",
"950 801 OFFCURVE",
"881 966 OFFCURVE",
"738 1048 CURVE",
"711 1020 LINE",
"870 1020 OFFCURVE",
"970 1104 OFFCURVE",
"970 1252 CURVE SMOOTH",
"970 1312 OFFCURVE",
"962 1350 OFFCURVE",
"945 1396 CURVE",
"879 1396 LINE",
"894 1350 OFFCURVE",
"904 1310 OFFCURVE",
"904 1254 CURVE SMOOTH",
"904 1138 OFFCURVE",
"826 1087 OFFCURVE",
"705 1087 CURVE SMOOTH",
"660 1087 OFFCURVE",
"599 1096 OFFCURVE",
"529 1096 CURVE SMOOTH",
"277 1096 OFFCURVE",
"108 937 OFFCURVE",
"108 540 CURVE SMOOTH",
"108 139 OFFCURVE",
"277 -18 OFFCURVE",
"529 -18 CURVE SMOOTH"
);
},
{
closed = 1;
nodes = (
"317 48 OFFCURVE",
"180 172 OFFCURVE",
"180 543 CURVE SMOOTH",
"180 908 OFFCURVE",
"317 1030 OFFCURVE",
"529 1030 CURVE SMOOTH",
"741 1030 OFFCURVE",
"878 908 OFFCURVE",
"878 537 CURVE SMOOTH",
"878 172 OFFCURVE",
"741 48 OFFCURVE",
"529 48 CURVE SMOOTH"
);
}
);
width = 1058;
},
{
anchors = (
{
name = bottom;
position = "{633, 0}";
},
{
name = center;
position = "{633, 550}";
},
{
name = ogonek;
position = "{824, 0}";
},
{
name = top;
position = "{623, 1200}";
}
);
color = -1;
layerId = "8B6491DC-016F-4A51-999B-1E64B7342710";
paths = (
{
closed = 1;
nodes = (
"992 -22 OFFCURVE",
"1213 176 OFFCURVE",
"1213 548 CURVE SMOOTH",
"1213 771 OFFCURVE",
"1135 934 OFFCURVE",
"988 1025 CURVE",
"927 920 LINE",
"1131 920 OFFCURVE",
"1270 1016 OFFCURVE",
"1270 1240 CURVE SMOOTH",
"1270 1289 OFFCURVE",
"1267 1339 OFFCURVE",
"1252 1396 CURVE",
"992 1396 LINE",
"1003 1337 OFFCURVE",
"1006 1295 OFFCURVE",
"1006 1258 CURVE SMOOTH",
"1006 1145 OFFCURVE",
"945 1107 OFFCURVE",
"834 1107 CURVE SMOOTH",
"789 1107 OFFCURVE",
"727 1118 OFFCURVE",
"643 1118 CURVE SMOOTH",
"263 1118 OFFCURVE",
"53 921 OFFCURVE",
"53 546 CURVE SMOOTH",
"53 176 OFFCURVE",
"274 -22 OFFCURVE",
"633 -22 CURVE SMOOTH"
);
},
{
closed = 1;
nodes = (
"531 294 OFFCURVE",
"479 349 OFFCURVE",
"479 548 CURVE SMOOTH",
"479 747 OFFCURVE",
"533 802 OFFCURVE",
"633 802 CURVE SMOOTH",
"733 802 OFFCURVE",
"787 747 OFFCURVE",
"787 546 CURVE SMOOTH",
"787 349 OFFCURVE",
"735 294 OFFCURVE",
"633 294 CURVE SMOOTH"
);
}
);
width = 1266;
}
);
leftKerningGroup = o;
rightKerningGroup = ohorn;
unicode = 01A1;
},
{
glyphname = ohorntilde;
layers = (
{
color = -1;
layerId = "2E34DD21-04BD-4163-9BA5-2EB18B4FEFA3";
paths = (
{
closed = 1;
nodes = (
"781 -18 OFFCURVE",
"950 143 OFFCURVE",
"950 540 CURVE SMOOTH",
"950 801 OFFCURVE",
"881 966 OFFCURVE",
"738 1048 CURVE",
"711 1020 LINE",
"870 1020 OFFCURVE",
"970 1104 OFFCURVE",
"970 1252 CURVE SMOOTH",
"970 1312 OFFCURVE",
"962 1350 OFFCURVE",
"945 1396 CURVE",
"879 1396 LINE",
"894 1350 OFFCURVE",
"904 1310 OFFCURVE",
"904 1254 CURVE SMOOTH",
"904 1138 OFFCURVE",
"826 1087 OFFCURVE",
"705 1087 CURVE SMOOTH",
"660 1087 OFFCURVE",
"599 1096 OFFCURVE",
"529 1096 CURVE SMOOTH",
"277 1096 OFFCURVE",
"108 937 OFFCURVE",
"108 540 CURVE SMOOTH",
"108 139 OFFCURVE",
"277 -18 OFFCURVE",
"529 -18 CURVE SMOOTH"
);
},
{
closed = 1;
nodes = (
"317 48 OFFCURVE",
"180 172 OFFCURVE",
"180 543 CURVE SMOOTH",
"180 908 OFFCURVE",
"317 1030 OFFCURVE",
"529 1030 CURVE SMOOTH",
"741 1030 OFFCURVE",
"878 908 OFFCURVE",
"878 537 CURVE SMOOTH",
"878 172 OFFCURVE",
"741 48 OFFCURVE",
"529 48 CURVE SMOOTH"
);
},
{
closed = 1;
nodes = (
"723 1380 OFFCURVE",
"774 1402 OFFCURVE",
"809 1441 CURVE",
"809 1508 LINE",
"766 1460 OFFCURVE",
"720 1437 OFFCURVE",
"660 1437 CURVE SMOOTH",
"578 1437 OFFCURVE",
"494 1513 OFFCURVE",
"392 1513 CURVE SMOOTH",
"329 1513 OFFCURVE",
"278 1491 OFFCURVE",
"243 1452 CURVE",
"243 1385 LINE",
"286 1433 OFFCURVE",
"332 1456 OFFCURVE",
"392 1456 CURVE SMOOTH",
"474 1456 OFFCURVE",
"558 1380 OFFCURVE",
"660 1380 CURVE SMOOTH"
);
}
);
width = 1058;
},
{
color = -1;
layerId = "8B6491DC-016F-4A51-999B-1E64B7342710";
paths = (
{
closed = 1;
nodes = (
"992 -22 OFFCURVE",
"1213 176 OFFCURVE",
"1213 548 CURVE SMOOTH",
"1213 771 OFFCURVE",
"1135 934 OFFCURVE",
"988 1025 CURVE",
"927 920 LINE",
"1131 920 OFFCURVE",
"1270 1016 OFFCURVE",
"1270 1240 CURVE SMOOTH",
"1270 1289 OFFCURVE",
"1267 1339 OFFCURVE",
"1252 1396 CURVE",
"992 1396 LINE",
"1003 1337 OFFCURVE",
"1006 1295 OFFCURVE",
"1006 1258 CURVE SMOOTH",
"1006 1145 OFFCURVE",
"945 1107 OFFCURVE",
"834 1107 CURVE SMOOTH",
"789 1107 OFFCURVE",
"727 1118 OFFCURVE",
"643 1118 CURVE SMOOTH",
"263 1118 OFFCURVE",
"53 921 OFFCURVE",
"53 546 CURVE SMOOTH",
"53 176 OFFCURVE",
"274 -22 OFFCURVE",
"633 -22 CURVE SMOOTH"
);
},
{
closed = 1;
nodes = (
"531 294 OFFCURVE",
"479 349 OFFCURVE",
"479 548 CURVE SMOOTH",
"479 747 OFFCURVE",
"533 802 OFFCURVE",
"633 802 CURVE SMOOTH",
"733 802 OFFCURVE",
"787 747 OFFCURVE",
"787 546 CURVE SMOOTH",
"787 349 OFFCURVE",
"735 294 OFFCURVE",
"633 294 CURVE SMOOTH"
);
},
{
closed = 1;
nodes = (
"836 1245 OFFCURVE",
"900 1270 OFFCURVE",
"959 1329 CURVE",
"959 1585 LINE",
"892 1521 OFFCURVE",
"833 1494 OFFCURVE",
"764 1494 CURVE SMOOTH",
"654 1494 OFFCURVE",
"579 1593 OFFCURVE",
"449 1593 CURVE SMOOTH",
"370 1593 OFFCURVE",
"306 1568 OFFCURVE",
"247 1509 CURVE",
"247 1253 LINE",
"315 1317 OFFCURVE",
"373 1344 OFFCURVE",
"442 1344 CURVE SMOOTH",
"552 1344 OFFCURVE",
"627 1245 OFFCURVE",
"757 1245 CURVE SMOOTH"
);
}
);
width = 1266;
}
);
leftKerningGroup = o;
rightKerningGroup = ohorn;
unicode = 1EE1;
},
{
glyphname = oogonek;
layers = (
{
anchors = (
{
name = bottom;
position = "{529, 0}";
},
{
name = center;
position = "{529, 540}";
},
{
name = top;
position = "{529, 1200}";
},
{
name = topright;
position = "{655, 1080}";
}
);
color = -1;
layerId = "2E34DD21-04BD-4163-9BA5-2EB18B4FEFA3";
paths = (
{
closed = 1;
nodes = (
"626 -400 OFFCURVE",
"680 -387 OFFCURVE",
"726 -361 CURVE",
"707 -314 LINE",
"663 -337 OFFCURVE",
"620 -348 OFFCURVE",
"573 -348 CURVE SMOOTH",
"495 -348 OFFCURVE",
"443 -304 OFFCURVE",
"443 -224 CURVE SMOOTH",
"443 -144 OFFCURVE",
"501 -50 OFFCURVE",
"663 0 CURVE SMOOTH",
"841 54 OFFCURVE",
"950 218 OFFCURVE",
"950 540 CURVE SMOOTH",
"950 941 OFFCURVE",
"781 1096 OFFCURVE",
"529 1096 CURVE SMOOTH",
"277 1096 OFFCURVE",
"108 937 OFFCURVE",
"108 540 CURVE SMOOTH",
"108 139 OFFCURVE",
"277 -18 OFFCURVE",
"532 -18 CURVE",
"538 -2 LINE",
"438.5 -53.5 OFFCURVE",
"387 -137 OFFCURVE",
"387 -227 CURVE SMOOTH",
"387 -335 OFFCURVE",
"463 -400 OFFCURVE",
"576 -400 CURVE SMOOTH"
);
},
{
closed = 1;
nodes = (
"317 48 OFFCURVE",
"180 172 OFFCURVE",
"180 543 CURVE SMOOTH",
"180 908 OFFCURVE",
"317 1030 OFFCURVE",
"529 1030 CURVE SMOOTH",
"741 1030 OFFCURVE",
"878 908 OFFCURVE",
"878 537 CURVE SMOOTH",
"878 172 OFFCURVE",
"741 48 OFFCURVE",
"529 48 CURVE SMOOTH"
);
}
);
width = 1058;
},
{
anchors = (
{
name = bottom;
position = "{633, 0}";
},
{
name = center;
position = "{633, 550}";
},
{
name = top;
position = "{633, 1200}";
},
{
name = topright;
position = "{634, 1100}";
}
);
color = -1;
layerId = "8B6491DC-016F-4A51-999B-1E64B7342710";
paths = (
{
closed = 1;
nodes = (
"769 -460 OFFCURVE",
"820 -447 OFFCURVE",
"870 -430 CURVE",
"870 -275 LINE",
"824 -293 OFFCURVE",
"784 -300 OFFCURVE",
"752 -300 CURVE SMOOTH",
"673 -300 OFFCURVE",
"634 -261 OFFCURVE",
"634 -202 CURVE SMOOTH",
"634 -128 OFFCURVE",
"676 -60 OFFCURVE",
"883 17 CURVE SMOOTH",
"1093 94.5 OFFCURVE",
"1213 272 OFFCURVE",
"1213 548 CURVE SMOOTH",
"1213 916 OFFCURVE",
"1003 1118 OFFCURVE",
"633 1118 CURVE SMOOTH",
"263 1118 OFFCURVE",
"53 921 OFFCURVE",
"53 546 CURVE SMOOTH",
"53 176 OFFCURVE",
"274 -22 OFFCURVE",
"633 -22 CURVE",
"642 46 LINE",
"467 -25 OFFCURVE",
"398 -113 OFFCURVE",
"398 -236 CURVE SMOOTH",
"398 -372 OFFCURVE",
"495 -460 OFFCURVE",
"690 -460 CURVE SMOOTH"
);
},
{
closed = 1;
nodes = (
"531 294 OFFCURVE",
"479 349 OFFCURVE",
"479 548 CURVE SMOOTH",
"479 747 OFFCURVE",
"533 802 OFFCURVE",
"633 802 CURVE SMOOTH",
"733 802 OFFCURVE",
"787 747 OFFCURVE",
"787 546 CURVE SMOOTH",
"787 349 OFFCURVE",
"735 294 OFFCURVE",
"633 294 CURVE SMOOTH"
);
}
);
width = 1266;
}
);
leftKerningGroup = o;
rightKerningGroup = o;
unicode = 01EB;
},
{
color = 9;
glyphname = oe;
layers = (
{
anchors = (
{
name = bottom;
position = "{906, 0}";
},
{
name = top;
position = "{906, 1200}";
}
);
color = -1;
layerId = "2E34DD21-04BD-4163-9BA5-2EB18B4FEFA3";
paths = (
{
closed = 1;
nodes = (
"772 -18 OFFCURVE",
"935 143 OFFCURVE",
"935 540 CURVE SMOOTH",
"935 941 OFFCURVE",
"772 1096 OFFCURVE",
"525 1096 CURVE SMOOTH",
"277 1096 OFFCURVE",
"108 937 OFFCURVE",
"108 540 CURVE SMOOTH",
"108 139 OFFCURVE",
"277 -18 OFFCURVE",
"525 -18 CURVE SMOOTH"
);
},
{
closed = 1;
nodes = (
"317 48 OFFCURVE",
"180 172 OFFCURVE",
"180 543 CURVE SMOOTH",
"180 908 OFFCURVE",
"317 1030 OFFCURVE",
"525 1030 CURVE SMOOTH",
"733 1030 OFFCURVE",
"870 908 OFFCURVE",
"870 537 CURVE SMOOTH",
"870 172 OFFCURVE",
"733 48 OFFCURVE",
"525 48 CURVE SMOOTH"
);
},
{
closed = 1;
nodes = (
"1415 -18 OFFCURVE",
"1501 -4 OFFCURVE",
"1597 29 CURVE",
"1597 97 LINE",
"1496 64 OFFCURVE",
"1413 48 OFFCURVE",
"1334 48 CURVE SMOOTH",
"1085 48 OFFCURVE",
"942 178 OFFCURVE",
"942 535 CURVE SMOOTH",
"942 550 LINE SMOOTH",
"942 905 OFFCURVE",
"1068 1031 OFFCURVE",
"1263 1031 CURVE SMOOTH",
"1458 1031 OFFCURVE",
"1576 907 OFFCURVE",
"1576 544 CURVE",
"1603 576 LINE",
"915 576 LINE",
"915 510 LINE",
"1647 510 LINE",
"1647 542 LINE SMOOTH",
"1647 936 OFFCURVE",
"1501 1097 OFFCURVE",
"1263 1097 CURVE SMOOTH",
"1028 1097 OFFCURVE",
"880 938 OFFCURVE",
"880 551 CURVE",
"874 542 LINE",
"874 143 OFFCURVE",
"1038 -18 OFFCURVE",
"1330 -18 CURVE SMOOTH"
);
}
);
width = 1738;
},
{
anchors = (
{
name = bottom;
position = "{1000, 0}";
},
{
name = top;
position = "{1000, 1100}";
}
);
color = -1;
layerId = "8B6491DC-016F-4A51-999B-1E64B7342710";
paths = (
{
closed = 1;
nodes = (
"962 -22 OFFCURVE",
"1133 204 OFFCURVE",
"1133 548 CURVE SMOOTH",
"1133 886 OFFCURVE",
"973 1118 OFFCURVE",
"613 1118 CURVE SMOOTH",
"263 1118 OFFCURVE",
"53 921 OFFCURVE",
"53 546 CURVE SMOOTH",
"53 176 OFFCURVE",
"274 -22 OFFCURVE",
"613 -22 CURVE SMOOTH"
);
},
{
closed = 1;
nodes = (
"531 294 OFFCURVE",
"479 349 OFFCURVE",
"479 548 CURVE SMOOTH",
"479 747 OFFCURVE",
"533 802 OFFCURVE",
"633 802 CURVE SMOOTH",
"733 802 OFFCURVE",
"787 747 OFFCURVE",
"787 546 CURVE SMOOTH",
"787 349 OFFCURVE",
"735 294 OFFCURVE",
"633 294 CURVE SMOOTH"
);
},
{
closed = 1;
nodes = (
"1550 -22 OFFCURVE",
"1658 -13 OFFCURVE",
"1783 11 CURVE",
"1783 322 LINE",
"1691 305 OFFCURVE",
"1590 293 OFFCURVE",
"1503 293 CURVE SMOOTH",
"1260 293 OFFCURVE",
"1212 338 OFFCURVE",
"1212 474 CURVE SMOOTH",
"1212 649 LINE SMOOTH",
"1212 808 OFFCURVE",
"1250 858 OFFCURVE",
"1335 858 CURVE SMOOTH",
"1419 858 OFFCURVE",
"1456 807 OFFCURVE",
"1456 648 CURVE",
"1517 665 LINE",
"1144 665 LINE",
"1144 431 LINE",
"1848 431 LINE",
"1848 537 LINE SMOOTH",
"1848 908 OFFCURVE",
"1668 1118 OFFCURVE",
"1360 1118 CURVE SMOOTH",
"1049 1118 OFFCURVE",
"869 887 OFFCURVE",
"869 581 CURVE",
"832 551 LINE",
"832 163 OFFCURVE",
"990 -22 OFFCURVE",
"1443 -22 CURVE SMOOTH"
);
}
);
width = 1891;
}
);
leftKerningGroup = o;
rightKerningGroup = e;
unicode = 0153;
},
{
glyphname = p;
layers = (
{
color = -1;
layerId = "2E34DD21-04BD-4163-9BA5-2EB18B4FEFA3";
paths = (
{
closed = 1;
nodes = (
"238 -440 LINE",
"238 -1 LINE",
"298 -10 OFFCURVE",
"373 -18 OFFCURVE",
"444 -18 CURVE SMOOTH",
"783 -18 OFFCURVE",
"963 163 OFFCURVE",
"963 560 CURVE SMOOTH",
"963 962 OFFCURVE",
"778 1096 OFFCURVE",
"548 1096 CURVE SMOOTH",
"418 1096 OFFCURVE",
"310 1039 OFFCURVE",
"244 959 CURVE",
"237 959 LINE",
"230 1080 LINE",
"170 1080 LINE",
"170 -440 LINE"
);
},
{
closed = 1;
nodes = (
"375 48 OFFCURVE",
"294 57 OFFCURVE",
"238 71 CURVE",
"238 861 LINE",
"312 979 OFFCURVE",
"430 1030 OFFCURVE",
"545 1030 CURVE SMOOTH",
"742 1030 OFFCURVE",
"891 925 OFFCURVE",
"891 552 CURVE SMOOTH",
"891 196 OFFCURVE",
"740 48 OFFCURVE",
"447 48 CURVE SMOOTH"
);
}
);
width = 1071;
},
{
color = -1;
layerId = "8B6491DC-016F-4A51-999B-1E64B7342710";
paths = (
{
closed = 1;
nodes = (
"522 -440 LINE",
"522 -17 LINE",
"550 -19 OFFCURVE",
"582 -21 OFFCURVE",
"615 -21 CURVE SMOOTH",
"1028 -21 OFFCURVE",
"1244 196 OFFCURVE",
"1244 571 CURVE SMOOTH",
"1244 954 OFFCURVE",
"1028 1118 OFFCURVE",
"781 1118 CURVE SMOOTH",
"652 1118 OFFCURVE",
"557 1066 OFFCURVE",
"496 985 CURVE",
"478 985 LINE",
"453 1100 LINE",
"97 1100 LINE",
"97 -440 LINE"
);
},
{
closed = 1;
nodes = (
"583 296 OFFCURVE",
"548 300 OFFCURVE",
"522 304 CURVE",
"522 741 LINE",
"556 764 OFFCURVE",
"604 775 OFFCURVE",
"649 775 CURVE SMOOTH",
"752 775 OFFCURVE",
"818 723 OFFCURVE",
"818 539 CURVE SMOOTH",
"818 361 OFFCURVE",
"751 296 OFFCURVE",
"614 296 CURVE SMOOTH"
);
}
);
width = 1297;
}
);
leftKerningGroup = n;
rightKerningGroup = o;
unicode = 0070;
userData = {
com.typemytype.robofont.layerData = {
};
};
},
{
glyphname = thorn;
layers = (
{
color = -1;
layerId = "2E34DD21-04BD-4163-9BA5-2EB18B4FEFA3";
paths = (
{
closed = 1;
nodes = (
"238 -440 LINE",
"238 -1 LINE",
"298 -10 OFFCURVE",
"373 -18 OFFCURVE",
"444 -18 CURVE SMOOTH",
"783 -18 OFFCURVE",
"963 163 OFFCURVE",
"963 560 CURVE SMOOTH",
"963 962 OFFCURVE",
"779 1096 OFFCURVE",
"555 1096 CURVE SMOOTH",
"418 1096 OFFCURVE",
"312 1040 OFFCURVE",
"244 963 CURVE",
"238 963 LINE",
"238 1616 LINE",
"170 1616 LINE",
"170 -440 LINE"
);
},
{
closed = 1;
nodes = (
"375 48 OFFCURVE",
"294 57 OFFCURVE",
"238 71 CURVE",
"238 864 LINE",
"312 979 OFFCURVE",
"433 1030 OFFCURVE",
"550 1030 CURVE SMOOTH",
"742 1030 OFFCURVE",
"891 925 OFFCURVE",
"891 552 CURVE SMOOTH",
"891 196 OFFCURVE",
"740 48 OFFCURVE",
"447 48 CURVE SMOOTH"
);
}
);
width = 1071;
},
{
color = -1;
layerId = "8B6491DC-016F-4A51-999B-1E64B7342710";
paths = (
{
closed = 1;
nodes = (
"522 -440 LINE",
"522 -17 LINE",
"550 -19 OFFCURVE",
"582 -21 OFFCURVE",
"615 -21 CURVE SMOOTH",
"1028 -21 OFFCURVE",
"1244 196 OFFCURVE",
"1244 571 CURVE SMOOTH",
"1244 944 OFFCURVE",
"1044 1118 OFFCURVE",
"813 1118 CURVE SMOOTH",
"695 1118 OFFCURVE",
"603 1076 OFFCURVE",
"541 997 CURVE",
"522 997 LINE",
"522 1616 LINE",
"97 1616 LINE",
"97 -440 LINE"
);
},
{
closed = 1;
nodes = (
"583 296 OFFCURVE",
"548 300 OFFCURVE",
"522 304 CURVE",
"522 744 LINE",
"555 765 OFFCURVE",
"601 774 OFFCURVE",
"643 774 CURVE SMOOTH",
"752 774 OFFCURVE",
"818 722 OFFCURVE",
"818 539 CURVE SMOOTH",
"818 361 OFFCURVE",
"751 296 OFFCURVE",
"614 296 CURVE SMOOTH"
);
}
);
width = 1297;
}
);
leftKerningGroup = KERN_h_2ND;
rightKerningGroup = o;
unicode = 00FE;
userData = {
com.typemytype.robofont.layerData = {
};
};
},
{
glyphname = q;
layers = (
{
color = -1;
layerId = "2E34DD21-04BD-4163-9BA5-2EB18B4FEFA3";
paths = (
{
closed = 1;
nodes = (
"901 -440 LINE",
"901 1054 LINE",
"817 1080 OFFCURVE",
"714 1096 OFFCURVE",
"617 1096 CURVE SMOOTH",
"289 1096 OFFCURVE",
"108 915 OFFCURVE",
"108 518 CURVE SMOOTH",
"108 116 OFFCURVE",
"292 -18 OFFCURVE",
"517 -18 CURVE SMOOTH",
"653 -18 OFFCURVE",
"760 39 OFFCURVE",
"827 113 CURVE",
"833 113 LINE",
"833 -440 LINE"
);
},
{
closed = 1;
nodes = (
"329 48 OFFCURVE",
"180 153 OFFCURVE",
"180 526 CURVE SMOOTH",
"180 882 OFFCURVE",
"331 1030 OFFCURVE",
"613 1030 CURVE SMOOTH",
"696 1030 OFFCURVE",
"777 1018 OFFCURVE",
"833 1003 CURVE",
"833 209 LINE",
"759 99 OFFCURVE",
"638 48 OFFCURVE",
"521 48 CURVE SMOOTH"
);
}
);
width = 1071;
},
{
color = -1;
layerId = "8B6491DC-016F-4A51-999B-1E64B7342710";
paths = (
{
closed = 1;
nodes = (
"1200 -440 LINE",
"1200 1049 LINE",
"1065 1094 OFFCURVE",
"879 1118 OFFCURVE",
"720 1118 CURVE SMOOTH",
"266 1118 OFFCURVE",
"53 905 OFFCURVE",
"53 524 CURVE SMOOTH",
"53 153 OFFCURVE",
"253 -21 OFFCURVE",
"484 -21 CURVE SMOOTH",
"602 -21 OFFCURVE",
"694 21 OFFCURVE",
"756 100 CURVE",
"775 100 LINE",
"775 -440 LINE"
);
},
{
closed = 1;
nodes = (
"544 323 OFFCURVE",
"479 375 OFFCURVE",
"479 557 CURVE SMOOTH",
"479 737 OFFCURVE",
"552 802 OFFCURVE",
"682 802 CURVE SMOOTH",
"717 802 OFFCURVE",
"749 798 OFFCURVE",
"775 793 CURVE",
"775 348 LINE",
"740 331 OFFCURVE",
"696 323 OFFCURVE",
"655 323 CURVE SMOOTH"
);
}
);
width = 1297;
}
);
leftKerningGroup = o;
rightKerningGroup = u;
unicode = 0071;
userData = {
com.typemytype.robofont.layerData = {
};
};
},
{
color = 9;
glyphname = r;
layers = (
{
anchors = (
{
name = bottom;
position = "{204, 0}";
},
{
name = top;
position = "{402, 1200}";
}
);
color = -1;
layerId = "2E34DD21-04BD-4163-9BA5-2EB18B4FEFA3";
paths = (
{
closed = 1;
nodes = (
"238 0 LINE",
"238 836 LINE",
"319 960 OFFCURVE",
"461 1018 OFFCURVE",
"575 1018 CURVE SMOOTH",
"608 1018 OFFCURVE",
"632 1017 OFFCURVE",
"660 1013 CURVE",
"660 1081 LINE",
"633 1086 OFFCURVE",
"609 1088 OFFCURVE",
"576 1088 CURVE SMOOTH",
"454 1088 OFFCURVE",
"325 1032 OFFCURVE",
"244 933 CURVE",
"236 933 LINE",
"230 1080 LINE",
"170 1080 LINE",
"170 0 LINE"
);
}
);
width = 673;
},
{
anchors = (
{
name = bottom;
position = "{310, 0}";
},
{
name = top;
position = "{478, 1200}";
}
);
color = -1;
layerId = "8B6491DC-016F-4A51-999B-1E64B7342710";
paths = (
{
closed = 1;
nodes = (
"522 0 LINE",
"522 666 LINE",
"565 711 OFFCURVE",
"654 738 OFFCURVE",
"739 738 CURVE SMOOTH",
"774 738 OFFCURVE",
"820 736 OFFCURVE",
"857 728 CURVE",
"857 1110 LINE",
"833 1114 OFFCURVE",
"798 1118 OFFCURVE",
"766 1118 CURVE SMOOTH",
"644 1118 OFFCURVE",
"547 1073 OFFCURVE",
"494 961 CURVE",
"476 961 LINE",
"443 1100 LINE",
"97 1100 LINE",
"97 0 LINE"
);
}
);
width = 868;
}
);
leftKerningGroup = n;
rightKerningGroup = r;
unicode = 0072;
userData = {
com.typemytype.robofont.layerData = {
};
};
},
{
glyphname = s;
layers = (
{
anchors = (
{
name = bottom;
position = "{434, 0}";
},
{
name = top;
position = "{434, 1200}";
}
);
color = -1;
layerId = "2E34DD21-04BD-4163-9BA5-2EB18B4FEFA3";
paths = (
{
closed = 1;
nodes = (
"648 -18 OFFCURVE",
"776 96 OFFCURVE",
"776 280 CURVE SMOOTH",
"776 426 OFFCURVE",
"706 518 OFFCURVE",
"503 564 CURVE SMOOTH",
"374 592 LINE SMOOTH",
"226 625 OFFCURVE",
"175 697 OFFCURVE",
"175 806 CURVE SMOOTH",
"175 933 OFFCURVE",
"263 1030 OFFCURVE",
"485 1030 CURVE SMOOTH",
"566 1030 OFFCURVE",
"631 1022 OFFCURVE",
"720 998 CURVE",
"720 1066 LINE",
"644 1086 OFFCURVE",
"570 1096 OFFCURVE",
"485 1096 CURVE SMOOTH",
"226 1096 OFFCURVE",
"104 970 OFFCURVE",
"104 803 CURVE SMOOTH",
"104 659 OFFCURVE",
"175 565 OFFCURVE",
"369 520 CURVE SMOOTH",
"498 492 LINE SMOOTH",
"646 459 OFFCURVE",
"705 399 OFFCURVE",
"705 274 CURVE SMOOTH",
"705 130 OFFCURVE",
"608 48 OFFCURVE",
"395 48 CURVE SMOOTH",
"306 48 OFFCURVE",
"226 59 OFFCURVE",
"120 91 CURVE",
"120 23 LINE",
"206 -5 OFFCURVE",
"293 -18 OFFCURVE",
"392 -18 CURVE SMOOTH"
);
}
);
width = 856;
},
{
anchors = (
{
name = bottom;
position = "{519, 0}";
},
{
name = top;
position = "{519, 1200}";
}
);
color = -1;
layerId = "8B6491DC-016F-4A51-999B-1E64B7342710";
paths = (
{
closed = 1;
nodes = (
"796 -22 OFFCURVE",
"994 120 OFFCURVE",
"994 353 CURVE SMOOTH",
"994 563 OFFCURVE",
"880 648 OFFCURVE",
"689 681 CURVE SMOOTH",
"491 715 LINE SMOOTH",
"450 722 OFFCURVE",
"436 732 OFFCURVE",
"436 753 CURVE SMOOTH",
"436 783 OFFCURVE",
"465 815 OFFCURVE",
"629 815 CURVE SMOOTH",
"737 815 OFFCURVE",
"849 800 OFFCURVE",
"932 777 CURVE",
"932 1081 LINE",
"849 1103 OFFCURVE",
"731 1118 OFFCURVE",
"616 1118 CURVE SMOOTH",
"228 1118 OFFCURVE",
"44 972 OFFCURVE",
"44 744 CURVE SMOOTH",
"44 557 OFFCURVE",
"140 450 OFFCURVE",
"351 415 CURVE SMOOTH",
"549 381 LINE SMOOTH",
"590 374 OFFCURVE",
"602 363 OFFCURVE",
"602 339 CURVE SMOOTH",
"602 304 OFFCURVE",
"569 281 OFFCURVE",
"453 281 CURVE SMOOTH",
"320 281 OFFCURVE",
"184 301 OFFCURVE",
"78 333 CURVE",
"78 29 LINE",
"189 -5 OFFCURVE",
"324 -22 OFFCURVE",
"461 -22 CURVE SMOOTH"
);
}
);
width = 1030;
}
);
leftKerningGroup = s;
rightKerningGroup = s;
unicode = 0073;
userData = {
com.typemytype.robofont.layerData = {
};
};
},
{
glyphname = germandbls;
layers = (
{
color = -1;
layerId = "2E34DD21-04BD-4163-9BA5-2EB18B4FEFA3";
paths = (
{
closed = 1;
nodes = (
"1080 -18 OFFCURVE",
"1208 96 OFFCURVE",
"1208 280 CURVE SMOOTH",
"1208 426 OFFCURVE",
"1140 517 OFFCURVE",
"935 564 CURVE SMOOTH",
"806 592 LINE SMOOTH",
"660 625 OFFCURVE",
"607 697 OFFCURVE",
"607 806 CURVE SMOOTH",
"607 933 OFFCURVE",
"695 1030 OFFCURVE",
"917 1030 CURVE SMOOTH",
"985 1030 OFFCURVE",
"1024 1023 OFFCURVE",
"1062 1015 CURVE",
"1074 1061 OFFCURVE",
"1086 1144 OFFCURVE",
"1086 1209 CURVE SMOOTH",
"1086 1513 OFFCURVE",
"908 1636 OFFCURVE",
"674 1636 CURVE SMOOTH",
"399 1636 OFFCURVE",
"235 1485 OFFCURVE",
"235 1152 CURVE SMOOTH",
"235 0 LINE",
"303 0 LINE",
"303 1146 LINE SMOOTH",
"303 1455 OFFCURVE",
"442 1570 OFFCURVE",
"674 1570 CURVE SMOOTH",
"871 1570 OFFCURVE",
"1021 1479 OFFCURVE",
"1021 1206 CURVE SMOOTH",
"1021 1161 OFFCURVE",
"1015 1108 OFFCURVE",
"1005 1063 CURVE",
"1042 1084 LINE",
"998 1091 OFFCURVE",
"956 1094 OFFCURVE",
"917 1094 CURVE SMOOTH",
"658 1094 OFFCURVE",
"536 969 OFFCURVE",
"536 801 CURVE SMOOTH",
"536 659 OFFCURVE",
"607 564 OFFCURVE",
"801 520 CURVE SMOOTH",
"930 492 LINE SMOOTH",
"1078 459 OFFCURVE",
"1137 399 OFFCURVE",
"1137 274 CURVE SMOOTH",
"1137 130 OFFCURVE",
"1040 48 OFFCURVE",
"827 48 CURVE SMOOTH",
"738 48 OFFCURVE",
"658 58 OFFCURVE",
"552 90 CURVE",
"552 22 LINE",
"638 -6 OFFCURVE",
"725 -18 OFFCURVE",
"826 -18 CURVE SMOOTH"
);
},
{
closed = 1;
nodes = (
"284 1014 LINE",
"284 1080 LINE",
"15 1080 LINE",
"15 1014 LINE"
);
}
);
width = 1288;
},
{
color = -1;
layerId = "8B6491DC-016F-4A51-999B-1E64B7342710";
paths = (
{
closed = 1;
nodes = (
"1452 -22 OFFCURVE",
"1650 120 OFFCURVE",
"1650 353 CURVE SMOOTH",
"1650 563 OFFCURVE",
"1536 648 OFFCURVE",
"1345 681 CURVE SMOOTH",
"1147 715 LINE SMOOTH",
"1106 722 OFFCURVE",
"1092 732 OFFCURVE",
"1092 753 CURVE SMOOTH",
"1092 783 OFFCURVE",
"1121 815 OFFCURVE",
"1308 815 CURVE SMOOTH",
"1365 815 OFFCURVE",
"1420 813 OFFCURVE",
"1468 808 CURVE",
"1491 893 OFFCURVE",
"1506 974 OFFCURVE",
"1506 1068 CURVE SMOOTH",
"1506 1462 OFFCURVE",
"1259 1636 OFFCURVE",
"900 1636 CURVE SMOOTH",
"451 1636 OFFCURVE",
"189 1390 OFFCURVE",
"189 992 CURVE SMOOTH",
"189 0 LINE",
"614 0 LINE",
"614 999 LINE SMOOTH",
"614 1233 OFFCURVE",
"713 1350 OFFCURVE",
"934 1350 CURVE SMOOTH",
"1100 1350 OFFCURVE",
"1210 1278 OFFCURVE",
"1210 1104 CURVE SMOOTH",
"1210 1034 OFFCURVE",
"1199 970 OFFCURVE",
"1181 906 CURVE",
"1419 1100 LINE",
"1378 1104 OFFCURVE",
"1285 1106 OFFCURVE",
"1245 1106 CURVE SMOOTH",
"885 1106 OFFCURVE",
"700 972 OFFCURVE",
"700 744 CURVE SMOOTH",
"700 557 OFFCURVE",
"796 450 OFFCURVE",
"1007 415 CURVE SMOOTH",
"1205 381 LINE SMOOTH",
"1246 374 OFFCURVE",
"1258 363 OFFCURVE",
"1258 339 CURVE SMOOTH",
"1258 304 OFFCURVE",
"1225 281 OFFCURVE",
"1084 281 CURVE SMOOTH",
"972 281 OFFCURVE",
"830 300 OFFCURVE",
"734 324 CURVE",
"734 20 LINE",
"845 -8 OFFCURVE",
"983 -22 OFFCURVE",
"1090 -22 CURVE SMOOTH"
);
},
{
closed = 1;
nodes = (
"341 764 LINE",
"341 1100 LINE",
"29 1100 LINE",
"29 764 LINE"
);
}
);
width = 1686;
}
);
leftKerningGroup = t;
rightKerningGroup = s;
unicode = 00DF;
},
{
glyphname = t;
layers = (
{
anchors = (
{
name = bottom;
position = "{458, 0}";
},
{
name = caronalt;
position = "{496, 1616}";
},
{
name = stroke;
position = "{227, 660}";
},
{
name = top;
position = "{261, 1480}";
},
{
name = topright;
position = "{659, 1616}";
}
);
color = -1;
layerId = "2E34DD21-04BD-4163-9BA5-2EB18B4FEFA3";
paths = (
{
closed = 1;
nodes = (
"591 -18 OFFCURVE",
"636 -13 OFFCURVE",
"688 -1 CURVE",
"688 67 LINE",
"633 54 OFFCURVE",
"590 48 OFFCURVE",
"546 48 CURVE SMOOTH",
"383 48 OFFCURVE",
"295 121 OFFCURVE",
"295 322 CURVE SMOOTH",
"295 1480 LINE",
"235 1480 LINE",
"227 1080 LINE",
"227 310 LINE SMOOTH",
"227 79 OFFCURVE",
"345 -18 OFFCURVE",
"542 -18 CURVE SMOOTH"
);
},
{
closed = 1;
nodes = (
"666 1016 LINE",
"666 1080 LINE",
"7 1080 LINE",
"7 1016 LINE"
);
}
);
width = 694;
},
{
anchors = (
{
name = bottom;
position = "{520, 0}";
},
{
name = caronalt;
position = "{709, 1616}";
},
{
name = stroke;
position = "{181, 557}";
},
{
name = top;
position = "{394, 1520}";
},
{
name = topright;
position = "{809, 1616}";
}
);
color = -1;
layerId = "8B6491DC-016F-4A51-999B-1E64B7342710";
paths = (
{
closed = 1;
nodes = (
"710 -21 OFFCURVE",
"799 -9 OFFCURVE",
"859 5 CURVE",
"859 335 LINE",
"817 328.5 OFFCURVE",
"786 325 OFFCURVE",
"755 325 CURVE SMOOTH",
"644 325 OFFCURVE",
"606 363 OFFCURVE",
"606 491 CURVE SMOOTH",
"606 1480 LINE",
"260 1480 LINE",
"181 1100 LINE",
"181 425 LINE SMOOTH",
"181 117 OFFCURVE",
"340 -21 OFFCURVE",
"633 -21 CURVE SMOOTH"
);
},
{
closed = 1;
nodes = (
"859 770 LINE",
"859 1100 LINE",
"21 1100 LINE",
"21 770 LINE"
);
}
);
width = 906;
}
);
leftKerningGroup = t;
rightKerningGroup = t;
unicode = 0074;
userData = {
com.typemytype.robofont.layerData = {
};
};
},
{
glyphname = u;
layers = (
{
anchors = (
{
name = bottom;
position = "{532, 0}";
},
{
name = ogonek;
position = "{907, 0}";
},
{
name = top;
position = "{532, 1200}";
},
{
name = topright;
position = "{839, 1080}";
}
);
color = -1;
layerId = "2E34DD21-04BD-4163-9BA5-2EB18B4FEFA3";
paths = (
{
closed = 1;
nodes = (
"614 -18 OFFCURVE",
"739 29 OFFCURVE",
"833 124 CURVE",
"841 124 LINE",
"847 0 LINE",
"907 0 LINE",
"907 1080 LINE",
"839 1080 LINE",
"839 225 LINE",
"746 97 OFFCURVE",
"602 48 OFFCURVE",
"488 48 CURVE SMOOTH",
"332 48 OFFCURVE",
"224 121 OFFCURVE",
"224 338 CURVE SMOOTH",
"224 1080 LINE",
"156 1080 LINE",
"156 339 LINE SMOOTH",
"156 74 OFFCURVE",
"294 -18 OFFCURVE",
"486 -18 CURVE SMOOTH"
);
}
);
width = 1077;
},
{
anchors = (
{
name = bottom;
position = "{633, 0}";
},
{
name = ogonek;
position = "{1174, 0}";
},
{
name = top;
position = "{633, 1200}";
},
{
name = topright;
position = "{796, 1100}";
}
);
color = -1;
layerId = "8B6491DC-016F-4A51-999B-1E64B7342710";
paths = (
{
closed = 1;
nodes = (
"602 -19 OFFCURVE",
"702 24 OFFCURVE",
"781 104 CURVE",
"797 104 LINE",
"825 0 LINE",
"1174 0 LINE",
"1174 1100 LINE",
"749 1100 LINE",
"749 396 LINE",
"718 365 OFFCURVE",
"665 344 OFFCURVE",
"617 344 CURVE SMOOTH",
"555 344 OFFCURVE",
"516 374 OFFCURVE",
"516 470 CURVE SMOOTH",
"516 1100 LINE",
"91 1100 LINE",
"91 439 LINE SMOOTH",
"91 110 OFFCURVE",
"258 -19 OFFCURVE",
"487 -19 CURVE SMOOTH"
);
}
);
width = 1271;
}
);
leftKerningGroup = u;
rightKerningGroup = u;
unicode = 0075;
userData = {
com.typemytype.robofont.layerData = {
};
};
},
{
glyphname = uhorn;
layers = (
{
anchors = (
{
name = bottom;
position = "{532, 0}";
},
{
name = ogonek;
position = "{907, 0}";
},
{
name = top;
position = "{532, 1200}";
}
);
color = -1;
layerId = "2E34DD21-04BD-4163-9BA5-2EB18B4FEFA3";
paths = (
{
closed = 1;
nodes = (
"614 -18 OFFCURVE",
"739 29 OFFCURVE",
"833 124 CURVE",
"841 124 LINE",
"847 0 LINE",
"907 0 LINE",
"907 1044 LINE",
"878 1013 LINE",
"1037 1013 OFFCURVE",
"1137 1098 OFFCURVE",
"1137 1245 CURVE SMOOTH",
"1137 1305 OFFCURVE",
"1129 1343 OFFCURVE",
"1112 1389 CURVE",
"1046 1389 LINE",
"1061 1343 OFFCURVE",
"1071 1303 OFFCURVE",
"1071 1247 CURVE SMOOTH",
"1071 1131 OFFCURVE",
"993 1080 OFFCURVE",
"872 1080 CURVE SMOOTH",
"839 1080 LINE",
"839 225 LINE",
"746 97 OFFCURVE",
"602 48 OFFCURVE",
"488 48 CURVE SMOOTH",
"332 48 OFFCURVE",
"224 121 OFFCURVE",
"224 338 CURVE SMOOTH",
"224 1080 LINE",
"156 1080 LINE",
"156 339 LINE SMOOTH",
"156 74 OFFCURVE",
"294 -18 OFFCURVE",
"486 -18 CURVE SMOOTH"
);
}
);
width = 1097;
},
{
anchors = (
{
name = bottom;
position = "{633, 0}";
},
{
name = ogonek;
position = "{1174, 0}";
},
{
name = top;
position = "{633, 1200}";
}
);
color = -1;
layerId = "8B6491DC-016F-4A51-999B-1E64B7342710";
paths = (
{
closed = 1;
nodes = (
"602 -19 OFFCURVE",
"702 24 OFFCURVE",
"781 104 CURVE",
"797 104 LINE",
"825 0 LINE",
"1174 0 LINE",
"1174 1080 LINE",
"1004 913 LINE",
"1208 913 OFFCURVE",
"1347 1009 OFFCURVE",
"1347 1233 CURVE SMOOTH",
"1347 1282 OFFCURVE",
"1344 1332 OFFCURVE",
"1328 1389 CURVE",
"1069 1389 LINE",
"1080 1330 OFFCURVE",
"1083 1288 OFFCURVE",
"1083 1251 CURVE SMOOTH",
"1083 1138 OFFCURVE",
"1022 1100 OFFCURVE",
"911 1100 CURVE SMOOTH",
"749 1100 LINE",
"749 396 LINE",
"718 365 OFFCURVE",
"665 344 OFFCURVE",
"617 344 CURVE SMOOTH",
"555 344 OFFCURVE",
"516 374 OFFCURVE",
"516 470 CURVE SMOOTH",
"516 1100 LINE",
"91 1100 LINE",
"91 439 LINE SMOOTH",
"91 110 OFFCURVE",
"258 -19 OFFCURVE",
"487 -19 CURVE SMOOTH"
);
}
);
width = 1311;
}
);
leftKerningGroup = u;
rightKerningGroup = uhorn;
unicode = 01B0;
},
{
glyphname = uhorntilde;
layers = (
{
color = -1;
layerId = "2E34DD21-04BD-4163-9BA5-2EB18B4FEFA3";
paths = (
{
closed = 1;
nodes = (
"614 -18 OFFCURVE",
"739 29 OFFCURVE",
"833 124 CURVE",
"841 124 LINE",
"847 0 LINE",
"907 0 LINE",
"907 1044 LINE",
"878 1013 LINE",
"1037 1013 OFFCURVE",
"1137 1098 OFFCURVE",
"1137 1245 CURVE SMOOTH",
"1137 1305 OFFCURVE",
"1129 1343 OFFCURVE",
"1112 1389 CURVE",
"1046 1389 LINE",
"1061 1343 OFFCURVE",
"1071 1303 OFFCURVE",
"1071 1247 CURVE SMOOTH",
"1071 1131 OFFCURVE",
"993 1080 OFFCURVE",
"872 1080 CURVE SMOOTH",
"839 1080 LINE",
"839 225 LINE",
"746 97 OFFCURVE",
"602 48 OFFCURVE",
"488 48 CURVE SMOOTH",
"332 48 OFFCURVE",
"224 121 OFFCURVE",
"224 338 CURVE SMOOTH",
"224 1080 LINE",
"156 1080 LINE",
"156 339 LINE SMOOTH",
"156 74 OFFCURVE",
"294 -18 OFFCURVE",
"486 -18 CURVE SMOOTH"
);
},
{
closed = 1;
nodes = (
"729 1380 OFFCURVE",
"780 1402 OFFCURVE",
"815 1441 CURVE",
"815 1508 LINE",
"772 1460 OFFCURVE",
"726 1437 OFFCURVE",
"666 1437 CURVE SMOOTH",
"584 1437 OFFCURVE",
"500 1513 OFFCURVE",
"398 1513 CURVE SMOOTH",
"335 1513 OFFCURVE",
"284 1491 OFFCURVE",
"249 1452 CURVE",
"249 1385 LINE",
"292 1433 OFFCURVE",
"338 1456 OFFCURVE",
"398 1456 CURVE SMOOTH",
"480 1456 OFFCURVE",
"564 1380 OFFCURVE",
"666 1380 CURVE SMOOTH"
);
}
);
width = 1097;
},
{
color = -1;
layerId = "8B6491DC-016F-4A51-999B-1E64B7342710";
paths = (
{
closed = 1;
nodes = (
"602 -19 OFFCURVE",
"702 24 OFFCURVE",
"781 104 CURVE",
"797 104 LINE",
"825 0 LINE",
"1174 0 LINE",
"1174 1080 LINE",
"1004 913 LINE",
"1208 913 OFFCURVE",
"1347 1009 OFFCURVE",
"1347 1233 CURVE SMOOTH",
"1347 1282 OFFCURVE",
"1344 1332 OFFCURVE",
"1328 1389 CURVE",
"1069 1389 LINE",
"1080 1330 OFFCURVE",
"1083 1288 OFFCURVE",
"1083 1251 CURVE SMOOTH",
"1083 1138 OFFCURVE",
"1022 1100 OFFCURVE",
"911 1100 CURVE SMOOTH",
"749 1100 LINE",
"749 396 LINE",
"718 365 OFFCURVE",
"665 344 OFFCURVE",
"617 344 CURVE SMOOTH",
"555 344 OFFCURVE",
"516 374 OFFCURVE",
"516 470 CURVE SMOOTH",
"516 1100 LINE",
"91 1100 LINE",
"91 439 LINE SMOOTH",
"91 110 OFFCURVE",
"258 -19 OFFCURVE",
"487 -19 CURVE SMOOTH"
);
},
{
closed = 1;
nodes = (
"881 1245 OFFCURVE",
"944 1270 OFFCURVE",
"1001 1329 CURVE",
"1001 1585 LINE",
"935.5 1521 OFFCURVE",
"878 1494 OFFCURVE",
"801 1494 CURVE SMOOTH",
"693 1494 OFFCURVE",
"599.5 1593 OFFCURVE",
"473 1593 CURVE SMOOTH",
"385 1593 OFFCURVE",
"322 1568 OFFCURVE",
"265 1509 CURVE",
"265 1253 LINE",
"330.5 1317 OFFCURVE",
"388 1344 OFFCURVE",
"465 1344 CURVE SMOOTH",
"573 1344 OFFCURVE",
"666.5 1245 OFFCURVE",
"793 1245 CURVE SMOOTH"
);
}
);
width = 1311;
}
);
leftKerningGroup = u;
rightKerningGroup = uhorn;
unicode = 1EEF;
},
{
glyphname = uogonek;
layers = (
{
anchors = (
{
name = bottom;
position = "{532, 0}";
},
{
name = ogonek;
position = "{907, 0}";
},
{
name = top;
position = "{532, 1200}";
},
{
name = topright;
position = "{839, 1080}";
}
);
color = -1;
components = (
{
alignment = -1;
name = ogonekcomb;
transform = "{1, 0, 0, 1, 407, 0}";
}
);
layerId = "2E34DD21-04BD-4163-9BA5-2EB18B4FEFA3";
paths = (
{
closed = 1;
nodes = (
"614 -18 OFFCURVE",
"739 29 OFFCURVE",
"833 124 CURVE",
"841 124 LINE",
"847 0 LINE",
"907 0 LINE",
"907 1080 LINE",
"839 1080 LINE",
"839 225 LINE",
"746 97 OFFCURVE",
"602 48 OFFCURVE",
"488 48 CURVE SMOOTH",
"332 48 OFFCURVE",
"224 121 OFFCURVE",
"224 338 CURVE SMOOTH",
"224 1080 LINE",
"156 1080 LINE",
"156 339 LINE SMOOTH",
"156 74 OFFCURVE",
"294 -18 OFFCURVE",
"486 -18 CURVE SMOOTH"
);
}
);
width = 1077;
},
{
anchors = (
{
name = bottom;
position = "{633, 0}";
},
{
name = ogonek;
position = "{1174, 0}";
},
{
name = top;
position = "{633, 1200}";
},
{
name = topright;
position = "{796, 1100}";
}
);
color = -1;
components = (
{
alignment = -1;
name = ogonekcomb;
transform = "{1, 0, 0, 1, 658, 0}";
}
);
layerId = "8B6491DC-016F-4A51-999B-1E64B7342710";
paths = (
{
closed = 1;
nodes = (
"602 -19 OFFCURVE",
"702 24 OFFCURVE",
"781 104 CURVE",
"797 104 LINE",
"842 -20 LINE",
"1174 0 LINE",
"1174 1100 LINE",
"749 1100 LINE",
"749 396 LINE",
"718 365 OFFCURVE",
"665 344 OFFCURVE",
"617 344 CURVE SMOOTH",
"555 344 OFFCURVE",
"516 374 OFFCURVE",
"516 470 CURVE SMOOTH",
"516 1100 LINE",
"91 1100 LINE",
"91 439 LINE SMOOTH",
"91 110 OFFCURVE",
"258 -19 OFFCURVE",
"487 -19 CURVE SMOOTH"
);
}
);
width = 1271;
}
);
leftKerningGroup = u;
rightKerningGroup = u;
unicode = 0173;
},
{
glyphname = v;
layers = (
{
anchors = (
{
name = bottom;
position = "{499, 0}";
},
{
name = top;
position = "{499, 1200}";
}
);
color = -1;
layerId = "2E34DD21-04BD-4163-9BA5-2EB18B4FEFA3";
paths = (
{
closed = 1;
nodes = (
"544 0 LINE",
"970 1080 LINE",
"897 1080 LINE",
"490 36 LINE",
"508 36 LINE",
"101 1080 LINE",
"25 1080 LINE",
"451 0 LINE"
);
}
);
width = 995;
},
{
anchors = (
{
name = bottom;
position = "{619, 0}";
},
{
name = top;
position = "{619, 1200}";
}
);
color = -1;
layerId = "8B6491DC-016F-4A51-999B-1E64B7342710";
paths = (
{
closed = 1;
nodes = (
"883 0 LINE",
"1250 1100 LINE",
"834 1100 LINE",
"619 344 LINE",
"645 344 LINE",
"430 1100 LINE",
"-12 1100 LINE",
"354 0 LINE"
);
}
);
width = 1238;
}
);
leftKerningGroup = v;
rightKerningGroup = v;
unicode = 0076;
userData = {
com.typemytype.robofont.layerData = {
};
};
},
{
glyphname = w;
layers = (
{
anchors = (
{
name = bottom;
position = "{813, 0}";
},
{
name = top;
position = "{814, 1200}";
}
);
color = -1;
layerId = "2E34DD21-04BD-4163-9BA5-2EB18B4FEFA3";
paths = (
{
closed = 1;
nodes = (
"495 0 LINE",
"821 1034 LINE",
"804 1034 LINE",
"1130 0 LINE",
"1224 0 LINE",
"1554 1080 LINE",
"1483 1080 LINE",
"1170 40 LINE",
"1186 40 LINE",
"860 1080 LINE",
"766 1080 LINE",
"441 40 LINE",
"457 40 LINE",
"143 1080 LINE",
"70 1080 LINE",
"401 0 LINE"
);
}
);
width = 1624;
},
{
anchors = (
{
name = bottom;
position = "{946, 0}";
},
{
name = top;
position = "{946, 1200}";
}
);
color = -1;
layerId = "8B6491DC-016F-4A51-999B-1E64B7342710";
paths = (
{
closed = 1;
nodes = (
"773 0 LINE",
"959 736 LINE",
"940 736 LINE",
"1119 0 LINE",
"1581 0 LINE",
"1858 1100 LINE",
"1476 1100 LINE",
"1320 425 LINE",
"1344 425 LINE",
"1186 1100 LINE",
"724 1100 LINE",
"561 425 LINE",
"576 425 LINE",
"431 1100 LINE",
"32 1100 LINE",
"311 0 LINE"
);
}
);
width = 1890;
}
);
leftKerningGroup = v;
rightKerningGroup = v;
unicode = 0077;
userData = {
com.typemytype.robofont.layerData = {
};
};
},
{
glyphname = x;
layers = (
{
anchors = (
{
name = bottom;
position = "{472, 0}";
},
{
name = top;
position = "{472, 1200}";
}
);
color = -1;
layerId = "2E34DD21-04BD-4163-9BA5-2EB18B4FEFA3";
paths = (
{
closed = 1;
nodes = (
"915 0 LINE",
"513 546 LINE",
"472 601 LINE",
"122 1080 LINE",
"36 1080 LINE",
"429 544 LINE",
"470 490 LINE",
"829 0 LINE"
);
},
{
closed = 1;
nodes = (
"114 0 LINE",
"470 490 LINE",
"513 546 LINE",
"906 1080 LINE",
"823 1080 LINE",
"472 601 LINE",
"429 544 LINE",
"29 0 LINE"
);
}
);
width = 941;
},
{
anchors = (
{
name = bottom;
position = "{602, 0}";
},
{
name = top;
position = "{603, 1200}";
}
);
color = -1;
layerId = "8B6491DC-016F-4A51-999B-1E64B7342710";
paths = (
{
closed = 1;
nodes = (
"1228 0 LINE",
"849 559 LINE",
"607 850 LINE",
"447 1100 LINE",
"-16 1100 LINE",
"352 554 LINE",
"599 265 LINE",
"765 0 LINE"
);
},
{
closed = 1;
nodes = (
"427 0 LINE",
"599 265 LINE",
"849 559 LINE",
"1214 1100 LINE",
"764 1100 LINE",
"607 850 LINE",
"352 554 LINE",
"-23 0 LINE"
);
}
);
width = 1204;
}
);
leftKerningGroup = x;
rightKerningGroup = x;
unicode = 0078;
userData = {
com.typemytype.robofont.layerData = {
};
};
},
{
glyphname = y;
layers = (
{
anchors = (
{
name = bottom;
position = "{723, 0}";
},
{
name = top;
position = "{499, 1200}";
}
);
color = -1;
layerId = "2E34DD21-04BD-4163-9BA5-2EB18B4FEFA3";
paths = (
{
closed = 1;
nodes = (
"371 -440 LINE",
"970 1080 LINE",
"897 1080 LINE",
"490 36 LINE",
"473 0 LINE",
"299 -440 LINE"
);
},
{
closed = 1;
nodes = (
"521 0 LINE",
"101 1080 LINE",
"25 1080 LINE",
"451 0 LINE"
);
}
);
width = 995;
},
{
anchors = (
{
name = bottom;
position = "{1080, 0}";
},
{
name = top;
position = "{619, 1200}";
}
);
color = -1;
layerId = "8B6491DC-016F-4A51-999B-1E64B7342710";
paths = (
{
closed = 1;
nodes = (
"735 -440 LINE",
"1250 1100 LINE",
"834 1100 LINE",
"619 344 LINE",
"470 0 LINE",
"321 -440 LINE"
);
},
{
closed = 1;
nodes = (
"746 0 LINE",
"430 1100 LINE",
"-12 1100 LINE",
"354 0 LINE"
);
}
);
width = 1238;
}
);
leftKerningGroup = v;
rightKerningGroup = v;
unicode = 0079;
userData = {
com.typemytype.robofont.layerData = {
};
};
},
{
glyphname = z;
layers = (
{
anchors = (
{
name = bottom;
position = "{435, 0}";
},
{
name = top;
position = "{435, 1200}";
}
);
color = -1;
layerId = "2E34DD21-04BD-4163-9BA5-2EB18B4FEFA3";
paths = (
{
closed = 1;
nodes = (
"808 0 LINE",
"808 64 LINE",
"138 64 LINE",
"138 39 LINE",
"796 1040 LINE",
"796 1080 LINE",
"73 1080 LINE",
"73 1016 LINE",
"719 1016 LINE",
"719 1041 LINE",
"61 40 LINE",
"61 0 LINE"
);
}
);
width = 865;
},
{
anchors = (
{
name = bottom;
position = "{548, 0}";
},
{
name = top;
position = "{548, 1200}";
}
);
color = -1;
layerId = "8B6491DC-016F-4A51-999B-1E64B7342710";
paths = (
{
closed = 1;
nodes = (
"1028 0 LINE",
"1028 330 LINE",
"530 330 LINE",
"530 258 LINE",
"1018 830 LINE",
"1018 1100 LINE",
"77 1100 LINE",
"77 770 LINE",
"555 770 LINE",
"555 842 LINE",
"67 270 LINE",
"67 0 LINE"
);
}
);
width = 1075;
}
);
leftKerningGroup = z;
rightKerningGroup = z;
unicode = 007A;
userData = {
com.typemytype.robofont.layerData = {
};
};
},
{
export = 0;
glyphname = o.comb;
layers = (
{
anchors = (
{
name = bottom;
position = "{529, 0}";
},
{
name = center;
position = "{529, 540}";
},
{
name = ogonek;
position = "{663, 0}";
},
{
name = top;
position = "{529, 1200}";
},
{
name = topright;
position = "{655, 1080}";
}
);
color = -1;
layerId = "2E34DD21-04BD-4163-9BA5-2EB18B4FEFA3";
paths = (
{
closed = 1;
nodes = (
"781 -18 OFFCURVE",
"950 143 OFFCURVE",
"950 540 CURVE SMOOTH",
"950 941 OFFCURVE",
"781 1096 OFFCURVE",
"529 1096 CURVE SMOOTH",
"277 1096 OFFCURVE",
"108 937 OFFCURVE",
"108 540 CURVE SMOOTH",
"108 139 OFFCURVE",
"277 -18 OFFCURVE",
"529 -18 CURVE SMOOTH"
);
},
{
closed = 1;
nodes = (
"317 48 OFFCURVE",
"180 172 OFFCURVE",
"180 543 CURVE SMOOTH",
"180 908 OFFCURVE",
"317 1030 OFFCURVE",
"529 1030 CURVE SMOOTH",
"741 1030 OFFCURVE",
"878 908 OFFCURVE",
"878 537 CURVE SMOOTH",
"878 172 OFFCURVE",
"741 48 OFFCURVE",
"529 48 CURVE SMOOTH"
);
}
);
width = 1058;
},
{
anchors = (
{
name = bottom;
position = "{631, -110}";
},
{
name = center;
position = "{631, 550}";
},
{
name = ogonek;
position = "{753, 54}";
},
{
name = top;
position = "{634, 1274}";
},
{
name = topright;
position = "{1174, 1100}";
}
);
color = -1;
layerId = "8B6491DC-016F-4A51-999B-1E64B7342710";
paths = (
{
closed = 1;
nodes = (
"992 -22 OFFCURVE",
"1213 176 OFFCURVE",
"1213 548 CURVE SMOOTH",
"1213 916 OFFCURVE",
"1003 1118 OFFCURVE",
"633 1118 CURVE SMOOTH",
"263 1118 OFFCURVE",
"53 921 OFFCURVE",
"53 546 CURVE SMOOTH",
"53 176 OFFCURVE",
"274 -22 OFFCURVE",
"633 -22 CURVE SMOOTH"
);
},
{
closed = 1;
nodes = (
"523 288 OFFCURVE",
"466 345 OFFCURVE",
"466 548 CURVE SMOOTH",
"466 751 OFFCURVE",
"525 808 OFFCURVE",
"633 808 CURVE SMOOTH",
"741 808 OFFCURVE",
"800 751 OFFCURVE",
"800 546 CURVE SMOOTH",
"800 345 OFFCURVE",
"743 288 OFFCURVE",
"633 288 CURVE SMOOTH"
);
}
);
width = 1266;
}
);
leftKerningGroup = KERN_o_2ND;
rightKerningGroup = KERN_o_1ST;
userData = {
com.typemytype.robofont.layerData = {
};
};
},
{
export = 0;
glyphname = f.short;
layers = (
{
color = -1;
layerId = "2E34DD21-04BD-4163-9BA5-2EB18B4FEFA3";
paths = (
{
closed = 1;
nodes = (
"303 0 LINE",
"303 1296 LINE SMOOTH",
"303 1496 OFFCURVE",
"392 1570 OFFCURVE",
"569 1570 CURVE SMOOTH",
"618 1570 OFFCURVE",
"665 1565 OFFCURVE",
"713 1556 CURVE",
"713 1624 LINE",
"668 1632 OFFCURVE",
"616 1636 OFFCURVE",
"573 1636 CURVE SMOOTH",
"348 1636 OFFCURVE",
"235 1524 OFFCURVE",
"235 1293 CURVE SMOOTH",
"235 0 LINE"
);
},
{
closed = 1;
nodes = (
"674 1016 LINE",
"674 1080 LINE",
"15 1080 LINE",
"15 1016 LINE"
);
}
);
width = 667;
},
{
color = -1;
layerId = "8B6491DC-016F-4A51-999B-1E64B7342710";
paths = (
{
closed = 1;
nodes = (
"611 0 LINE",
"611 1160 LINE SMOOTH",
"611 1251 OFFCURVE",
"668 1304 OFFCURVE",
"778 1304 CURVE SMOOTH",
"808 1304 OFFCURVE",
"835 1302 OFFCURVE",
"865 1293 CURVE",
"865 1619 LINE",
"816 1632 OFFCURVE",
"768 1636 OFFCURVE",
"707 1636 CURVE SMOOTH",
"385 1636 OFFCURVE",
"189 1440 OFFCURVE",
"189 1138 CURVE SMOOTH",
"189 0 LINE"
);
},
{
closed = 1;
nodes = (
"864 770 LINE",
"864 1100 LINE",
"29 1100 LINE",
"29 770 LINE"
);
}
);
width = 860;
}
);
leftKerningGroup = KERN_f_2ND;
rightKerningGroup = KERN_f_1ST;
userData = {
com.typemytype.robofont.layerData = {
};
};
},
{
glyphname = a.sc;
layers = (
{
anchors = (
{
name = bottom;
position = "{561, 0}";
},
{
name = ogonek;
position = "{1082, 0}";
},
{
name = top;
position = "{561, 1230}";
}
);
color = -1;
layerId = "2E34DD21-04BD-4163-9BA5-2EB18B4FEFA3";
paths = (
{
closed = 1;
nodes = (
"110 0 LINE",
"569 1153 LINE",
"549 1153 LINE",
"1008 0 LINE",
"1082 0 LINE",
"604 1190 LINE",
"515 1190 LINE",
"39 0 LINE"
);
},
{
closed = 1;
nodes = (
"867 416 LINE",
"849 480 LINE",
"271 480 LINE",
"252 416 LINE"
);
}
);
width = 1121;
},
{
anchors = (
{
name = bottom;
position = "{681, 0}";
},
{
name = ogonek;
position = "{1356, 0}";
},
{
name = top;
position = "{680, 1230}";
}
);
color = -1;
layerId = "8B6491DC-016F-4A51-999B-1E64B7342710";
paths = (
{
closed = 1;
nodes = (
"422 0 LINE",
"696 1026 LINE",
"660 1026 LINE",
"936 0 LINE",
"1356 0 LINE",
"999 1190 LINE",
"363 1190 LINE",
"6 0 LINE"
);
},
{
closed = 1;
nodes = (
"1019 242 LINE",
"930 552 LINE",
"429 552 LINE",
"340 242 LINE"
);
}
);
width = 1362;
}
);
leftKerningGroup = a.sc;
note = "\012    520\012  ";
rightKerningGroup = a.sc;
},
{
glyphname = ae.sc;
layers = (
{
anchors = (
{
name = bottom;
position = "{823, 0}";
},
{
name = top;
position = "{748, 1230}";
}
);
color = -1;
layerId = "2E34DD21-04BD-4163-9BA5-2EB18B4FEFA3";
paths = (
{
closed = 1;
nodes = (
"110 0 LINE",
"568 1126 LINE",
"747 1126 LINE",
"747 1190 LINE",
"524 1190 LINE",
"39 0 LINE"
);
},
{
closed = 1;
nodes = (
"797 416 LINE",
"797 480 LINE",
"276 480 LINE",
"257 416 LINE"
);
},
{
closed = 1;
nodes = (
"1455 0 LINE",
"1455 64 LINE",
"857 64 LINE",
"783 1126 LINE",
"1447 1126 LINE",
"1447 1190 LINE",
"712 1190 LINE",
"793 0 LINE"
);
},
{
closed = 1;
nodes = (
"1365 579 LINE",
"1365 643 LINE",
"801 643 LINE",
"801 579 LINE"
);
}
);
width = 1527;
},
{
anchors = (
{
name = bottom;
position = "{966, 0}";
},
{
name = top;
position = "{981, 1230}";
}
);
color = -1;
layerId = "8B6491DC-016F-4A51-999B-1E64B7342710";
paths = (
{
closed = 1;
nodes = (
"424 0 LINE",
"658 882 LINE",
"972 882 LINE",
"972 1190 LINE",
"361 1190 LINE",
"6 0 LINE"
);
},
{
closed = 1;
nodes = (
"953 245 LINE",
"953 553 LINE",
"429 553 LINE",
"339 245 LINE"
);
},
{
closed = 1;
nodes = (
"1808 0 LINE",
"1808 308 LINE",
"1264 308 LINE",
"1208 882 LINE",
"1800 882 LINE",
"1800 1190 LINE",
"773 1190 LINE",
"878 0 LINE"
);
},
{
closed = 1;
nodes = (
"1708 449 LINE",
"1708 757 LINE",
"1038 757 LINE",
"1038 449 LINE"
);
}
);
width = 1882;
}
);
leftKerningGroup = a.sc;
rightKerningGroup = e.sc;
},
{
glyphname = b.sc;
layers = (
{
anchors = (
{
name = bottom;
position = "{567, 0}";
},
{
name = top;
position = "{567, 1230}";
}
);
color = -1;
layerId = "2E34DD21-04BD-4163-9BA5-2EB18B4FEFA3";
paths = (
{
closed = 1;
nodes = (
"856 -8 OFFCURVE",
"1004 105 OFFCURVE",
"1004 318 CURVE SMOOTH",
"1004 487 OFFCURVE",
"905 599 OFFCURVE",
"698 622 CURVE",
"695 610 LINE",
"895 634 OFFCURVE",
"967 753 OFFCURVE",
"967 891 CURVE SMOOTH",
"967 1099 OFFCURVE",
"831 1202 OFFCURVE",
"509 1202 CURVE SMOOTH",
"391 1202 OFFCURVE",
"289 1192 OFFCURVE",
"192 1173 CURVE",
"192 8 LINE",
"297 -4 OFFCURVE",
"382 -8 OFFCURVE",
"483 -8 CURVE SMOOTH"
);
},
{
closed = 1;
nodes = (
"401 53 OFFCURVE",
"330 57 OFFCURVE",
"260 66 CURVE",
"260 1120 LINE",
"329 1132 OFFCURVE",
"413 1139 OFFCURVE",
"510 1139 CURVE SMOOTH",
"790 1139 OFFCURVE",
"900 1066 OFFCURVE",
"900 889 CURVE SMOOTH",
"900 735 OFFCURVE",
"810 644 OFFCURVE",
"540 644 CURVE SMOOTH",
"245 644 LINE",
"245 581 LINE",
"564 581 LINE SMOOTH",
"825 581 OFFCURVE",
"936 492 OFFCURVE",
"936 320 CURVE SMOOTH",
"936 143 OFFCURVE",
"823 53 OFFCURVE",
"486 53 CURVE SMOOTH"
);
}
);
width = 1088;
},
{
anchors = (
{
name = bottom;
position = "{646, 0}";
},
{
name = top;
position = "{646, 1230}";
}
);
color = -1;
layerId = "8B6491DC-016F-4A51-999B-1E64B7342710";
paths = (
{
closed = 1;
nodes = (
"1031 -18 OFFCURVE",
"1212 118 OFFCURVE",
"1212 345 CURVE SMOOTH",
"1212 516 OFFCURVE",
"1103 594 OFFCURVE",
"982 617 CURVE",
"983 608 LINE",
"1089 635 OFFCURVE",
"1179 732 OFFCURVE",
"1179 859 CURVE SMOOTH",
"1179 1091 OFFCURVE",
"998 1207 OFFCURVE",
"580 1207 CURVE SMOOTH",
"436 1207 OFFCURVE",
"242 1185 OFFCURVE",
"111 1156 CURVE",
"111 11 LINE",
"224 -6 OFFCURVE",
"407 -18 OFFCURVE",
"537 -18 CURVE SMOOTH"
);
},
{
closed = 1;
nodes = (
"602 259 OFFCURVE",
"569 260 OFFCURVE",
"520 264 CURVE",
"520 920 LINE",
"564 927 OFFCURVE",
"603 930 OFFCURVE",
"636 930 CURVE SMOOTH",
"741 930 OFFCURVE",
"779 903 OFFCURVE",
"779 838 CURVE SMOOTH",
"779 776 OFFCURVE",
"744 748 OFFCURVE",
"641 748 CURVE SMOOTH",
"482 748 LINE",
"482 464 LINE",
"667 464 LINE SMOOTH",
"777 464 OFFCURVE",
"820 438 OFFCURVE",
"820 364 CURVE SMOOTH",
"820 291 OFFCURVE",
"777 259 OFFCURVE",
"635 259 CURVE SMOOTH"
);
}
);
width = 1254;
}
);
leftKerningGroup = h.sc;
rightKerningGroup = b.sc;
},
{
glyphname = c.sc;
layers = (
{
anchors = (
{
name = bottom;
position = "{600, 0}";
},
{
name = top;
position = "{587, 1230}";
}
);
color = -1;
layerId = "2E34DD21-04BD-4163-9BA5-2EB18B4FEFA3";
paths = (
{
closed = 1;
nodes = (
"743 -14 OFFCURVE",
"837 2 OFFCURVE",
"923 32 CURVE",
"923 100 LINE",
"816 65 OFFCURVE",
"734 52 OFFCURVE",
"637 52 CURVE SMOOTH",
"359 52 OFFCURVE",
"180 179 OFFCURVE",
"180 596 CURVE SMOOTH",
"180 995 OFFCURVE",
"350 1138 OFFCURVE",
"648 1138 CURVE SMOOTH",
"741 1138 OFFCURVE",
"829 1127 OFFCURVE",
"923 1100 CURVE",
"923 1168 LINE",
"838 1193 OFFCURVE",
"747 1204 OFFCURVE",
"650 1204 CURVE SMOOTH",
"315 1204 OFFCURVE",
"108 1031 OFFCURVE",
"108 594 CURVE SMOOTH",
"108 138 OFFCURVE",
"323 -14 OFFCURVE",
"636 -14 CURVE SMOOTH"
);
}
);
width = 957;
},
{
anchors = (
{
name = bottom;
position = "{694, 0}";
},
{
name = top;
position = "{697, 1230}";
}
);
color = -1;
layerId = "8B6491DC-016F-4A51-999B-1E64B7342710";
paths = (
{
closed = 1;
nodes = (
"911 -16 OFFCURVE",
"1022 -3 OFFCURVE",
"1099 17 CURVE",
"1099 346 LINE",
"1028 329 OFFCURVE",
"939 315 OFFCURVE",
"861 315 CURVE SMOOTH",
"609 315 OFFCURVE",
"512 403 OFFCURVE",
"512 594 CURVE SMOOTH",
"512 785 OFFCURVE",
"614 875 OFFCURVE",
"870 875 CURVE SMOOTH",
"952 875 OFFCURVE",
"1029 866 OFFCURVE",
"1099 855 CURVE",
"1099 1184 LINE",
"1016 1199 OFFCURVE",
"921 1206 OFFCURVE",
"829 1206 CURVE SMOOTH",
"329 1206 OFFCURVE",
"60 976 OFFCURVE",
"60 592 CURVE SMOOTH",
"60 187 OFFCURVE",
"319 -16 OFFCURVE",
"815 -16 CURVE SMOOTH"
);
}
);
width = 1154;
}
);
leftKerningGroup = o.sc;
rightKerningGroup = c.sc;
},
{
glyphname = d.sc;
layers = (
{
anchors = (
{
name = bottom;
position = "{556, 0}";
},
{
name = center;
position = "{607, 594}";
},
{
name = stroke;
position = "{192, 608}";
},
{
name = top;
position = "{556, 1230}";
}
);
color = -1;
layerId = "2E34DD21-04BD-4163-9BA5-2EB18B4FEFA3";
paths = (
{
closed = 1;
nodes = (
"871 -8 OFFCURVE",
"1085 178 OFFCURVE",
"1085 594 CURVE SMOOTH",
"1085 1006 OFFCURVE",
"880 1202 OFFCURVE",
"486 1202 CURVE SMOOTH",
"392 1202 OFFCURVE",
"286 1192 OFFCURVE",
"192 1174 CURVE",
"192 8 LINE",
"292 -4 OFFCURVE",
"376 -8 OFFCURVE",
"464 -8 CURVE SMOOTH"
);
},
{
closed = 1;
nodes = (
"393 56 OFFCURVE",
"324 59 OFFCURVE",
"260 68 CURVE",
"260 1119 LINE",
"324 1130 OFFCURVE",
"408 1138 OFFCURVE",
"484 1138 CURVE SMOOTH",
"841 1138 OFFCURVE",
"1013 970 OFFCURVE",
"1013 595 CURVE SMOOTH",
"1013 216 OFFCURVE",
"833 56 OFFCURVE",
"473 56 CURVE SMOOTH"
);
}
);
width = 1193;
},
{
anchors = (
{
name = bottom;
position = "{661, 0}";
},
{
name = center;
position = "{705, 594}";
},
{
name = stroke;
position = "{111, 608}";
},
{
name = top;
position = "{640, 1230}";
}
);
color = -1;
layerId = "8B6491DC-016F-4A51-999B-1E64B7342710";
paths = (
{
closed = 1;
nodes = (
"1080 -15 OFFCURVE",
"1354 164 OFFCURVE",
"1354 594 CURVE SMOOTH",
"1354 1014 OFFCURVE",
"1095 1205 OFFCURVE",
"582 1205 CURVE SMOOTH",
"426 1205 OFFCURVE",
"244 1185 OFFCURVE",
"111 1155 CURVE",
"111 6 LINE",
"233 -8 OFFCURVE",
"393 -15 OFFCURVE",
"520 -15 CURVE SMOOTH"
);
},
{
closed = 1;
nodes = (
"606 309 OFFCURVE",
"577 309 OFFCURVE",
"542 311 CURVE",
"542 874 LINE",
"565 878 OFFCURVE",
"600 881 OFFCURVE",
"626 881 CURVE SMOOTH",
"814 881 OFFCURVE",
"918 811 OFFCURVE",
"918 596 CURVE SMOOTH",
"918 381 OFFCURVE",
"824 309 OFFCURVE",
"631 309 CURVE SMOOTH"
);
}
);
width = 1414;
}
);
leftKerningGroup = h.sc;
rightKerningGroup = o.sc;
},
{
glyphname = e.sc;
layers = (
{
anchors = (
{
name = bottom;
position = "{576, 0}";
},
{
name = ogonek;
position = "{929, 0}";
},
{
name = top;
position = "{574, 1230}";
},
{
name = topleft;
position = "{66, 1190}";
}
);
color = -1;
layerId = "2E34DD21-04BD-4163-9BA5-2EB18B4FEFA3";
paths = (
{
closed = 1;
nodes = (
"929 0 LINE",
"929 64 LINE",
"260 64 LINE",
"260 1126 LINE",
"920 1126 LINE",
"920 1190 LINE",
"192 1190 LINE",
"192 0 LINE"
);
},
{
closed = 1;
nodes = (
"839 579 LINE",
"839 643 LINE",
"240 643 LINE",
"240 579 LINE"
);
}
);
width = 1001;
},
{
anchors = (
{
name = bottom;
position = "{632, 0}";
},
{
name = ogonek;
position = "{1123, 0}";
},
{
name = top;
position = "{632, 1230}";
},
{
name = topleft;
position = "{63, 1190}";
}
);
color = -1;
layerId = "8B6491DC-016F-4A51-999B-1E64B7342710";
paths = (
{
closed = 1;
nodes = (
"1123 0 LINE",
"1123 308 LINE",
"532 308 LINE",
"532 882 LINE",
"1115 882 LINE",
"1115 1190 LINE",
"111 1190 LINE",
"111 0 LINE"
);
},
{
closed = 1;
nodes = (
"1024 449 LINE",
"1024 757 LINE",
"361 757 LINE",
"361 449 LINE"
);
}
);
width = 1197;
}
);
leftKerningGroup = h.sc;
rightKerningGroup = e.sc;
},
{
glyphname = schwa.sc;
layers = (
{
anchors = (
{
name = bottom;
position = "{595, 0}";
},
{
name = top;
position = "{595, 1230}";
}
);
color = -1;
layerId = "2E34DD21-04BD-4163-9BA5-2EB18B4FEFA3";
paths = (
{
closed = 1;
nodes = (
"885 -14 OFFCURVE",
"1085 155 OFFCURVE",
"1085 591 CURVE SMOOTH",
"1085 1034 OFFCURVE",
"862 1204 OFFCURVE",
"488 1204 CURVE SMOOTH",
"378 1204 OFFCURVE",
"271 1194 OFFCURVE",
"161 1167 CURVE",
"161 1099 LINE",
"269 1128 OFFCURVE",
"388 1140 OFFCURVE",
"486 1140 CURVE SMOOTH",
"828 1140 OFFCURVE",
"1013 1002 OFFCURVE",
"1013 591 CURVE SMOOTH",
"1013 187 OFFCURVE",
"846 50 OFFCURVE",
"595 50 CURVE SMOOTH",
"333 50 OFFCURVE",
"170 188 OFFCURVE",
"170 592 CURVE",
"141 567 LINE",
"1041 567 LINE",
"1041 631 LINE",
"98 631 LINE",
"98 589 LINE SMOOTH",
"98 155 OFFCURVE",
"296 -14 OFFCURVE",
"595 -14 CURVE SMOOTH"
);
}
);
width = 1193;
},
{
anchors = (
{
name = bottom;
position = "{726, 0}";
},
{
name = top;
position = "{726, 1230}";
}
);
color = -1;
layerId = "8B6491DC-016F-4A51-999B-1E64B7342710";
paths = (
{
closed = 1;
nodes = (
"1115 -16 OFFCURVE",
"1375 208 OFFCURVE",
"1375 576 CURVE SMOOTH",
"1375 998 OFFCURVE",
"1106 1206 OFFCURVE",
"537 1206 CURVE SMOOTH",
"419 1206 OFFCURVE",
"267 1195 OFFCURVE",
"146 1173 CURVE",
"146 850 LINE",
"254 872 OFFCURVE",
"391 887 OFFCURVE",
"518 887 CURVE SMOOTH",
"817 887 OFFCURVE",
"957 809 OFFCURVE",
"957 568 CURVE SMOOTH",
"957 351 OFFCURVE",
"893 286 OFFCURVE",
"727 286 CURVE SMOOTH",
"543 286 OFFCURVE",
"483 363 OFFCURVE",
"483 568 CURVE",
"338 433 LINE",
"1083 433 LINE",
"1083 705 LINE",
"50 705 LINE",
"50 587 LINE SMOOTH",
"50 194 OFFCURVE",
"322 -16 OFFCURVE",
"721 -16 CURVE SMOOTH"
);
}
);
width = 1435;
}
);
leftKerningGroup = o.sc;
rightKerningGroup = o.sc;
},
{
glyphname = f.sc;
layers = (
{
color = -1;
layerId = "2E34DD21-04BD-4163-9BA5-2EB18B4FEFA3";
paths = (
{
closed = 1;
nodes = (
"260 0 LINE",
"260 1126 LINE",
"911 1126 LINE",
"911 1190 LINE",
"192 1190 LINE",
"192 0 LINE"
);
},
{
closed = 1;
nodes = (
"830 577 LINE",
"830 641 LINE",
"249 641 LINE",
"249 577 LINE"
);
}
);
width = 962;
},
{
color = -1;
layerId = "8B6491DC-016F-4A51-999B-1E64B7342710";
paths = (
{
closed = 1;
nodes = (
"542 0 LINE",
"542 872 LINE",
"1117 872 LINE",
"1117 1190 LINE",
"111 1190 LINE",
"111 0 LINE"
);
},
{
closed = 1;
nodes = (
"1025 395 LINE",
"1025 713 LINE",
"375 713 LINE",
"375 395 LINE"
);
}
);
width = 1160;
}
);
leftKerningGroup = h.sc;
rightKerningGroup = f.sc;
},
{
glyphname = g.sc;
layers = (
{
anchors = (
{
name = bottom;
position = "{618, 0}";
},
{
name = top;
position = "{618, 1230}";
}
);
color = -1;
layerId = "2E34DD21-04BD-4163-9BA5-2EB18B4FEFA3";
paths = (
{
closed = 1;
nodes = (
"802 -8 OFFCURVE",
"889 -2 OFFCURVE",
"985 14 CURVE",
"985 578 LINE",
"917 578 LINE",
"917 42 LINE",
"941 75 LINE",
"875 61 OFFCURVE",
"795 55 OFFCURVE",
"718 55 CURVE SMOOTH",
"362 55 OFFCURVE",
"180 209 OFFCURVE",
"180 595 CURVE SMOOTH",
"180 999 OFFCURVE",
"380 1140 OFFCURVE",
"678 1140 CURVE SMOOTH",
"767 1140 OFFCURVE",
"854 1129 OFFCURVE",
"960 1099 CURVE",
"960 1167 LINE",
"874 1191 OFFCURVE",
"776 1204 OFFCURVE",
"678 1204 CURVE SMOOTH",
"342 1204 OFFCURVE",
"108 1035 OFFCURVE",
"108 594 CURVE SMOOTH",
"108 169 OFFCURVE",
"320 -8 OFFCURVE",
"718 -8 CURVE SMOOTH"
);
}
);
width = 1152;
},
{
anchors = (
{
name = bottom;
position = "{754, 0}";
},
{
name = top;
position = "{754, 1230}";
}
);
color = -1;
layerId = "8B6491DC-016F-4A51-999B-1E64B7342710";
paths = (
{
closed = 1;
nodes = (
"980 -18 OFFCURVE",
"1104 -6 OFFCURVE",
"1216 12 CURVE",
"1216 578 LINE",
"820 578 LINE",
"820 176 LINE",
"1005 321 LINE",
"954 315 OFFCURVE",
"883 310 OFFCURVE",
"827 310 CURVE SMOOTH",
"611 310 OFFCURVE",
"508 403 OFFCURVE",
"508 585 CURVE SMOOTH",
"508 782 OFFCURVE",
"612 875 OFFCURVE",
"927 875 CURVE SMOOTH",
"1015 875 OFFCURVE",
"1101 865 OFFCURVE",
"1172 852 CURVE",
"1172 1181 LINE",
"1090 1198 OFFCURVE",
"989 1206 OFFCURVE",
"885 1206 CURVE SMOOTH",
"327 1206 OFFCURVE",
"60 969 OFFCURVE",
"60 591 CURVE SMOOTH",
"60 191 OFFCURVE",
"324 -18 OFFCURVE",
"872 -18 CURVE SMOOTH"
);
}
);
width = 1311;
}
);
leftKerningGroup = o.sc;
rightKerningGroup = g.sc;
},
{
glyphname = h.sc;
layers = (
{
anchors = (
{
name = bottom;
position = "{631, 0}";
},
{
name = center;
position = "{631, 920}";
},
{
name = top;
position = "{631, 1230}";
},
{
name = topleft;
position = "{66, 1190}";
}
);
color = -1;
layerId = "2E34DD21-04BD-4163-9BA5-2EB18B4FEFA3";
paths = (
{
closed = 1;
nodes = (
"260 0 LINE",
"260 580 LINE",
"1002 580 LINE",
"1002 0 LINE",
"1070 0 LINE",
"1070 1190 LINE",
"1002 1190 LINE",
"1002 644 LINE",
"260 644 LINE",
"260 1190 LINE",
"192 1190 LINE",
"192 0 LINE"
);
}
);
width = 1262;
},
{
anchors = (
{
name = bottom;
position = "{722, 0}";
},
{
name = center;
position = "{722, 985}";
},
{
name = top;
position = "{722, 1230}";
},
{
name = topleft;
position = "{61, 1190}";
}
);
color = -1;
layerId = "8B6491DC-016F-4A51-999B-1E64B7342710";
paths = (
{
closed = 1;
nodes = (
"542 0 LINE",
"542 430 LINE",
"900 430 LINE",
"900 0 LINE",
"1331 0 LINE",
"1331 1190 LINE",
"900 1190 LINE",
"900 784 LINE",
"542 784 LINE",
"542 1190 LINE",
"111 1190 LINE",
"111 0 LINE"
);
}
);
width = 1442;
}
);
leftKerningGroup = h.sc;
rightKerningGroup = h.sc;
},
{
glyphname = i.sc;
layers = (
{
anchors = (
{
name = bottom;
position = "{226, 0}";
},
{
name = ogonek;
position = "{260, 0}";
},
{
name = top;
position = "{226, 1230}";
}
);
color = -1;
layerId = "2E34DD21-04BD-4163-9BA5-2EB18B4FEFA3";
paths = (
{
closed = 1;
nodes = (
"260 0 LINE",
"260 1190 LINE",
"192 1190 LINE",
"192 0 LINE"
);
}
);
width = 452;
},
{
anchors = (
{
name = bottom;
position = "{326, 0}";
},
{
name = ogonek;
position = "{542, 0}";
},
{
name = top;
position = "{327, 1230}";
}
);
color = -1;
layerId = "8B6491DC-016F-4A51-999B-1E64B7342710";
paths = (
{
closed = 1;
nodes = (
"542 0 LINE",
"542 1190 LINE",
"111 1190 LINE",
"111 0 LINE"
);
}
);
width = 653;
}
);
leftKerningGroup = h.sc;
rightKerningGroup = h.sc;
},
{
glyphname = j.sc;
layers = (
{
anchors = (
{
name = bottom;
position = "{302, 0}";
},
{
name = top;
position = "{226, 1230}";
}
);
color = -1;
layerId = "2E34DD21-04BD-4163-9BA5-2EB18B4FEFA3";
paths = (
{
closed = 1;
nodes = (
"204 -114 OFFCURVE",
"260 9.5 OFFCURVE",
"260 207 CURVE SMOOTH",
"260 1190 LINE",
"192 1190 LINE",
"192 230 LINE SMOOTH",
"192 28.5 OFFCURVE",
"142.5 -92.5 OFFCURVE",
"30 -239 CURVE",
"78 -274 LINE"
);
}
);
width = 452;
},
{
anchors = (
{
name = bottom;
position = "{534, 0}";
},
{
name = top;
position = "{327, 1230}";
}
);
color = -1;
layerId = "8B6491DC-016F-4A51-999B-1E64B7342710";
paths = (
{
closed = 1;
nodes = (
"475 -109 OFFCURVE",
"542 64 OFFCURVE",
"542 268 CURVE SMOOTH",
"542 1190 LINE",
"111 1190 LINE",
"111 248 LINE SMOOTH",
"111 88 OFFCURVE",
"88 -7 OFFCURVE",
"0 -117 CURVE",
"271 -287 LINE"
);
}
);
width = 653;
}
);
leftKerningGroup = h.sc;
rightKerningGroup = h.sc;
},
{
glyphname = k.sc;
layers = (
{
anchors = (
{
name = bottom;
position = "{561, 0}";
},
{
name = top;
position = "{561, 1230}";
}
);
color = -1;
layerId = "2E34DD21-04BD-4163-9BA5-2EB18B4FEFA3";
paths = (
{
closed = 1;
nodes = (
"1058 0 LINE",
"521 624 LINE",
"521 601 LINE",
"1022 1190 LINE",
"939 1190 LINE",
"447 609 LINE",
"973 0 LINE"
);
},
{
closed = 1;
nodes = (
"260 0 LINE",
"260 1190 LINE",
"192 1190 LINE",
"192 0 LINE"
);
},
{
closed = 1;
nodes = (
"490 580 LINE",
"490 644 LINE",
"244 644 LINE",
"244 580 LINE"
);
}
);
width = 1050;
},
{
anchors = (
{
name = bottom;
position = "{675, 0}";
},
{
name = top;
position = "{665, 1230}";
}
);
color = -1;
layerId = "8B6491DC-016F-4A51-999B-1E64B7342710";
paths = (
{
closed = 1;
nodes = (
"1315 0 LINE",
"903 662 LINE",
"895 558 LINE",
"1278 1190 LINE",
"833 1190 LINE",
"477 604 LINE",
"854 0 LINE"
);
},
{
closed = 1;
nodes = (
"542 0 LINE",
"542 1190 LINE",
"111 1190 LINE",
"111 0 LINE"
);
},
{
closed = 1;
nodes = (
"634 428 LINE",
"634 782 LINE",
"486 782 LINE",
"486 428 LINE"
);
}
);
width = 1255;
}
);
leftKerningGroup = h.sc;
rightKerningGroup = k.sc;
},
{
glyphname = l.sc;
layers = (
{
anchors = (
{
name = bottom;
position = "{548, 0}";
},
{
name = caronalt;
position = "{603, 1190}";
},
{
name = periodcentered;
position = "{658, 628}";
},
{
name = slash;
position = "{226, 626}";
},
{
name = top;
position = "{226, 1230}";
}
);
color = -1;
layerId = "2E34DD21-04BD-4163-9BA5-2EB18B4FEFA3";
paths = (
{
closed = 1;
nodes = (
"903 0 LINE",
"903 64 LINE",
"260 64 LINE",
"260 1190 LINE",
"192 1190 LINE",
"192 0 LINE"
);
}
);
width = 918;
},
{
anchors = (
{
name = bottom;
position = "{594, 0}";
},
{
name = caronalt;
position = "{733, 1190}";
},
{
name = periodcentered;
position = "{846, 756}";
},
{
name = slash;
position = "{331, 700}";
},
{
name = top;
position = "{331, 1230}";
}
);
color = -1;
layerId = "8B6491DC-016F-4A51-999B-1E64B7342710";
paths = (
{
closed = 1;
nodes = (
"1078 0 LINE",
"1078 331 LINE",
"542 331 LINE",
"542 1190 LINE",
"111 1190 LINE",
"111 0 LINE"
);
}
);
width = 1088;
}
);
leftKerningGroup = h.sc;
rightKerningGroup = l.sc;
},
{
glyphname = ldot.sc;
layers = (
{
anchors = (
{
name = bottom;
position = "{548, 0}";
},
{
name = caronalt;
position = "{603, 1190}";
},
{
name = periodcentered;
position = "{658, 628}";
},
{
name = slash;
position = "{226, 626}";
},
{
name = top;
position = "{226, 1230}";
}
);
color = -1;
layerId = "2E34DD21-04BD-4163-9BA5-2EB18B4FEFA3";
paths = (
{
closed = 1;
nodes = (
"903 0 LINE",
"903 64 LINE",
"260 64 LINE",
"260 1190 LINE",
"192 1190 LINE",
"192 0 LINE"
);
},
{
closed = 1;
nodes = (
"694 564 OFFCURVE",
"720 588 OFFCURVE",
"720 626 CURVE SMOOTH",
"720 664 OFFCURVE",
"694 690 OFFCURVE",
"658 690 CURVE SMOOTH",
"622 690 OFFCURVE",
"596 664 OFFCURVE",
"596 626 CURVE SMOOTH",
"596 588 OFFCURVE",
"622 564 OFFCURVE",
"658 564 CURVE SMOOTH"
);
}
);
width = 918;
},
{
anchors = (
{
name = bottom;
position = "{594, 0}";
},
{
name = caronalt;
position = "{733, 1190}";
},
{
name = periodcentered;
position = "{846, 756}";
},
{
name = slash;
position = "{331, 700}";
},
{
name = top;
position = "{331, 1230}";
}
);
color = -1;
layerId = "8B6491DC-016F-4A51-999B-1E64B7342710";
paths = (
{
closed = 1;
nodes = (
"1078 0 LINE",
"1078 331 LINE",
"542 331 LINE",
"542 1190 LINE",
"111 1190 LINE",
"111 0 LINE"
);
},
{
closed = 1;
nodes = (
"1014 556.5 OFFCURVE",
"1088.5 628.5 OFFCURVE",
"1088.5 756 CURVE SMOOTH",
"1088.5 883.5 OFFCURVE",
"1014 955.5 OFFCURVE",
"846 955.5 CURVE SMOOTH",
"678 955.5 OFFCURVE",
"603.5 883.5 OFFCURVE",
"603.5 756 CURVE SMOOTH",
"603.5 628.5 OFFCURVE",
"678 556.5 OFFCURVE",
"846 556.5 CURVE SMOOTH"
);
}
);
width = 1088;
}
);
leftKerningGroup = h.sc;
rightKerningGroup = l.sc;
},
{
glyphname = m.sc;
layers = (
{
anchors = (
{
name = bottom;
position = "{760, 0}";
},
{
name = top;
position = "{760, 1230}";
}
);
color = -1;
layerId = "2E34DD21-04BD-4163-9BA5-2EB18B4FEFA3";
paths = (
{
closed = 1;
nodes = (
"261 0 LINE",
"261 1130 LINE",
"227 1130 LINE",
"722 162 LINE",
"794 162 LINE",
"1285 1131 LINE",
"1255 1131 LINE",
"1255 0 LINE",
"1321 0 LINE",
"1321 1190 LINE",
"1244 1190 LINE",
"746 198 LINE",
"773 198 LINE",
"272 1190 LINE",
"196 1190 LINE",
"196 0 LINE"
);
}
);
width = 1517;
},
{
anchors = (
{
name = bottom;
position = "{918, 0}";
},
{
name = top;
position = "{918, 1230}";
}
);
color = -1;
layerId = "8B6491DC-016F-4A51-999B-1E64B7342710";
paths = (
{
closed = 1;
nodes = (
"510 0 LINE",
"510 828 LINE",
"423 828 LINE",
"721 180 LINE",
"1056 180 LINE",
"1335 828 LINE",
"1267 828 LINE",
"1267 0 LINE",
"1662 0 LINE",
"1662 1190 LINE",
"1143 1190 LINE",
"876 556 LINE",
"914 556 LINE",
"634 1190 LINE",
"115 1190 LINE",
"115 0 LINE"
);
}
);
width = 1777;
}
);
leftKerningGroup = h.sc;
rightKerningGroup = h.sc;
},
{
glyphname = n.sc;
layers = (
{
anchors = (
{
name = bottom;
position = "{643, 0}";
},
{
name = top;
position = "{643, 1230}";
}
);
color = -1;
layerId = "2E34DD21-04BD-4163-9BA5-2EB18B4FEFA3";
paths = (
{
closed = 1;
nodes = (
"258 0 LINE",
"258 1120 LINE",
"232 1120 LINE",
"1021 0 LINE",
"1095 0 LINE",
"1095 1190 LINE",
"1029 1190 LINE",
"1029 70 LINE",
"1054 70 LINE",
"265 1190 LINE",
"192 1190 LINE",
"192 0 LINE"
);
}
);
width = 1287;
},
{
anchors = (
{
name = bottom;
position = "{724, 0}";
},
{
name = top;
position = "{724, 1230}";
}
);
color = -1;
layerId = "8B6491DC-016F-4A51-999B-1E64B7342710";
paths = (
{
closed = 1;
nodes = (
"508 0 LINE",
"508 666 LINE",
"453 666 LINE",
"918 0 LINE",
"1338 0 LINE",
"1338 1190 LINE",
"941 1190 LINE",
"941 524 LINE",
"997 524 LINE",
"532 1190 LINE",
"111 1190 LINE",
"111 0 LINE"
);
}
);
width = 1449;
}
);
leftKerningGroup = h.sc;
rightKerningGroup = h.sc;
},
{
glyphname = eng.sc;
layers = (
{
color = -1;
layerId = "2E34DD21-04BD-4163-9BA5-2EB18B4FEFA3";
paths = (
{
closed = 1;
nodes = (
"258 0 LINE",
"258 1120 LINE",
"232 1120 LINE",
"1040.5 -28 LINE",
"1054 70 LINE",
"265 1190 LINE",
"192 1190 LINE",
"192 0 LINE"
);
},
{
closed = 1;
nodes = (
"1041 -300 OFFCURVE",
"1095 -166 OFFCURVE",
"1095 21 CURVE SMOOTH",
"1095 1190 LINE",
"1029 1190 LINE",
"1029 44 LINE SMOOTH",
"1029 -147 OFFCURVE",
"980 -280 OFFCURVE",
"867 -425 CURVE",
"915 -460 LINE"
);
}
);
width = 1287;
},
{
color = -1;
layerId = "8B6491DC-016F-4A51-999B-1E64B7342710";
paths = (
{
closed = 1;
nodes = (
"508 0 LINE",
"508 666 LINE",
"453 666 LINE",
"949 -45 LINE",
"997 524 LINE",
"532 1190 LINE",
"111 1190 LINE",
"111 0 LINE"
);
},
{
closed = 1;
nodes = (
"1291 -298 OFFCURVE",
"1338 -125 OFFCURVE",
"1338 79 CURVE SMOOTH",
"1338 1190 LINE",
"941 1190 LINE",
"941 59 LINE SMOOTH",
"941 -101 OFFCURVE",
"915 -196 OFFCURVE",
"827 -306 CURVE",
"1087 -476 LINE"
);
}
);
width = 1449;
}
);
leftKerningGroup = h.sc;
rightKerningGroup = h.sc;
},
{
glyphname = o.sc;
layers = (
{
anchors = (
{
name = bottom;
position = "{596, 0}";
},
{
name = center;
position = "{596, 594}";
},
{
name = ogonek;
position = "{716, 0}";
},
{
name = top;
position = "{596, 1230}";
},
{
name = topleft;
position = "{46, 1190}";
},
{
name = topright;
position = "{734, 1190}";
}
);
color = -1;
layerId = "2E34DD21-04BD-4163-9BA5-2EB18B4FEFA3";
paths = (
{
closed = 1;
nodes = (
"887 -14 OFFCURVE",
"1084 159 OFFCURVE",
"1084 594 CURVE SMOOTH",
"1084 1031 OFFCURVE",
"889 1204 OFFCURVE",
"596 1204 CURVE SMOOTH",
"307 1204 OFFCURVE",
"108 1031 OFFCURVE",
"108 594 CURVE SMOOTH",
"108 159 OFFCURVE",
"304 -14 OFFCURVE",
"596 -14 CURVE SMOOTH"
);
},
{
closed = 1;
nodes = (
"348 50 OFFCURVE",
"180 190 OFFCURVE",
"180 598 CURVE SMOOTH",
"180 1000 OFFCURVE",
"348 1140 OFFCURVE",
"596 1140 CURVE SMOOTH",
"845 1140 OFFCURVE",
"1014 1000 OFFCURVE",
"1014 592 CURVE SMOOTH",
"1014 190 OFFCURVE",
"845 50 OFFCURVE",
"596 50 CURVE SMOOTH"
);
}
);
width = 1192;
},
{
anchors = (
{
name = bottom;
position = "{734, 0}";
},
{
name = center;
position = "{734, 594}";
},
{
name = ogonek;
position = "{978, 0}";
},
{
name = top;
position = "{734, 1230}";
},
{
name = topleft;
position = "{54, 1190}";
},
{
name = topright;
position = "{919, 1190}";
}
);
color = -1;
layerId = "8B6491DC-016F-4A51-999B-1E64B7342710";
paths = (
{
closed = 1;
nodes = (
"1144 -16 OFFCURVE",
"1409 202 OFFCURVE",
"1409 594 CURVE SMOOTH",
"1409 988 OFFCURVE",
"1144 1206 OFFCURVE",
"734 1206 CURVE SMOOTH",
"324 1206 OFFCURVE",
"60 989 OFFCURVE",
"60 594 CURVE SMOOTH",
"60 200 OFFCURVE",
"325 -16 OFFCURVE",
"734 -16 CURVE SMOOTH"
);
},
{
closed = 1;
nodes = (
"577 306 OFFCURVE",
"499 395 OFFCURVE",
"499 602 CURVE SMOOTH",
"499 795 OFFCURVE",
"580 884 OFFCURVE",
"734 884 CURVE SMOOTH",
"889 884 OFFCURVE",
"970 792 OFFCURVE",
"970 588 CURVE SMOOTH",
"970 398 OFFCURVE",
"892 306 OFFCURVE",
"734 306 CURVE SMOOTH"
);
}
);
width = 1469;
}
);
leftKerningGroup = o.sc;
rightKerningGroup = o.sc;
},
{
glyphname = ohorn.sc;
layers = (
{
anchors = (
{
name = bottom;
position = "{596, 0}";
},
{
name = top;
position = "{596, 1230}";
}
);
color = -1;
layerId = "2E34DD21-04BD-4163-9BA5-2EB18B4FEFA3";
paths = (
{
closed = 1;
nodes = (
"887 -14 OFFCURVE",
"1084 154 OFFCURVE",
"1084 594 CURVE SMOOTH",
"1084 885 OFFCURVE",
"996 1058 OFFCURVE",
"853 1141 CURVE",
"853 1126 LINE",
"998 1126 OFFCURVE",
"1085 1194 OFFCURVE",
"1085 1312 CURVE SMOOTH",
"1085 1360 OFFCURVE",
"1077 1390 OFFCURVE",
"1064 1428 CURVE",
"1002 1428 LINE",
"1014 1390 OFFCURVE",
"1023 1358 OFFCURVE",
"1023 1314 CURVE SMOOTH",
"1023 1225 OFFCURVE",
"957 1185 OFFCURVE",
"854 1185 CURVE SMOOTH",
"755 1185 OFFCURVE",
"683 1204 OFFCURVE",
"596 1204 CURVE SMOOTH",
"307 1204 OFFCURVE",
"108 1031 OFFCURVE",
"108 594 CURVE SMOOTH",
"108 159 OFFCURVE",
"305 -14 OFFCURVE",
"596 -14 CURVE SMOOTH"
);
},
{
closed = 1;
nodes = (
"348 50 OFFCURVE",
"180 190 OFFCURVE",
"180 598 CURVE SMOOTH",
"180 1000 OFFCURVE",
"348 1140 OFFCURVE",
"596 1140 CURVE SMOOTH",
"845 1140 OFFCURVE",
"1014 1000 OFFCURVE",
"1014 592 CURVE SMOOTH",
"1014 190 OFFCURVE",
"845 50 OFFCURVE",
"596 50 CURVE SMOOTH"
);
}
);
width = 1192;
},
{
anchors = (
{
name = bottom;
position = "{734, 0}";
},
{
name = top;
position = "{734, 1230}";
}
);
color = -1;
layerId = "8B6491DC-016F-4A51-999B-1E64B7342710";
paths = (
{
closed = 1;
nodes = (
"1144 -16 OFFCURVE",
"1409 202 OFFCURVE",
"1409 594 CURVE SMOOTH",
"1409 828 OFFCURVE",
"1315 1001 OFFCURVE",
"1152 1100 CURVE",
"1121 1021 LINE",
"1302 1021 OFFCURVE",
"1427 1100 OFFCURVE",
"1427 1298 CURVE SMOOTH",
"1427 1338 OFFCURVE",
"1424 1381 OFFCURVE",
"1412 1428 CURVE",
"1139 1428 LINE",
"1148 1379 OFFCURVE",
"1149 1345 OFFCURVE",
"1149 1316 CURVE SMOOTH",
"1149 1220 OFFCURVE",
"1100 1191 OFFCURVE",
"997 1191 CURVE SMOOTH",
"924 1191 OFFCURVE",
"828 1206 OFFCURVE",
"734 1206 CURVE SMOOTH",
"324 1206 OFFCURVE",
"60 989 OFFCURVE",
"60 594 CURVE SMOOTH",
"60 200 OFFCURVE",
"325 -16 OFFCURVE",
"734 -16 CURVE SMOOTH"
);
},
{
closed = 1;
nodes = (
"577 306 OFFCURVE",
"499 395 OFFCURVE",
"499 602 CURVE SMOOTH",
"499 795 OFFCURVE",
"580 884 OFFCURVE",
"734 884 CURVE SMOOTH",
"889 884 OFFCURVE",
"970 792 OFFCURVE",
"970 588 CURVE SMOOTH",
"970 398 OFFCURVE",
"892 306 OFFCURVE",
"734 306 CURVE SMOOTH"
);
}
);
width = 1469;
}
);
leftKerningGroup = o.sc;
rightKerningGroup = o.sc;
},
{
glyphname = ohorntilde.sc;
layers = (
{
color = -1;
layerId = "2E34DD21-04BD-4163-9BA5-2EB18B4FEFA3";
paths = (
{
closed = 1;
nodes = (
"887 -14 OFFCURVE",
"1084 154 OFFCURVE",
"1084 594 CURVE SMOOTH",
"1084 885 OFFCURVE",
"996 1058 OFFCURVE",
"853 1141 CURVE",
"853 1126 LINE",
"998 1126 OFFCURVE",
"1085 1194 OFFCURVE",
"1085 1312 CURVE SMOOTH",
"1085 1360 OFFCURVE",
"1077 1390 OFFCURVE",
"1064 1428 CURVE",
"1002 1428 LINE",
"1014 1390 OFFCURVE",
"1023 1358 OFFCURVE",
"1023 1314 CURVE SMOOTH",
"1023 1225 OFFCURVE",
"957 1185 OFFCURVE",
"854 1185 CURVE SMOOTH",
"755 1185 OFFCURVE",
"683 1204 OFFCURVE",
"596 1204 CURVE SMOOTH",
"307 1204 OFFCURVE",
"108 1031 OFFCURVE",
"108 594 CURVE SMOOTH",
"108 159 OFFCURVE",
"305 -14 OFFCURVE",
"596 -14 CURVE SMOOTH"
);
},
{
closed = 1;
nodes = (
"348 50 OFFCURVE",
"180 190 OFFCURVE",
"180 598 CURVE SMOOTH",
"180 1000 OFFCURVE",
"348 1140 OFFCURVE",
"596 1140 CURVE SMOOTH",
"845 1140 OFFCURVE",
"1014 1000 OFFCURVE",
"1014 592 CURVE SMOOTH",
"1014 190 OFFCURVE",
"845 50 OFFCURVE",
"596 50 CURVE SMOOTH"
);
},
{
closed = 1;
nodes = (
"809 1407 OFFCURVE",
"860 1429 OFFCURVE",
"895 1468 CURVE",
"895 1535 LINE",
"852 1487 OFFCURVE",
"806 1464 OFFCURVE",
"740 1464 CURVE SMOOTH",
"648 1464 OFFCURVE",
"564 1540 OFFCURVE",
"452 1540 CURVE SMOOTH",
"383 1540 OFFCURVE",
"332 1518 OFFCURVE",
"297 1479 CURVE",
"297 1412 LINE",
"340 1460 OFFCURVE",
"386 1483 OFFCURVE",
"452 1483 CURVE SMOOTH",
"544 1483 OFFCURVE",
"628 1407 OFFCURVE",
"740 1407 CURVE SMOOTH"
);
}
);
width = 1192;
},
{
color = -1;
layerId = "8B6491DC-016F-4A51-999B-1E64B7342710";
paths = (
{
closed = 1;
nodes = (
"1144 -16 OFFCURVE",
"1409 202 OFFCURVE",
"1409 594 CURVE SMOOTH",
"1409 828 OFFCURVE",
"1315 1001 OFFCURVE",
"1152 1100 CURVE",
"1121 1021 LINE",
"1302 1021 OFFCURVE",
"1427 1100 OFFCURVE",
"1427 1298 CURVE SMOOTH",
"1427 1338 OFFCURVE",
"1424 1381 OFFCURVE",
"1412 1428 CURVE",
"1139 1428 LINE",
"1148 1379 OFFCURVE",
"1149 1345 OFFCURVE",
"1149 1316 CURVE SMOOTH",
"1149 1220 OFFCURVE",
"1100 1191 OFFCURVE",
"997 1191 CURVE SMOOTH",
"924 1191 OFFCURVE",
"828 1206 OFFCURVE",
"734 1206 CURVE SMOOTH",
"324 1206 OFFCURVE",
"60 989 OFFCURVE",
"60 594 CURVE SMOOTH",
"60 200 OFFCURVE",
"325 -16 OFFCURVE",
"734 -16 CURVE SMOOTH"
);
},
{
closed = 1;
nodes = (
"577 306 OFFCURVE",
"499 395 OFFCURVE",
"499 602 CURVE SMOOTH",
"499 795 OFFCURVE",
"580 884 OFFCURVE",
"734 884 CURVE SMOOTH",
"889 884 OFFCURVE",
"970 792 OFFCURVE",
"970 588 CURVE SMOOTH",
"970 398 OFFCURVE",
"892 306 OFFCURVE",
"734 306 CURVE SMOOTH"
);
},
{
closed = 1;
nodes = (
"992 1296 OFFCURVE",
"1052 1318 OFFCURVE",
"1106.5 1371 CURVE",
"1106.5 1604 LINE",
"1043.5 1557 OFFCURVE",
"989 1534 OFFCURVE",
"908.5 1534 CURVE SMOOTH",
"791 1534 OFFCURVE",
"702 1612 OFFCURVE",
"567 1612 CURVE SMOOTH",
"476 1612 OFFCURVE",
"416 1588 OFFCURVE",
"361.5 1535 CURVE",
"361.5 1302 LINE",
"424.5 1349 OFFCURVE",
"479 1372 OFFCURVE",
"559.5 1372 CURVE SMOOTH",
"677 1372 OFFCURVE",
"766 1296 OFFCURVE",
"901 1296 CURVE SMOOTH"
);
}
);
width = 1469;
}
);
leftKerningGroup = o.sc;
rightKerningGroup = o.sc;
},
{
glyphname = oogonek.sc;
layers = (
{
anchors = (
{
name = top;
position = "{596, 1230}";
}
);
color = -1;
layerId = "2E34DD21-04BD-4163-9BA5-2EB18B4FEFA3";
paths = (
{
closed = 1;
nodes = (
"729 -400 OFFCURVE",
"785 -387 OFFCURVE",
"841 -361 CURVE",
"841 -307 LINE",
"771 -336 OFFCURVE",
"723 -348 OFFCURVE",
"671 -348 CURVE SMOOTH",
"573 -348 OFFCURVE",
"521 -307 OFFCURVE",
"521 -228 CURVE SMOOTH",
"521 -144 OFFCURVE",
"569 -60 OFFCURVE",
"775 14 CURVE SMOOTH",
"962 78 OFFCURVE",
"1084 254 OFFCURVE",
"1084 594 CURVE SMOOTH",
"1084 1031 OFFCURVE",
"889 1204 OFFCURVE",
"596 1204 CURVE SMOOTH",
"307 1204 OFFCURVE",
"108 1031 OFFCURVE",
"108 594 CURVE SMOOTH",
"108 159 OFFCURVE",
"304 -14 OFFCURVE",
"596 -14 CURVE SMOOTH",
"630 -14 LINE",
"622 0 LINE",
"514 -61 OFFCURVE",
"465 -140 OFFCURVE",
"465 -231 CURVE SMOOTH",
"465 -339 OFFCURVE",
"540 -400 OFFCURVE",
"674 -400 CURVE SMOOTH"
);
},
{
closed = 1;
nodes = (
"348 50 OFFCURVE",
"180 190 OFFCURVE",
"180 598 CURVE SMOOTH",
"180 1000 OFFCURVE",
"348 1140 OFFCURVE",
"596 1140 CURVE SMOOTH",
"845 1140 OFFCURVE",
"1014 1000 OFFCURVE",
"1014 592 CURVE SMOOTH",
"1014 190 OFFCURVE",
"845 50 OFFCURVE",
"596 50 CURVE SMOOTH"
);
}
);
width = 1192;
},
{
anchors = (
{
name = top;
position = "{734, 1230}";
}
);
color = -1;
layerId = "8B6491DC-016F-4A51-999B-1E64B7342710";
paths = (
{
closed = 1;
nodes = (
"887 -460 OFFCURVE",
"946 -448 OFFCURVE",
"1001 -430 CURVE",
"1001 -275 LINE",
"949 -293 OFFCURVE",
"905 -300 OFFCURVE",
"870 -300 CURVE SMOOTH",
"772 -300 OFFCURVE",
"732 -264 OFFCURVE",
"732 -198 CURVE SMOOTH",
"732 -127 OFFCURVE",
"781 -52 OFFCURVE",
"995 19 CURVE SMOOTH",
"1254 101 OFFCURVE",
"1409 292 OFFCURVE",
"1409 594 CURVE SMOOTH",
"1409 988 OFFCURVE",
"1144 1206 OFFCURVE",
"734 1206 CURVE SMOOTH",
"324 1206 OFFCURVE",
"60 989 OFFCURVE",
"60 594 CURVE SMOOTH",
"60 200 OFFCURVE",
"325 -16 OFFCURVE",
"734 -16 CURVE SMOOTH",
"802 -16 LINE",
"818 67 LINE",
"574 -10 OFFCURVE",
"496 -113 OFFCURVE",
"496 -236 CURVE SMOOTH",
"496 -372 OFFCURVE",
"595 -460 OFFCURVE",
"808 -460 CURVE SMOOTH"
);
},
{
closed = 1;
nodes = (
"577 306 OFFCURVE",
"499 395 OFFCURVE",
"499 602 CURVE SMOOTH",
"499 795 OFFCURVE",
"580 884 OFFCURVE",
"734 884 CURVE SMOOTH",
"889 884 OFFCURVE",
"970 792 OFFCURVE",
"970 588 CURVE SMOOTH",
"970 398 OFFCURVE",
"892 306 OFFCURVE",
"734 306 CURVE SMOOTH"
);
}
);
width = 1469;
}
);
leftKerningGroup = o.sc;
rightKerningGroup = o.sc;
},
{
glyphname = oe.sc;
layers = (
{
anchors = (
{
name = bottom;
position = "{940, 0}";
},
{
name = top;
position = "{940, 1230}";
}
);
color = -1;
layerId = "2E34DD21-04BD-4163-9BA5-2EB18B4FEFA3";
paths = (
{
closed = 1;
nodes = (
"804 -8 OFFCURVE",
"888 0 OFFCURVE",
"966 0 CURVE SMOOTH",
"1616 0 LINE",
"1616 64 LINE",
"974 64 LINE",
"974 1126 LINE",
"1608 1126 LINE",
"1608 1190 LINE",
"956 1190 LINE SMOOTH",
"883 1190 OFFCURVE",
"791 1201 OFFCURVE",
"697 1201 CURVE SMOOTH",
"312 1201 OFFCURVE",
"108 1006 OFFCURVE",
"108 594 CURVE SMOOTH",
"108 178 OFFCURVE",
"319 -8 OFFCURVE",
"711 -8 CURVE SMOOTH"
);
},
{
closed = 1;
nodes = (
"360 56 OFFCURVE",
"180 216 OFFCURVE",
"180 594 CURVE SMOOTH",
"180 970 OFFCURVE",
"353 1137 OFFCURVE",
"698 1137 CURVE SMOOTH",
"774 1137 OFFCURVE",
"838 1133 OFFCURVE",
"907 1125 CURVE",
"907 65 LINE",
"850 59 OFFCURVE",
"786 56 OFFCURVE",
"707 56 CURVE SMOOTH"
);
},
{
closed = 1;
nodes = (
"1526 579 LINE",
"1526 643 LINE",
"963 643 LINE",
"963 579 LINE"
);
}
);
width = 1688;
},
{
anchors = (
{
name = bottom;
position = "{1081, 0}";
},
{
name = top;
position = "{1081, 1230}";
}
);
color = -1;
layerId = "8B6491DC-016F-4A51-999B-1E64B7342710";
paths = (
{
closed = 1;
nodes = (
"950 -10 OFFCURVE",
"1058 0 OFFCURVE",
"1153 0 CURVE SMOOTH",
"1853 0 LINE",
"1853 308 LINE",
"1289 308 LINE",
"1289 882 LINE",
"1844 882 LINE",
"1844 1190 LINE",
"1155 1190 LINE SMOOTH",
"1060 1190 OFFCURVE",
"959 1200 OFFCURVE",
"872 1200 CURVE SMOOTH",
"349 1200 OFFCURVE",
"60 1013 OFFCURVE",
"60 594 CURVE SMOOTH",
"60 172 OFFCURVE",
"319 -10 OFFCURVE",
"870 -10 CURVE SMOOTH"
);
},
{
closed = 1;
nodes = (
"591 314 OFFCURVE",
"498 386 OFFCURVE",
"498 593 CURVE SMOOTH",
"498 804 OFFCURVE",
"593 875 OFFCURVE",
"778 875 CURVE SMOOTH",
"804 875 OFFCURVE",
"835 875 OFFCURVE",
"868 874 CURVE",
"868 315 LINE",
"831 314 OFFCURVE",
"797 314 OFFCURVE",
"776 314 CURVE SMOOTH"
);
},
{
closed = 1;
nodes = (
"1753 449 LINE",
"1753 757 LINE",
"1116 757 LINE",
"1116 449 LINE"
);
}
);
width = 1927;
}
);
leftKerningGroup = o.sc;
rightKerningGroup = e.sc;
},
{
glyphname = p.sc;
layers = (
{
color = -1;
layerId = "2E34DD21-04BD-4163-9BA5-2EB18B4FEFA3";
paths = (
{
closed = 1;
nodes = (
"260 0 LINE",
"260 419 LINE",
"319 414 OFFCURVE",
"382 411 OFFCURVE",
"448 411 CURVE SMOOTH",
"807 411 OFFCURVE",
"964 550 OFFCURVE",
"964 807 CURVE SMOOTH",
"964 1079 OFFCURVE",
"797 1202 OFFCURVE",
"486 1202 CURVE SMOOTH",
"380 1202 OFFCURVE",
"289 1192 OFFCURVE",
"192 1174 CURVE",
"192 0 LINE"
);
},
{
closed = 1;
nodes = (
"380 475 OFFCURVE",
"321 479 OFFCURVE",
"260 486 CURVE",
"260 1121 LINE",
"329 1132 OFFCURVE",
"402 1138 OFFCURVE",
"487 1138 CURVE SMOOTH",
"760 1138 OFFCURVE",
"894 1037 OFFCURVE",
"894 805 CURVE SMOOTH",
"894 584 OFFCURVE",
"763 475 OFFCURVE",
"450 475 CURVE SMOOTH"
);
}
);
width = 1065;
},
{
color = -1;
layerId = "8B6491DC-016F-4A51-999B-1E64B7342710";
paths = (
{
closed = 1;
nodes = (
"542 0 LINE",
"542 294 LINE",
"563 294 OFFCURVE",
"589 294 OFFCURVE",
"616 294 CURVE SMOOTH",
"981 294 OFFCURVE",
"1188 448 OFFCURVE",
"1188 749 CURVE SMOOTH",
"1188 1067 OFFCURVE",
"980 1207 OFFCURVE",
"558 1207 CURVE SMOOTH",
"393 1207 OFFCURVE",
"245 1190 OFFCURVE",
"111 1164 CURVE",
"111 0 LINE"
);
},
{
closed = 1;
nodes = (
"591 584 OFFCURVE",
"569 586 OFFCURVE",
"542 589 CURVE",
"542 912 LINE",
"559 914 OFFCURVE",
"581 916 OFFCURVE",
"602 916 CURVE SMOOTH",
"721 916 OFFCURVE",
"773 864 OFFCURVE",
"773 748 CURVE SMOOTH",
"773 625 OFFCURVE",
"721 584 OFFCURVE",
"620 584 CURVE SMOOTH"
);
}
);
width = 1249;
}
);
leftKerningGroup = h.sc;
rightKerningGroup = p.sc;
},
{
glyphname = thorn.sc;
layers = (
{
color = -1;
layerId = "2E34DD21-04BD-4163-9BA5-2EB18B4FEFA3";
paths = (
{
closed = 1;
nodes = (
"260 0 LINE",
"260 224 LINE",
"322 219 OFFCURVE",
"382 216 OFFCURVE",
"448 216 CURVE SMOOTH",
"807 216 OFFCURVE",
"964 356 OFFCURVE",
"964 612 CURVE SMOOTH",
"964 884 OFFCURVE",
"797 1006 OFFCURVE",
"486 1006 CURVE SMOOTH",
"393 1006 OFFCURVE",
"319 998 OFFCURVE",
"260 989 CURVE",
"260 1191 LINE",
"192 1191 LINE",
"192 0 LINE"
);
},
{
closed = 1;
nodes = (
"380 279 OFFCURVE",
"321 282 OFFCURVE",
"260 290 CURVE",
"260 925 LINE",
"329 936 OFFCURVE",
"402 943 OFFCURVE",
"487 943 CURVE SMOOTH",
"760 943 OFFCURVE",
"894 842 OFFCURVE",
"894 609 CURVE SMOOTH",
"894 390 OFFCURVE",
"763 279 OFFCURVE",
"450 279 CURVE SMOOTH"
);
}
);
width = 1075;
},
{
color = -1;
layerId = "8B6491DC-016F-4A51-999B-1E64B7342710";
paths = (
{
closed = 1;
nodes = (
"542 0 LINE",
"542 155 LINE",
"563 155 OFFCURVE",
"591 155 OFFCURVE",
"620 155 CURVE SMOOTH",
"981 155 OFFCURVE",
"1188 309 OFFCURVE",
"1188 611 CURVE SMOOTH",
"1188 928 OFFCURVE",
"982 1068 OFFCURVE",
"565 1068 CURVE SMOOTH",
"559 1068 OFFCURVE",
"550 1068 OFFCURVE",
"542 1068 CURVE",
"542 1190 LINE",
"111 1190 LINE",
"111 0 LINE"
);
},
{
closed = 1;
nodes = (
"591 445 OFFCURVE",
"569 447 OFFCURVE",
"542 450 CURVE",
"542 773 LINE",
"558 775 OFFCURVE",
"579 777 OFFCURVE",
"602 777 CURVE SMOOTH",
"721 777 OFFCURVE",
"773 725 OFFCURVE",
"773 609 CURVE SMOOTH",
"773 486 OFFCURVE",
"721 445 OFFCURVE",
"620 445 CURVE SMOOTH"
);
}
);
width = 1259;
}
);
leftKerningGroup = h.sc;
rightKerningGroup = thorn.sc;
},
{
glyphname = q.sc;
layers = (
{
color = -1;
layerId = "2E34DD21-04BD-4163-9BA5-2EB18B4FEFA3";
paths = (
{
closed = 1;
nodes = (
"1060 -88 LINE",
"879 -74 OFFCURVE",
"667 -44 OFFCURVE",
"524 18 CURVE",
"523 -4 LINE",
"882 -47 OFFCURVE",
"1084 158 OFFCURVE",
"1084 594 CURVE SMOOTH",
"1084 1031 OFFCURVE",
"889 1204 OFFCURVE",
"596 1204 CURVE SMOOTH",
"307 1204 OFFCURVE",
"108 1031 OFFCURVE",
"108 594 CURVE SMOOTH",
"108 105 OFFCURVE",
"324 -80 OFFCURVE",
"1052 -154 CURVE"
);
},
{
closed = 1;
nodes = (
"348 50 OFFCURVE",
"180 190 OFFCURVE",
"180 598 CURVE SMOOTH",
"180 1000 OFFCURVE",
"348 1140 OFFCURVE",
"596 1140 CURVE SMOOTH",
"845 1140 OFFCURVE",
"1014 1000 OFFCURVE",
"1014 592 CURVE SMOOTH",
"1014 190 OFFCURVE",
"845 50 OFFCURVE",
"596 50 CURVE SMOOTH"
);
}
);
width = 1192;
},
{
color = -1;
layerId = "8B6491DC-016F-4A51-999B-1E64B7342710";
paths = (
{
closed = 1;
nodes = (
"1394 -20 LINE",
"1174 10 OFFCURVE",
"965 58 OFFCURVE",
"765 128 CURVE",
"620 31 LINE",
"1155 -45 OFFCURVE",
"1409 208 OFFCURVE",
"1409 594 CURVE SMOOTH",
"1409 988 OFFCURVE",
"1145 1206 OFFCURVE",
"734 1206 CURVE SMOOTH",
"324 1206 OFFCURVE",
"60 990 OFFCURVE",
"60 585 CURVE SMOOTH",
"60 176 OFFCURVE",
"337 -170 OFFCURVE",
"1323 -333 CURVE"
);
},
{
closed = 1;
nodes = (
"577 306 OFFCURVE",
"499 395 OFFCURVE",
"499 602 CURVE SMOOTH",
"499 795 OFFCURVE",
"580 884 OFFCURVE",
"734 884 CURVE SMOOTH",
"889 884 OFFCURVE",
"970 792 OFFCURVE",
"970 588 CURVE SMOOTH",
"970 398 OFFCURVE",
"892 306 OFFCURVE",
"734 306 CURVE SMOOTH"
);
}
);
width = 1469;
}
);
leftKerningGroup = o.sc;
rightKerningGroup = o.sc;
},
{
glyphname = r.sc;
layers = (
{
anchors = (
{
name = bottom;
position = "{598, 0}";
},
{
name = top;
position = "{548, 1230}";
}
);
color = -1;
layerId = "2E34DD21-04BD-4163-9BA5-2EB18B4FEFA3";
paths = (
{
closed = 1;
nodes = (
"260 0 LINE",
"260 525 LINE",
"322 519 OFFCURVE",
"385 517 OFFCURVE",
"455 517 CURVE SMOOTH",
"797 517 OFFCURVE",
"968 634 OFFCURVE",
"966 863 CURVE SMOOTH",
"966 1095 OFFCURVE",
"815 1202 OFFCURVE",
"499 1202 CURVE SMOOTH",
"379 1202 OFFCURVE",
"279 1189 OFFCURVE",
"192 1174 CURVE",
"192 0 LINE"
);
},
{
closed = 1;
nodes = (
"1060 0 LINE",
"592 564 LINE",
"507.5 564 LINE",
"972.5 0 LINE"
);
},
{
closed = 1;
nodes = (
"375 579 OFFCURVE",
"333 582 OFFCURVE",
"260 587 CURVE",
"260 1119 LINE",
"334 1131 OFFCURVE",
"399 1138 OFFCURVE",
"497 1138 CURVE SMOOTH",
"781 1138 OFFCURVE",
"898 1058 OFFCURVE",
"898 860 CURVE SMOOTH",
"898 672 OFFCURVE",
"769 579 OFFCURVE",
"454 579 CURVE SMOOTH"
);
}
);
width = 1147;
},
{
anchors = (
{
name = bottom;
position = "{673, 0}";
},
{
name = top;
position = "{615, 1230}";
}
);
color = -1;
layerId = "8B6491DC-016F-4A51-999B-1E64B7342710";
paths = (
{
closed = 1;
nodes = (
"534 0 LINE",
"534 380 LINE",
"564 378 OFFCURVE",
"593 377 OFFCURVE",
"623 377 CURVE SMOOTH",
"946 377 OFFCURVE",
"1176 519 OFFCURVE",
"1176 790 CURVE SMOOTH",
"1176 1070 OFFCURVE",
"970 1207 OFFCURVE",
"569 1207 CURVE SMOOTH",
"411 1207 OFFCURVE",
"244 1185 OFFCURVE",
"111 1155 CURVE",
"111 0 LINE"
);
},
{
closed = 1;
nodes = (
"1289 0 LINE",
"923 539 LINE",
"470 539 LINE",
"824 0 LINE"
);
},
{
closed = 1;
nodes = (
"592 665 OFFCURVE",
"568 666 OFFCURVE",
"534 669 CURVE",
"534 915 LINE",
"558 920 OFFCURVE",
"593 923 OFFCURVE",
"617 923 CURVE SMOOTH",
"719 923 OFFCURVE",
"776 882 OFFCURVE",
"776 792 CURVE SMOOTH",
"776 702 OFFCURVE",
"725 665 OFFCURVE",
"626 665 CURVE SMOOTH"
);
}
);
width = 1286;
}
);
leftKerningGroup = h.sc;
rightKerningGroup = r.sc;
},
{
glyphname = s.sc;
layers = (
{
anchors = (
{
name = bottom;
position = "{455, 0}";
},
{
name = top;
position = "{455, 1230}";
}
);
color = -1;
layerId = "2E34DD21-04BD-4163-9BA5-2EB18B4FEFA3";
paths = (
{
closed = 1;
nodes = (
"667 -14 OFFCURVE",
"812 106 OFFCURVE",
"812 308 CURVE SMOOTH",
"812 476 OFFCURVE",
"719 570 OFFCURVE",
"481 625 CURVE SMOOTH",
"433 637 LINE SMOOTH",
"225 686 OFFCURVE",
"158 752 OFFCURVE",
"158 894 CURVE SMOOTH",
"158 1049 OFFCURVE",
"267 1140 OFFCURVE",
"498 1140 CURVE SMOOTH",
"586 1140 OFFCURVE",
"673 1128 OFFCURVE",
"762 1101 CURVE",
"762 1169 LINE",
"685 1192 OFFCURVE",
"588 1204 OFFCURVE",
"499 1204 CURVE SMOOTH",
"224 1204 OFFCURVE",
"87 1081 OFFCURVE",
"87 891 CURVE SMOOTH",
"87 717 OFFCURVE",
"184 626 OFFCURVE",
"418 571 CURVE SMOOTH",
"466 559 LINE SMOOTH",
"674 510 OFFCURVE",
"742 443 OFFCURVE",
"742 306 CURVE SMOOTH",
"742 140 OFFCURVE",
"628 50 OFFCURVE",
"395 50 CURVE SMOOTH",
"307 50 OFFCURVE",
"206 65 OFFCURVE",
"102 99 CURVE",
"102 31 LINE",
"195 0 OFFCURVE",
"302 -14 OFFCURVE",
"392 -14 CURVE SMOOTH"
);
}
);
width = 899;
},
{
anchors = (
{
name = bottom;
position = "{539, 0}";
},
{
name = top;
position = "{539, 1230}";
}
);
color = -1;
layerId = "8B6491DC-016F-4A51-999B-1E64B7342710";
paths = (
{
closed = 1;
nodes = (
"865 -16 OFFCURVE",
"1056 154 OFFCURVE",
"1056 384 CURVE SMOOTH",
"1056 586 OFFCURVE",
"936 696 OFFCURVE",
"668 750 CURVE SMOOTH",
"563 770 LINE SMOOTH",
"468 791 OFFCURVE",
"458 805 OFFCURVE",
"458 829 CURVE SMOOTH",
"458 859 OFFCURVE",
"486 886 OFFCURVE",
"678 886 CURVE SMOOTH",
"782 886 OFFCURVE",
"888 873 OFFCURVE",
"979 854 CURVE",
"979 1177 LINE",
"893 1193 OFFCURVE",
"780 1206 OFFCURVE",
"666 1206 CURVE SMOOTH",
"221 1206 OFFCURVE",
"42 1035 OFFCURVE",
"42 805 CURVE SMOOTH",
"42 617 OFFCURVE",
"156 495 OFFCURVE",
"406 446 CURVE SMOOTH",
"511 426 LINE SMOOTH",
"623 403 OFFCURVE",
"640 385 OFFCURVE",
"640 358 CURVE SMOOTH",
"640 327 OFFCURVE",
"616 305 OFFCURVE",
"475 305 CURVE SMOOTH",
"365 305 OFFCURVE",
"207 325 OFFCURVE",
"85 357 CURVE",
"85 34 LINE",
"190 5 OFFCURVE",
"334 -16 OFFCURVE",
"481 -16 CURVE SMOOTH"
);
}
);
width = 1098;
}
);
leftKerningGroup = s.sc;
rightKerningGroup = s.sc;
},
{
glyphname = germandbls.sc;
layers = (
{
color = -1;
layerId = "2E34DD21-04BD-4163-9BA5-2EB18B4FEFA3";
paths = (
{
closed = 1;
nodes = (
"827 1168 OFFCURVE",
"709.5 1204 OFFCURVE",
"567.5 1204 CURVE SMOOTH",
"278 1204 OFFCURVE",
"149 1044.5 OFFCURVE",
"149 765 CURVE SMOOTH",
"149 0 LINE",
"217 0 LINE",
"217 774.5 LINE SMOOTH",
"217 1008.5 OFFCURVE",
"314 1142.5 OFFCURVE",
"566 1142.5 CURVE SMOOTH",
"681 1142.5 OFFCURVE",
"781 1119.5 OFFCURVE",
"864 1066 CURVE",
"866.5 1100 LINE",
"484.5 604 LINE",
"484.5 564.5 LINE",
"542.5 573.5 OFFCURVE",
"589.5 577 OFFCURVE",
"643 577 CURVE SMOOTH",
"832.5 577 OFFCURVE",
"946 488.5 OFFCURVE",
"946 328.5 CURVE SMOOTH",
"946 148.5 OFFCURVE",
"839.5 47.5 OFFCURVE",
"629.5 47.5 CURVE SMOOTH",
"555 47.5 OFFCURVE",
"474.5 61.5 OFFCURVE",
"374 96 CURVE",
"374 31.5 LINE",
"463 0 OFFCURVE",
"550 -14 OFFCURVE",
"630.5 -14 CURVE SMOOTH",
"878 -14 OFFCURVE",
"1016.5 111.5 OFFCURVE",
"1016.5 329 CURVE SMOOTH",
"1016.5 539 OFFCURVE",
"859.5 636.5 OFFCURVE",
"658.5 636.5 CURVE SMOOTH",
"619 636.5 OFFCURVE",
"593.5 635 OFFCURVE",
"561 628.5 CURVE",
"567 612 LINE",
"919 1067 LINE",
"919 1104 LINE"
);
}
);
width = 1103.5;
},
{
color = -1;
layerId = "8B6491DC-016F-4A51-999B-1E64B7342710";
paths = (
{
closed = 1;
nodes = (
"1122.5 1158 OFFCURVE",
"945.5 1206 OFFCURVE",
"721.5 1206 CURVE SMOOTH",
"279 1206 OFFCURVE",
"68 1017 OFFCURVE",
"68 709 CURVE SMOOTH",
"68 0 LINE",
"502 0 LINE",
"502 702.5 LINE SMOOTH",
"502 829.5 OFFCURVE",
"563.5 902.5 OFFCURVE",
"746.5 902.5 CURVE SMOOTH",
"830.5 902.5 OFFCURVE",
"886 891 OFFCURVE",
"946.5 864 CURVE",
"980 1027.5 LINE",
"650 687 LINE",
"650 471.5 LINE",
"713 481.5 OFFCURVE",
"760.5 485.5 OFFCURVE",
"815.5 485.5 CURVE SMOOTH",
"915 485.5 OFFCURVE",
"957 450.5 OFFCURVE",
"957 389 CURVE SMOOTH",
"957 334.5 OFFCURVE",
"920 295 OFFCURVE",
"837.5 295 CURVE SMOOTH",
"767 295 OFFCURVE",
"665 312 OFFCURVE",
"597 340.5 CURVE",
"597 31 LINE",
"675 3 OFFCURVE",
"769.5 -16 OFFCURVE",
"886.5 -16 CURVE SMOOTH",
"1196.5 -16 OFFCURVE",
"1362 145 OFFCURVE",
"1362 373 CURVE SMOOTH",
"1362 571 OFFCURVE",
"1217.5 706 OFFCURVE",
"998 706 CURVE SMOOTH",
"966 706 OFFCURVE",
"933 703 OFFCURVE",
"898.5 697 CURVE",
"920.5 568.5 LINE",
"1236 884 LINE",
"1236 1107 LINE"
);
}
);
width = 1404;
}
);
leftKerningGroup = h.sc;
rightKerningGroup = s.sc;
rightMetricsKey = s.sc;
userData = {
RMXScaler = {
source = Germandbls;
};
};
},
{
glyphname = t.sc;
layers = (
{
anchors = (
{
name = bottom;
position = "{482, 0}";
},
{
name = center;
position = "{482, 639}";
},
{
name = top;
position = "{482, 1230}";
}
);
color = -1;
layerId = "2E34DD21-04BD-4163-9BA5-2EB18B4FEFA3";
paths = (
{
closed = 1;
nodes = (
"516 0 LINE",
"516 1126 LINE",
"948 1126 LINE",
"948 1190 LINE",
"16 1190 LINE",
"16 1126 LINE",
"448 1126 LINE",
"448 0 LINE"
);
}
);
width = 964;
},
{
anchors = (
{
name = bottom;
position = "{604, 0}";
},
{
name = center;
position = "{604, 546}";
},
{
name = top;
position = "{604, 1230}";
}
);
color = -1;
layerId = "8B6491DC-016F-4A51-999B-1E64B7342710";
paths = (
{
closed = 1;
nodes = (
"819 0 LINE",
"819 859 LINE",
"1193 859 LINE",
"1193 1190 LINE",
"13 1190 LINE",
"13 859 LINE",
"387 859 LINE",
"387 0 LINE"
);
}
);
width = 1206;
}
);
leftKerningGroup = t.sc;
rightKerningGroup = t.sc;
},
{
glyphname = u.sc;
layers = (
{
anchors = (
{
name = bottom;
position = "{620, 0}";
},
{
name = ogonek;
position = "{732, 2}";
},
{
name = top;
position = "{620, 1230}";
},
{
name = topright;
position = "{989, 1190}";
}
);
color = -1;
layerId = "2E34DD21-04BD-4163-9BA5-2EB18B4FEFA3";
paths = (
{
closed = 1;
nodes = (
"918 -14 OFFCURVE",
"1054 122 OFFCURVE",
"1054 431 CURVE SMOOTH",
"1054 1190 LINE",
"988 1190 LINE",
"988 422 LINE SMOOTH",
"988 163 OFFCURVE",
"877 50 OFFCURVE",
"620 50 CURVE SMOOTH",
"364 50 OFFCURVE",
"252 163 OFFCURVE",
"252 422 CURVE SMOOTH",
"252 1190 LINE",
"184 1190 LINE",
"184 431 LINE SMOOTH",
"184 122 OFFCURVE",
"322 -14 OFFCURVE",
"620 -14 CURVE SMOOTH"
);
}
);
width = 1238;
},
{
anchors = (
{
name = bottom;
position = "{710, 0}";
},
{
name = ogonek;
position = "{947, 0}";
},
{
name = top;
position = "{710, 1230}";
},
{
name = topright;
position = "{917, 1190}";
}
);
color = -1;
layerId = "8B6491DC-016F-4A51-999B-1E64B7342710";
paths = (
{
closed = 1;
nodes = (
"1125 -16 OFFCURVE",
"1306 179 OFFCURVE",
"1306 541 CURVE SMOOTH",
"1306 1190 LINE",
"883 1190 LINE",
"883 506 LINE SMOOTH",
"883 374 OFFCURVE",
"824 314 OFFCURVE",
"710 314 CURVE SMOOTH",
"596 314 OFFCURVE",
"537 374 OFFCURVE",
"537 506 CURVE SMOOTH",
"537 1190 LINE",
"106 1190 LINE",
"106 541 LINE SMOOTH",
"106 179 OFFCURVE",
"289 -16 OFFCURVE",
"710 -16 CURVE SMOOTH"
);
}
);
width = 1411;
}
);
leftKerningGroup = u.sc;
rightKerningGroup = u.sc;
},
{
glyphname = uhorn.sc;
layers = (
{
anchors = (
{
name = bottom;
position = "{620, 0}";
},
{
name = top;
position = "{620, 1230}";
}
);
color = -1;
layerId = "2E34DD21-04BD-4163-9BA5-2EB18B4FEFA3";
paths = (
{
closed = 1;
nodes = (
"918 -14 OFFCURVE",
"1054 122 OFFCURVE",
"1054 431 CURVE SMOOTH",
"1054 1135 LINE",
"1175 1141 OFFCURVE",
"1250 1203 OFFCURVE",
"1250 1312 CURVE SMOOTH",
"1250 1360 OFFCURVE",
"1244 1390 OFFCURVE",
"1229 1428 CURVE",
"1168 1428 LINE",
"1181 1390 OFFCURVE",
"1189 1358 OFFCURVE",
"1189 1314 CURVE SMOOTH",
"1189 1225 OFFCURVE",
"1123 1190 OFFCURVE",
"1019 1190 CURVE SMOOTH",
"988 1190 LINE",
"988 422 LINE SMOOTH",
"988 163 OFFCURVE",
"877 50 OFFCURVE",
"620 50 CURVE SMOOTH",
"364 50 OFFCURVE",
"252 163 OFFCURVE",
"252 422 CURVE SMOOTH",
"252 1190 LINE",
"184 1190 LINE",
"184 431 LINE SMOOTH",
"184 122 OFFCURVE",
"322 -14 OFFCURVE",
"620 -14 CURVE SMOOTH"
);
}
);
width = 1238;
},
{
anchors = (
{
name = bottom;
position = "{706, 0}";
},
{
name = top;
position = "{706, 1230}";
}
);
color = -1;
layerId = "8B6491DC-016F-4A51-999B-1E64B7342710";
paths = (
{
closed = 1;
nodes = (
"1125 -16 OFFCURVE",
"1306 179 OFFCURVE",
"1306 541 CURVE SMOOTH",
"1306 1047 LINE",
"1393 1088 OFFCURVE",
"1445 1168 OFFCURVE",
"1445 1298 CURVE SMOOTH",
"1445 1338 OFFCURVE",
"1442 1381 OFFCURVE",
"1429 1428 CURVE",
"1157 1428 LINE",
"1166 1379 OFFCURVE",
"1167 1345 OFFCURVE",
"1167 1316 CURVE SMOOTH",
"1167 1220 OFFCURVE",
"1118 1190 OFFCURVE",
"1014 1190 CURVE SMOOTH",
"883 1190 LINE",
"883 506 LINE SMOOTH",
"883 374 OFFCURVE",
"824 314 OFFCURVE",
"710 314 CURVE SMOOTH",
"596 314 OFFCURVE",
"537 374 OFFCURVE",
"537 506 CURVE SMOOTH",
"537 1190 LINE",
"106 1190 LINE",
"106 541 LINE SMOOTH",
"106 179 OFFCURVE",
"289 -16 OFFCURVE",
"710 -16 CURVE SMOOTH"
);
}
);
width = 1411;
}
);
leftKerningGroup = u.sc;
rightKerningGroup = u.sc;
},
{
glyphname = uhorntilde.sc;
layers = (
{
color = -1;
layerId = "2E34DD21-04BD-4163-9BA5-2EB18B4FEFA3";
paths = (
{
closed = 1;
nodes = (
"918 -14 OFFCURVE",
"1054 122 OFFCURVE",
"1054 431 CURVE SMOOTH",
"1054 1135 LINE",
"1175 1141 OFFCURVE",
"1250 1203 OFFCURVE",
"1250 1312 CURVE SMOOTH",
"1250 1360 OFFCURVE",
"1244 1390 OFFCURVE",
"1229 1428 CURVE",
"1168 1428 LINE",
"1181 1390 OFFCURVE",
"1189 1358 OFFCURVE",
"1189 1314 CURVE SMOOTH",
"1189 1225 OFFCURVE",
"1123 1190 OFFCURVE",
"1019 1190 CURVE SMOOTH",
"988 1190 LINE",
"988 422 LINE SMOOTH",
"988 163 OFFCURVE",
"877 50 OFFCURVE",
"620 50 CURVE SMOOTH",
"364 50 OFFCURVE",
"252 163 OFFCURVE",
"252 422 CURVE SMOOTH",
"252 1190 LINE",
"184 1190 LINE",
"184 431 LINE SMOOTH",
"184 122 OFFCURVE",
"322 -14 OFFCURVE",
"620 -14 CURVE SMOOTH"
);
},
{
closed = 1;
nodes = (
"833 1407 OFFCURVE",
"884 1429 OFFCURVE",
"919 1468 CURVE",
"919 1535 LINE",
"876 1487 OFFCURVE",
"830 1464 OFFCURVE",
"764 1464 CURVE SMOOTH",
"672 1464 OFFCURVE",
"588 1540 OFFCURVE",
"476 1540 CURVE SMOOTH",
"407 1540 OFFCURVE",
"356 1518 OFFCURVE",
"321 1479 CURVE",
"321 1412 LINE",
"364 1460 OFFCURVE",
"410 1483 OFFCURVE",
"476 1483 CURVE SMOOTH",
"568 1483 OFFCURVE",
"652 1407 OFFCURVE",
"764 1407 CURVE SMOOTH"
);
}
);
width = 1238;
},
{
color = -1;
layerId = "8B6491DC-016F-4A51-999B-1E64B7342710";
paths = (
{
closed = 1;
nodes = (
"1125 -16 OFFCURVE",
"1306 179 OFFCURVE",
"1306 541 CURVE SMOOTH",
"1306 1047 LINE",
"1393 1088 OFFCURVE",
"1445 1168 OFFCURVE",
"1445 1298 CURVE SMOOTH",
"1445 1338 OFFCURVE",
"1442 1381 OFFCURVE",
"1429 1428 CURVE",
"1157 1428 LINE",
"1166 1379 OFFCURVE",
"1167 1345 OFFCURVE",
"1167 1316 CURVE SMOOTH",
"1167 1220 OFFCURVE",
"1118 1190 OFFCURVE",
"1014 1190 CURVE SMOOTH",
"883 1190 LINE",
"883 506 LINE SMOOTH",
"883 374 OFFCURVE",
"824 314 OFFCURVE",
"710 314 CURVE SMOOTH",
"596 314 OFFCURVE",
"537 374 OFFCURVE",
"537 506 CURVE SMOOTH",
"537 1190 LINE",
"106 1190 LINE",
"106 541 LINE SMOOTH",
"106 179 OFFCURVE",
"289 -16 OFFCURVE",
"710 -16 CURVE SMOOTH"
);
},
{
closed = 1;
nodes = (
"977 1296 OFFCURVE",
"1040 1318 OFFCURVE",
"1097 1371 CURVE",
"1097 1604 LINE",
"1031.5 1557 OFFCURVE",
"974 1534 OFFCURVE",
"889.5 1534 CURVE SMOOTH",
"766 1534 OFFCURVE",
"672.5 1612 OFFCURVE",
"530.5 1612 CURVE SMOOTH",
"435 1612 OFFCURVE",
"372 1588 OFFCURVE",
"315 1535 CURVE",
"315 1302 LINE",
"380.5 1349 OFFCURVE",
"438 1372 OFFCURVE",
"522.5 1372 CURVE SMOOTH",
"646 1372 OFFCURVE",
"739.5 1296 OFFCURVE",
"881.5 1296 CURVE SMOOTH"
);
}
);
width = 1411;
}
);
leftKerningGroup = u.sc;
rightKerningGroup = u.sc;
},
{
glyphname = uogonek.sc;
layers = (
{
color = -1;
layerId = "2E34DD21-04BD-4163-9BA5-2EB18B4FEFA3";
paths = (
{
closed = 1;
nodes = (
"988 422 LINE SMOOTH",
"988 163 OFFCURVE",
"877 50 OFFCURVE",
"620 50 CURVE SMOOTH",
"364 50 OFFCURVE",
"252 163 OFFCURVE",
"252 422 CURVE SMOOTH",
"252 1190 LINE",
"184 1190 LINE",
"184 431 LINE SMOOTH",
"184 122 OFFCURVE",
"322 -14 OFFCURVE",
"620 -14 CURVE SMOOTH",
"648 -14 LINE",
"637 0 LINE",
"526 -59 OFFCURVE",
"481 -142 OFFCURVE",
"481 -229 CURVE SMOOTH",
"481 -337 OFFCURVE",
"556 -398 OFFCURVE",
"690 -398 CURVE SMOOTH",
"745 -398 OFFCURVE",
"801 -385 OFFCURVE",
"857 -359 CURVE",
"857 -305 LINE",
"787 -334 OFFCURVE",
"739 -346 OFFCURVE",
"687 -346 CURVE SMOOTH",
"589 -346 OFFCURVE",
"537 -306 OFFCURVE",
"537 -225 CURVE SMOOTH",
"537 -143 OFFCURVE",
"597 -41 OFFCURVE",
"776 1 CURVE SMOOTH",
"966 46 OFFCURVE",
"1054 182 OFFCURVE",
"1054 431 CURVE SMOOTH",
"1054 1190 LINE",
"988 1190 LINE"
);
}
);
width = 1238;
},
{
color = -1;
layerId = "8B6491DC-016F-4A51-999B-1E64B7342710";
paths = (
{
closed = 1;
nodes = (
"883 506 LINE SMOOTH",
"883 374 OFFCURVE",
"824 314 OFFCURVE",
"710 314 CURVE SMOOTH",
"596 314 OFFCURVE",
"537 374 OFFCURVE",
"537 506 CURVE SMOOTH",
"537 1190 LINE",
"106 1190 LINE",
"106 541 LINE SMOOTH",
"106 179 OFFCURVE",
"289 -16 OFFCURVE",
"710 -16 CURVE SMOOTH",
"773 -16 LINE",
"789 66 LINE",
"545 -8 OFFCURVE",
"465 -113 OFFCURVE",
"465 -236 CURVE SMOOTH",
"465 -372 OFFCURVE",
"564 -460 OFFCURVE",
"777 -460 CURVE SMOOTH",
"856 -460 OFFCURVE",
"915 -448 OFFCURVE",
"970 -430 CURVE",
"970 -275 LINE",
"918 -293 OFFCURVE",
"874 -300 OFFCURVE",
"839 -300 CURVE SMOOTH",
"741 -300 OFFCURVE",
"701 -263 OFFCURVE",
"701 -197 CURVE SMOOTH",
"701 -128 OFFCURVE",
"750 -53 OFFCURVE",
"961 14 CURVE SMOOTH",
"1202 88 OFFCURVE",
"1306 266 OFFCURVE",
"1306 541 CURVE SMOOTH",
"1306 1190 LINE",
"883 1190 LINE"
);
}
);
width = 1411;
}
);
leftKerningGroup = u.sc;
rightKerningGroup = u.sc;
},
{
glyphname = v.sc;
layers = (
{
color = -1;
layerId = "2E34DD21-04BD-4163-9BA5-2EB18B4FEFA3";
paths = (
{
closed = 1;
nodes = (
"588 0 LINE",
"1062 1190 LINE",
"991 1190 LINE",
"536 38 LINE",
"548 38 LINE",
"92 1190 LINE",
"19 1190 LINE",
"493 0 LINE"
);
}
);
width = 1081;
},
{
color = -1;
layerId = "8B6491DC-016F-4A51-999B-1E64B7342710";
paths = (
{
closed = 1;
nodes = (
"992 0 LINE",
"1346 1190 LINE",
"928 1190 LINE",
"631 152 LINE",
"727 152 LINE",
"441 1190 LINE",
"-4 1190 LINE",
"350 0 LINE"
);
}
);
width = 1342;
}
);
leftKerningGroup = v.sc;
rightKerningGroup = v.sc;
},
{
glyphname = w.sc;
layers = (
{
anchors = (
{
name = bottom;
position = "{883, 0}";
},
{
name = top;
position = "{883, 1230}";
}
);
color = -1;
layerId = "2E34DD21-04BD-4163-9BA5-2EB18B4FEFA3";
paths = (
{
closed = 1;
nodes = (
"532 0 LINE",
"890 1144 LINE",
"873 1144 LINE",
"1231 0 LINE",
"1324 0 LINE",
"1691 1190 LINE",
"1624 1190 LINE",
"1271 39 LINE",
"1284 39 LINE",
"927 1190 LINE",
"837 1190 LINE",
"479 39 LINE",
"496 39 LINE",
"142 1190 LINE",
"71 1190 LINE",
"439 0 LINE"
);
}
);
width = 1762;
},
{
anchors = (
{
name = bottom;
position = "{1062, 0}";
},
{
name = top;
position = "{1062, 1230}";
}
);
color = -1;
layerId = "8B6491DC-016F-4A51-999B-1E64B7342710";
paths = (
{
closed = 1;
nodes = (
"872 0 LINE",
"1128 958 LINE",
"1016 958 LINE",
"1253 0 LINE",
"1801 0 LINE",
"2109 1190 LINE",
"1707 1190 LINE",
"1456 168 LINE",
"1555 168 LINE",
"1308 1190 LINE",
"842 1190 LINE",
"575 168 LINE",
"684 168 LINE",
"445 1190 LINE",
"15 1190 LINE",
"324 0 LINE"
);
}
);
width = 2124;
}
);
leftKerningGroup = v.sc;
rightKerningGroup = v.sc;
},
{
glyphname = x.sc;
layers = (
{
color = -1;
layerId = "2E34DD21-04BD-4163-9BA5-2EB18B4FEFA3";
paths = (
{
closed = 1;
nodes = (
"1031 0 LINE",
"576 604 LINE",
"535 657 LINE",
"130 1190 LINE",
"46 1190 LINE",
"491 603 LINE",
"534 548 LINE",
"947 0 LINE"
);
},
{
closed = 1;
nodes = (
"120 0 LINE",
"534 548 LINE",
"576 604 LINE",
"1020 1190 LINE",
"940 1190 LINE",
"535 657 LINE",
"491 603 LINE",
"36 0 LINE"
);
}
);
width = 1067;
},
{
color = -1;
layerId = "8B6491DC-016F-4A51-999B-1E64B7342710";
paths = (
{
closed = 1;
nodes = (
"1338 0 LINE",
"892 631 LINE",
"643 921 LINE",
"460 1190 LINE",
"-14 1190 LINE",
"389 627 LINE",
"638 342 LINE",
"867 0 LINE"
);
},
{
closed = 1;
nodes = (
"412 0 LINE",
"638 342 LINE",
"892 631 LINE",
"1284 1190 LINE",
"822 1190 LINE",
"643 921 LINE",
"389 627 LINE",
"-58 0 LINE"
);
}
);
width = 1283;
}
);
leftKerningGroup = x.sc;
rightKerningGroup = x.sc;
},
{
glyphname = y.sc;
layers = (
{
anchors = (
{
name = bottom;
position = "{482, 0}";
},
{
name = top;
position = "{482, 1230}";
},
{
name = topleft;
position = "{14, 1190}";
}
);
color = -1;
layerId = "2E34DD21-04BD-4163-9BA5-2EB18B4FEFA3";
paths = (
{
closed = 1;
nodes = (
"516 0 LINE",
"516 571 LINE",
"499 515 LINE",
"970 1190 LINE",
"893 1190 LINE",
"469 586 LINE",
"498 586 LINE",
"67 1190 LINE",
"-14 1190 LINE",
"465 515 LINE",
"448 571 LINE",
"448 0 LINE"
);
}
);
width = 964;
},
{
anchors = (
{
name = bottom;
position = "{602, 0}";
},
{
name = top;
position = "{602, 1230}";
},
{
name = topleft;
position = "{-18, 1190}";
}
);
color = -1;
layerId = "8B6491DC-016F-4A51-999B-1E64B7342710";
paths = (
{
closed = 1;
nodes = (
"821 0 LINE",
"821 633 LINE",
"736 344 LINE",
"1257 1190 LINE",
"840 1190 LINE",
"556 723 LINE",
"672 723 LINE",
"389 1190 LINE",
"-61 1190 LINE",
"475 344 LINE",
"389 638 LINE",
"389 0 LINE"
);
}
);
width = 1206;
}
);
leftKerningGroup = y.sc;
rightKerningGroup = y.sc;
},
{
glyphname = z.sc;
layers = (
{
anchors = (
{
name = bottom;
position = "{485, 0}";
},
{
name = top;
position = "{485, 1230}";
}
);
color = -1;
layerId = "2E34DD21-04BD-4163-9BA5-2EB18B4FEFA3";
paths = (
{
closed = 1;
nodes = (
"905 0 LINE",
"905 64 LINE",
"130 64 LINE",
"142 43 LINE",
"895 1149 LINE",
"895 1190 LINE",
"74 1190 LINE",
"74 1126 LINE",
"828 1126 LINE",
"816 1147 LINE",
"65 41 LINE",
"65 0 LINE"
);
}
);
width = 970;
},
{
anchors = (
{
name = bottom;
position = "{578, 0}";
},
{
name = top;
position = "{582, 1230}";
}
);
color = -1;
layerId = "8B6491DC-016F-4A51-999B-1E64B7342710";
paths = (
{
closed = 1;
nodes = (
"1102 0 LINE",
"1102 331 LINE",
"563 331 LINE",
"561 265 LINE",
"1094 967 LINE",
"1094 1190 LINE",
"68 1190 LINE",
"68 859 LINE",
"592 859 LINE",
"594 925 LINE",
"60 223 LINE",
"60 0 LINE"
);
}
);
width = 1162;
}
);
leftKerningGroup = z.sc;
rightKerningGroup = z.sc;
},
{
glyphname = ordfeminine;
layers = (
{
color = -1;
layerId = "2E34DD21-04BD-4163-9BA5-2EB18B4FEFA3";
paths = (
{
closed = 1;
nodes = (
"463 596 OFFCURVE",
"566 640 OFFCURVE",
"630 712 CURVE",
"636 712 LINE",
"642 610 LINE",
"698 610 LINE",
"698 1203 LINE SMOOTH",
"698 1422 OFFCURVE",
"586 1492 OFFCURVE",
"383 1492 CURVE SMOOTH",
"302 1492 OFFCURVE",
"209 1478 OFFCURVE",
"137 1451 CURVE",
"137 1387 LINE",
"225 1417 OFFCURVE",
"311 1430 OFFCURVE",
"380 1430 CURVE SMOOTH",
"543 1430 OFFCURVE",
"634 1382 OFFCURVE",
"634 1205 CURVE SMOOTH",
"634 790 LINE",
"558 697 OFFCURVE",
"456 658 OFFCURVE",
"359 658 CURVE SMOOTH",
"222 658 OFFCURVE",
"154 720 OFFCURVE",
"154 833 CURVE SMOOTH",
"154 940 OFFCURVE",
"223 999 OFFCURVE",
"392 1017 CURVE SMOOTH",
"671 1047 LINE",
"668 1106 LINE",
"391 1076 LINE SMOOTH",
"177 1053 OFFCURVE",
"86 971 OFFCURVE",
"86 827 CURVE SMOOTH",
"86 683 OFFCURVE",
"189 596 OFFCURVE",
"352 596 CURVE SMOOTH"
);
}
);
width = 828;
},
{
color = -1;
layerId = "8B6491DC-016F-4A51-999B-1E64B7342710";
paths = (
{
closed = 1;
nodes = (
"420 592 OFFCURVE",
"504 619 OFFCURVE",
"552 691 CURVE",
"569 691 LINE",
"597 610 LINE",
"922 610 LINE",
"922 1079 LINE SMOOTH",
"922 1392 OFFCURVE",
"778 1502 OFFCURVE",
"431 1502 CURVE SMOOTH",
"329 1502 OFFCURVE",
"207 1490 OFFCURVE",
"103 1465 CURVE",
"103 1186 LINE",
"180 1206 OFFCURVE",
"273 1218 OFFCURVE",
"352 1218 CURVE SMOOTH",
"505 1218 OFFCURVE",
"531 1186 OFFCURVE",
"531 1131 CURVE SMOOTH",
"531 850 LINE",
"514 846 OFFCURVE",
"493 845 OFFCURVE",
"479 845 CURVE SMOOTH",
"430 845 OFFCURVE",
"403 866 OFFCURVE",
"403 907 CURVE SMOOTH",
"403 945 OFFCURVE",
"427 966 OFFCURVE",
"486 968 CURVE SMOOTH",
"632 972 LINE",
"583 1152 LINE",
"425 1146 LINE SMOOTH",
"136 1135 OFFCURVE",
"19 1041 OFFCURVE",
"19 859 CURVE SMOOTH",
"19 706 OFFCURVE",
"124 592 OFFCURVE",
"329 592 CURVE SMOOTH"
);
}
);
width = 982;
}
);
leftKerningGroup = ord;
rightKerningGroup = ord;
unicode = 00AA;
},
